<svg width="473" height="859" viewBox="0 0 473 859" fill="none" xmlns="http://www.w3.org/2000/svg">
<g clip-path="url(#clip0_15_308)" filter="url(#filter0_d_15_308)">
<path d="M713.575 102.823C709.803 98.5058 704.852 95.7785 699.495 93.7757C692.608 91.2021 685.767 88.4766 678.845 85.9902C676.972 85.3146 676.347 84.5426 676.969 82.6278C678.703 77.2575 677.784 71.7142 676.8 66.495C674.239 52.839 664.736 46.8913 651.146 50.1395C647.474 51.0165 645.201 50.4612 642.51 47.7686C633.491 38.7471 625.16 39.1939 616.622 48.6957C616.392 48.9486 616.226 49.5427 615.667 49.0847C606.129 38.6213 598.099 38.8978 590.009 50.3002C588.446 52.5034 587.311 51.6268 585.75 51.0445C572.243 45.9912 558.708 41.0149 545.251 35.8266C542.402 34.7286 539.75 34.3956 536.854 35.2498C529.099 37.5344 521.005 38.0107 513.084 39.1333C506.574 40.0539 500.24 41.345 493.363 42.8314C503.824 55.2629 513.923 67.2393 523.986 79.2586C525.101 80.583 526.608 80.9549 528.083 81.511C542.799 87.035 557.502 92.6239 572.258 98.0419C574.672 98.9307 575.096 99.6744 574.218 102.264C571.638 109.872 572.439 116.904 578.821 122.698C583.359 126.817 588.47 130.424 593.914 132.63C598.707 134.566 597.488 135.844 595.717 138.908C590.36 148.143 593.079 155.645 602.965 159.684C606.19 161.004 609.544 162.057 612.987 162.231C616.438 162.403 617.884 163.782 618.57 167.184C622.129 184.912 625.822 202.559 627.516 220.656C628.314 229.178 628.768 237.667 628.842 246.166C628.954 258.728 626.768 270.908 621.555 282.534C617.534 291.503 607.446 298.132 597.586 297.643C589.392 297.228 581.898 294.348 574.417 291.359C573.021 290.804 571.859 289.8 571.567 288.381C570.247 281.912 567.758 275.824 565.817 269.566C563.108 260.855 560.999 251.963 558.315 243.247C554.129 229.669 549.259 216.291 545.458 202.605C541.799 189.421 537.178 176.548 533.601 163.374C530.503 151.952 526.199 140.909 523.606 129.362C523.209 127.575 522.789 127.061 520.821 127.816C515.244 129.957 509.541 131.753 503.907 133.747C492.433 137.815 480.984 141.957 469.494 145.992C461.653 148.747 453.766 151.37 445.596 154.16C448.367 146.991 446.736 144.029 439.445 143.19C435.808 142.774 431.996 142.82 428.402 143.441C425.159 143.996 423.67 143.461 423.055 140.061C422.15 135.003 420.249 130.183 418.204 125.481C403.634 91.9792 364.433 67.1643 318.078 81.9348C299.205 87.9541 284.423 100.422 274.486 117.955C265.025 134.642 261.394 152.424 264.643 171.495C266.144 180.276 268.354 188.809 273.008 196.487C274.212 198.484 273.457 199.23 271.983 200.225C268.519 202.584 265.192 205.126 262.389 208.257C259.451 211.551 257.239 215.045 260.933 219.449C252.746 222.207 244.819 224.679 237.025 227.53C221.898 233.065 206.829 238.747 191.402 243.414C186.353 244.947 182.564 247.906 179.747 252.602C176.454 258.063 172.783 263.419 168.515 268.13C165.354 271.621 166.603 274.416 167.967 277.665C168.182 278.179 168.611 278.611 168.784 279.133C172.042 288.969 174.816 298.988 178.622 308.602C183.992 322.158 187.894 336.195 193.233 349.776C198.312 362.676 201.978 376.142 207.034 389.099C208.185 392.057 208.43 394.923 206.425 398.054C201.193 406.251 196.22 414.535 189.919 422.081C182.784 430.628 175.612 438.874 165.578 444.081C159.783 447.076 153.838 447.566 147.675 445.229C139.843 442.262 134.038 436.727 129.081 430.293C115.165 412.245 107.926 391.049 102.127 369.495C99.4077 359.358 96.7111 349.119 95.0475 338.607C92.7202 323.881 89.8643 309.215 87.6418 294.44C87.3666 292.6 87.5815 291.774 89.5246 291.61C92.8682 291.317 95.7315 289.973 98.3916 287.839C103.782 283.484 104.134 275.613 99.0481 270.875C98.119 270.008 96.5751 269.67 96.0777 268.037C98.0297 267.623 99.7626 267.388 101.412 266.887C112.102 263.598 121.078 258.163 126.217 247.609C130.333 239.134 130.032 230.568 127.216 221.942C126.251 218.98 124.238 216.392 120.87 216.069C118.453 215.837 118.735 215.121 119.068 213.179C120.152 206.669 118.779 200.868 113.076 196.73C106.377 191.873 98.8394 190.75 90.9013 192.044C83.999 193.163 77.1928 194.777 70.9537 198.309C70.7285 197.541 70.5207 197.23 70.5914 197.02C74.5064 186.132 69.7539 170.803 59.5332 163.935C53.3896 159.811 47.4962 160.627 42.6745 166.325C40.5481 168.843 39.2631 171.856 37.6836 174.861C36.4207 173.967 35.4243 173.159 34.3409 172.484C26.7381 167.712 16.3929 170.661 12.6596 178.771C10.3911 183.669 10.2493 188.977 10.7276 194.197C11.8667 206.709 15.1803 218.769 19.2112 230.614C21.9364 238.647 24.3563 246.914 28.2168 254.405C32.0653 261.881 35.0659 269.75 39.2813 277.033C39.9137 278.131 40.5928 279.158 39.4109 280.526C35.9376 284.554 34.7307 289.147 37.5961 293.914C40.9351 299.449 45.7485 302.738 52.5538 301.329C54.8385 300.853 55.7997 301.412 55.9415 303.625C56.4675 312.037 58.1189 320.361 59.7125 328.537C64.4483 352.729 68.513 377.144 77.5028 400.318C80.6441 408.432 82.8645 417.096 86.8498 424.632C91.1865 432.82 95.7673 441.072 101.463 448.643C109.558 459.413 119.115 468.125 131.267 473.856C148.94 482.194 166.277 480.261 183.176 471.504C197.663 463.994 208.403 452.251 218.42 439.73C219.623 438.215 220.111 435.123 222.204 435.539C224.452 435.975 224.219 438.889 224.407 440.987C224.427 441.249 224.631 441.498 224.738 441.75C228.933 451.405 231.717 461.555 235.261 471.437C237.321 477.173 238.847 483.111 241.062 488.743C244.644 497.845 247.772 507.106 251.055 516.307C253.575 523.373 255.724 530.571 258.194 537.657C260.325 543.768 263.056 549.698 264.826 555.904C267.693 565.947 271.846 575.522 274.76 585.574C278.264 597.655 283.256 609.305 287.537 621.159C291.376 631.768 294.823 642.531 298.419 653.209C301.001 660.856 304.565 668.162 306.258 676.139C307.36 681.333 310.455 684.756 315.838 686.887C324.388 690.269 332.941 693.837 340.885 698.626C341.709 699.125 343.053 699.398 343.929 699.097C351.651 696.447 359.255 693.414 367.035 690.956C374.34 688.642 381.14 684.618 388.559 684.134C390.13 687.65 389.155 691.245 389.922 694.736C392.277 705.456 394.276 716.251 396.876 726.91C397.971 731.405 395.939 731.774 392.603 731.604C388.432 731.381 384.236 730.835 380.088 731.059C372.47 731.479 367.567 737.335 368.544 744.277C369.501 751 376.206 755.599 383.322 754.275C387.01 753.599 390.683 752.766 394.32 751.852C395.684 751.509 396.699 750.939 397.072 753.033C397.388 754.855 397.454 756.003 395.117 756.233C390.305 756.713 385.448 756.893 380.669 757.109C369.668 757.599 359.385 760.048 349.826 765.323C340.259 770.6 335.655 779.16 335.842 789.861C335.951 796.268 339.308 801.596 345.046 804.812C356.448 811.226 368.83 810.354 381.079 808.765C395.374 806.919 409.082 802.511 422.47 797.31C430.05 794.371 437.973 792.166 444.801 787.399C451.507 782.721 453.505 777.924 452.109 770.096C450.429 760.679 445.616 752.459 442.371 743.649C440.983 739.908 439.607 736.892 441.784 733.068C442.641 731.547 442.616 729.424 442.674 727.566C442.909 720.403 438.607 716.181 431.422 716.802C429.304 716.976 429.093 716.108 428.711 714.557C425.471 701.674 423.644 688.598 423.255 675.315C423.172 672.628 423.96 671.201 426.787 670.521C434.798 668.564 442.481 665.443 450.241 662.722C464.133 657.849 478.176 653.476 492.089 648.696C500.271 645.877 508.536 643.324 516.716 640.533C529.305 636.246 541.829 631.779 554.434 627.525C563.017 624.63 571.788 622.245 580.252 619.038C582.986 618.005 584.042 618.26 585.208 620.576C589.588 629.26 593.667 637.991 596.519 647.417C599.079 655.84 601.189 664.279 602.684 672.911C602.965 674.528 603.271 675.634 600.907 676.277C596.614 677.446 594.2 681.87 594.711 686.364C595.198 690.749 597.616 694.12 600.486 697.236C601.35 698.17 602.347 698.899 602.375 700.454C602.503 708.994 603.276 717.567 602.809 726.065C602.2 737.068 611.163 747.538 621.767 747.061C628.199 746.778 634.659 747.127 641.074 746.218C648.987 745.097 657.044 746.119 664.955 744.236C675.531 741.707 686.336 740.088 696.411 735.741C702.742 733.013 708.93 730.033 713.809 724.944C717.753 720.834 720.449 716.066 719.582 710.228C717.515 696.272 708.887 688.463 694.711 687.321C686.371 686.643 678.332 688.296 670.334 690.393C663.938 692.061 657.846 694.533 651.782 697.133C650.294 697.769 648.26 699.096 647.37 695.986C646.473 692.85 648.951 693.574 650.325 693.238C653.834 692.387 657.402 691.772 660.927 690.953C668.604 689.181 671.646 683.374 669.56 674.628C668.303 669.334 662.072 666.514 655.565 667.949C651.651 668.815 648.704 671.392 645.252 673.056C638.091 676.509 636.389 675.549 636.092 667.55C635.666 655.764 631.762 644.726 628.434 633.601C625.621 624.193 621.839 615.107 616.886 606.606C628.564 602.708 639.953 599.075 651.199 595.065C654.439 593.907 657.854 593.449 661.016 591.882C662.926 590.935 663.218 590.181 662.709 588.409C661.229 583.189 660.224 577.788 658.263 572.767C656.875 569.239 656.493 565.516 655.16 562.038C652.142 554.208 650.489 545.921 647.538 538.121C645.352 532.332 644.638 526.213 642.279 520.488C639.86 514.606 638.254 508.375 636.456 502.247C634.804 496.637 633.649 490.86 631.799 485.319C627.639 472.907 623.747 460.421 620.428 447.75C619.626 444.683 618.965 441.276 617.763 438.666C614.297 431.109 612.66 423.022 610.28 415.234C607.07 404.749 603.531 394.343 600.719 383.729C599.173 377.911 597.04 372.288 595.672 366.387C594.177 359.929 591.314 353.796 589.605 347.373C588.01 341.362 585.225 335.638 584.863 329.125C593.048 329.578 601.078 331.058 609.262 329.374C617.6 327.666 625.231 324.672 632.073 319.636C645.691 309.624 653.304 295.724 657.513 279.744C664.617 252.834 661.522 225.801 657.979 198.828C656.475 187.396 654.262 176.052 651.51 164.84C650.898 162.335 651.816 161.183 653.885 160.318C662.438 156.737 665.106 151.674 662.981 142.582C662.549 140.758 662.875 139.953 664.322 138.705C668.346 135.226 672.351 134.456 676.958 137.398C678.026 138.085 679.369 138.35 680.572 138.839C686.259 141.144 692.187 143.248 698.281 142.752C707.323 142.022 714.322 137.636 717.708 128.686C721.271 119.274 720.299 110.513 713.575 102.823ZM66.8868 295.564C61.9466 296.4 57.4703 298.92 52.4625 299.645C45.8648 300.611 38.8756 295.931 37.9338 289.78C37.2553 285.33 39.9652 281.216 44.3185 279.955C47.6592 278.98 51.3287 279.052 54.4232 277.251C54.3555 276.849 54.2981 276.453 54.2304 276.05C51.1582 276.703 48.0432 277.195 45.0329 278.056C42.8606 278.685 41.8192 278.25 40.7835 276.129C33.1628 260.575 26.3008 244.71 20.5208 228.385C16.6186 217.355 13.704 206.088 12.4613 194.467C11.8907 189.063 12.6119 183.686 14.6829 178.483C17.5722 171.245 31.1728 169.759 36.0622 176.331C36.6328 177.097 36.716 177.949 36.9208 178.872C38.9669 188.052 38.9228 197.622 41.7667 206.633C43.3607 206.454 43.0797 205.423 42.8734 204.66C40.9826 197.549 41.6542 189.974 39.1596 183.027C37.0206 177.086 43.5875 166.113 48.2636 163.95C51.7904 162.305 54.9378 163.261 58.0795 165.192C68.5852 171.69 72.9046 187.234 68.3746 198.067C67.4644 200.256 66.0407 202.323 66.1349 204.982C73.7031 196.972 83.1945 194.638 93.701 193.827C99.9402 193.345 105.365 194.376 110.685 197.211C116.324 200.209 117.634 205.714 117.641 211.176C117.643 215.823 113.895 218.685 109.792 220.54C105.73 222.378 101.956 221.397 98.3092 219.173C92.6018 215.684 86.6044 213.586 79.7879 215.485C73.6414 217.198 67.7661 224.325 68.0038 230.501C68.1667 234.946 70.9434 238.25 74.2838 240.867C82.5069 247.308 91.7187 248.253 101.241 244.52C108.037 241.853 111.543 236.391 111.872 229.084C111.984 226.603 112.126 224.178 113.371 221.98C114.791 219.479 116.621 217.486 119.813 217.731C123.183 217.982 124.842 220.326 125.763 223.199C131.172 240.074 123.053 256.733 106.372 263.218C100.465 265.518 94.4074 266.645 88.0732 267.306C82.6839 267.865 77.8539 271.267 72.5154 272.817C74.7484 273.726 76.7061 273.213 78.6439 272.314C82.477 270.525 86.6593 269.921 90.7562 269.291C94.7494 268.674 100.087 273.138 100.87 277.202C101.732 281.64 98.8385 286.769 94.1424 287.96C84.991 290.267 76.2422 293.968 66.8868 295.564ZM110.629 222.518C110.423 225.223 110.298 227.644 110.045 230.048C109.127 238.926 102.493 244.316 91.9168 244.84C83.4816 245.256 76.1915 242.041 71.2109 234.663C69.8376 232.622 69.4996 230.654 70.1901 228.308C72.9125 219.029 80.6288 214.642 89.8869 217.351C92.0725 217.995 94.2158 218.942 96.223 220.041C103.115 223.847 103.082 223.898 110.629 222.518ZM418.781 132.419C421.088 136.142 419.395 137.734 416.291 139.785C404.07 147.852 391.723 155.661 378.527 162.063C377.216 162.696 376.026 163.481 374.478 163.295C375.981 160.723 375.647 158.062 373.783 156.134C369.837 152.04 364.908 152.803 359.941 154.017C379.086 145.722 397.595 136.233 415.827 125.188C416.823 127.708 417.458 130.278 418.781 132.419ZM354.28 166.287C358.602 168.35 362.864 170.505 365.696 174.569C367.41 177.044 368.799 179.871 366.318 182.428C363.653 185.167 360.834 183.167 358.584 181.471C354.581 178.445 352.126 174.194 350.187 169.613C349.834 168.783 349.617 167.259 348.342 167.645C346.736 168.146 347.519 169.869 347.938 170.551C350.067 174.02 350.205 177.804 350.208 181.662C350.206 181.946 350.32 182.232 350.329 182.523C350.479 186.952 347.848 191.227 344.946 191.302C341.945 191.371 339.83 188.006 339.934 182.982C340.023 178.431 341.572 174.235 343.405 170.13C343.805 169.211 345.388 167.935 344.014 167.189C342.312 166.273 342.175 168.511 341.61 169.402C339.662 172.467 337.365 175.181 334.927 177.863C332.713 180.302 329.481 180.074 326.91 181.587C325.381 182.488 322.758 178.823 323.353 176.736C325.189 170.262 330.758 168.042 336.152 165.709C337.833 164.98 339.874 165.274 341.401 163.611C337.383 162.902 333.466 164.922 329.417 163.688C327.236 163.025 324.878 162.905 322.868 161.664C321.059 160.54 319.669 159.088 320.069 156.75C320.458 154.406 322.249 153.441 324.337 153.042C328.908 152.178 332.815 154.08 336.632 156.188C338.614 157.293 340.526 158.528 342.512 159.738C343.613 157.988 341.813 157.572 341.059 156.818C337.787 153.522 334.584 150.175 333.537 145.448C332.939 142.755 333.058 140.06 336.044 138.832C338.76 137.714 340.892 139.275 342.366 141.33C344.993 144.976 345.413 149.375 345.587 153.666C345.659 155.257 345.666 156.63 346.648 158.328C347.997 156.995 347.709 155.513 347.919 154.245C348.646 149.94 349.601 145.71 352.604 142.35C354.541 140.191 357.004 138.675 359.843 140.476C362.559 142.197 362.062 144.954 361.091 147.484C359.703 151.096 357.035 153.738 354.102 156.134C352.801 157.191 351.472 158.2 349.8 159.513C352.947 160.3 355.087 158.559 356.856 157.492C360.58 155.229 364.495 155.498 368.356 155.592C370.647 155.647 372.82 157.03 373.171 159.812C373.514 162.471 371.635 163.774 369.641 164.659C365.056 166.705 360.425 165.781 355.788 164.619C354.25 164.227 352.736 163.191 350.903 163.793C351.338 165.927 353.106 165.729 354.28 166.287ZM267.641 177.342C258.616 141.634 276.584 103.23 310.235 87.3156C348.73 69.1049 392.46 83.8764 413.135 119.231C414.776 122.032 414.672 123.34 411.7 125.088C395.828 134.47 379.496 142.895 362.162 150.441C363.662 145.972 365.375 141.174 360.718 138.872C353.358 135.245 350.603 142.03 346.81 147.349C345.636 142.614 344.149 138.992 340.162 137.133C338.201 136.21 336.388 137.029 334.716 137.588C330.871 138.865 330.717 142.862 333.923 152.24C328.213 151.243 321.885 148.427 318.366 155.79C315.782 161.208 321.297 162.246 324.264 165.066C317.59 167.512 311.218 170.46 304.529 172.164C293.659 174.941 282.896 178.219 271.822 180.242C268.825 180.789 268.256 179.783 267.641 177.342ZM277.547 181.058C295.295 177.76 312.268 171.94 330.198 165.359C318.82 174.435 319.441 178.737 323.711 182.895C308.99 187.918 293.614 190.481 278.399 193.764C275.195 194.462 273.679 193.506 272.466 190.633C269.147 182.769 269.022 182.636 277.547 181.058ZM263.77 209.667C266.631 206.39 270.056 203.721 273.655 201.334C275.599 200.043 277.295 198.965 275.334 196.374C288.992 194.407 302.069 191.374 315.041 187.884C321.829 186.062 328.532 183.877 335.281 181.912C336.6 181.525 338.078 180.839 337.965 183.524C337.716 189.12 341.062 193.439 345.111 193.165C349.266 192.895 352.656 187.723 352.227 182.315C352.119 180.972 351.227 179.654 352.004 177.839C353.949 179.732 355.538 181.533 357.384 183.003C361.161 186.006 365.156 186.276 367.641 183.939C370.094 181.627 369.987 177.525 367.364 173.612C366.729 172.665 366.046 171.745 365.172 170.512C384.386 162.753 401.844 152.28 418.731 140.793C420.156 139.817 421.414 139.097 421.526 141.592C421.764 146.597 425.248 145.796 428.195 145.223C432.699 144.338 437.11 144.52 441.467 145.617C445.599 146.656 446.339 148.76 443.95 152.256C441.223 156.25 437.42 159.141 433.506 161.844C416.336 173.719 397.489 182.367 378.312 190.339C365.19 195.794 351.861 200.69 338.339 205.095C323.466 209.945 308.303 213.678 293.073 217.142C284.571 219.079 275.872 219.799 267.147 218.893C264.745 218.649 261.832 218.38 260.985 215.686C260.213 213.26 262.264 211.388 263.77 209.667ZM315.972 684.969C311.016 683.094 309.285 679.453 307.738 675.133C304.709 666.712 302.163 658.144 299.092 649.731C296.602 642.934 294.151 636.066 291.814 629.191C287.353 616.072 283.048 602.892 278.644 589.751C274.53 577.471 269.74 565.433 265.771 553.086C262.016 541.413 256.896 530.163 253.394 518.427C250.321 508.17 246.354 498.254 243.144 488.061C239.991 478.052 235.83 468.354 232.594 458.371C229.571 449.017 226.295 439.77 223.018 430.514C218.665 418.241 214.36 405.939 210.074 393.643C205.921 381.726 202.135 369.651 197.97 357.719C193.149 343.949 188.503 330.123 183.656 316.358C178.686 302.22 173.569 288.139 168.552 274.029C168.183 272.999 167.94 272.022 168.824 270.84C173.929 264.054 178.888 257.165 184.659 249.253C236.912 398.572 288.852 546.999 341.025 696.068C332.034 692.026 324.166 688.055 315.972 684.969ZM446.322 783.99C442.164 787.72 437.093 789.86 431.955 791.767C421.964 795.466 412.094 799.654 401.848 802.485C386.557 806.707 370.988 809.905 354.956 806.665C348.173 805.293 342.512 802.273 339.125 795.843C338.498 794.646 338.037 793.6 338.368 791.649C351.08 800.436 364.748 799.815 378.565 797.84C393.706 795.673 408.192 791.383 422.271 785.299C427.633 782.981 433.44 781.509 438.726 778.835C443.18 776.586 447.008 773.6 449.188 768.872C452.298 773.746 451.208 779.6 446.322 783.99ZM429.747 719.357C435.164 717.134 440.096 719.892 440.717 725.702C441.005 728.311 440.867 731.045 439.715 733.348C438.045 736.682 438.597 739.572 440.026 742.754C442.392 748.008 444.424 753.404 446.661 758.72C449.228 764.837 448.21 769.319 443.07 773.683C438.696 777.396 433.431 779.418 428.154 781.381C412.611 787.172 397.171 793.279 380.602 795.696C372.429 796.889 364.275 797.582 356.033 796.529C353.16 796.154 350.314 795.659 347.651 794.521C343.583 792.777 338.811 791.271 338.216 786.129C337.52 780.095 342.473 772.338 347.655 769.97L347.689 769.963C349.084 766.758 352.324 766.017 355.011 764.843C368.543 758.982 382.865 757.76 397.402 758.223C404.894 758.459 412.373 758.974 419.856 759.337C420.735 759.381 422.128 760.096 422.074 758.378C422.037 757.242 420.727 757.467 419.99 757.419C414.53 757.061 409.052 756.53 403.594 756.598C399.931 756.639 399.104 754.376 398.831 751.791C398.535 748.98 401.303 749.944 402.661 749.612C408.901 748.092 415.205 746.869 421.528 745.527C420.918 743.156 419.743 743.804 418.9 744.01C407.31 746.78 395.486 748.571 384.267 752.833C379.579 754.609 371.868 749.992 370.537 744.936C369.142 739.617 373.116 733.852 378.962 733.063C381.221 732.761 383.587 732.835 385.849 733.127C398.471 734.803 409.848 731.66 420.347 724.669C423.328 722.67 426.377 720.737 429.747 719.357ZM712.124 724.024C707.453 728.883 701.45 731.691 695.321 734.154C680.002 740.288 664.009 743.124 647.565 744.042C639.415 744.504 631.289 745.333 623.123 745.008C616.55 744.754 610.656 743.105 607.048 736.677C606.007 734.823 605.837 733.103 605.579 730.923C612.07 735.851 619.438 736.425 626.899 736.1C635.626 735.72 644.351 735.083 653.063 734.343C668.798 733.008 684.089 729.753 698.524 723.088C705.99 719.65 712.544 715.137 716.897 706.896C719.462 714.387 716.507 719.475 712.124 724.024ZM647.879 673.855C650.396 672.469 652.921 670.993 655.601 669.999C660.689 668.103 665.525 670.163 667.994 674.943C670.052 678.914 668.631 684.377 664.549 687.168C660.096 690.216 655.254 691.598 649.669 691.568C640.209 691.501 631.322 694.886 622.257 697.263C625.012 698.336 627.53 697.287 630.07 696.802C634.188 696.016 638.258 695.01 642.384 694.268C643.537 694.058 645.594 692.593 645.763 695.058C645.891 696.876 647.558 699.254 644.502 700.692C639.411 703.076 634.462 705.75 629.469 708.344C628.519 708.838 627.409 709.251 627.082 710.385C628.26 711.758 629.054 710.774 629.873 710.369C641.156 704.905 651.887 698.255 663.895 694.367C673.812 691.153 683.85 688.429 694.443 689.276C696.137 689.404 698.198 688.878 699.449 690.758L699.458 690.757C705.463 690.635 714.458 697.036 715.447 702.449C716.063 705.849 714.058 708.563 712.014 711.01C706.246 717.893 698.397 721.528 690.212 724.542C673.2 730.805 655.433 732.678 637.491 733.559C631.733 733.842 625.98 734.486 620.206 734.026C616.589 733.739 613.002 733.134 609.942 731.008C606.998 728.963 604.999 726.478 605.003 722.486C605.007 715.567 604.532 708.652 604.368 701.734C604.313 699.306 603.699 697.414 601.782 695.693C599.417 693.578 597.631 690.889 596.846 687.694C595.46 682.081 598.627 677.781 604.435 677.985C609.609 678.164 614.779 678.832 619.926 679.469C629.881 680.7 639.141 678.654 647.879 673.855ZM589.759 353.532C593.731 364.972 597.05 376.641 600.534 388.247C602.136 393.583 603.249 399.077 605.057 404.334C607.911 412.642 609.553 421.295 612.857 429.508C615.602 436.34 617.128 443.652 619.285 450.725C622.03 459.73 625.082 468.634 627.574 477.702C629.573 484.985 631.627 492.238 634.055 499.377C637.861 510.578 640.902 522.022 644.417 533.32C647.226 542.329 650.316 551.288 652.464 560.535C654.064 567.441 656.711 574.108 658.901 580.872C659.071 581.421 659.339 581.932 659.517 582.479C661.719 588.965 661.555 589.657 655.276 591.832C645.045 595.36 634.531 598.142 624.485 602.128C614.562 606.061 604.145 608.379 594.289 612.591C585.59 616.317 576.052 618.058 567.147 621.358C557.361 624.979 547.358 627.909 537.545 631.402C529.374 634.316 521.081 636.866 512.951 639.886C502.291 643.861 491.201 646.516 480.624 650.801C472.588 654.059 464.147 656.285 455.92 659.06C445.159 662.683 434.304 665.99 423.657 669.979C415.53 673.017 407.181 675.472 398.953 678.238C387.849 681.961 376.782 685.774 365.673 689.471C359.321 691.591 352.897 693.504 346.552 695.658C343.862 696.566 342.78 695.439 341.956 693.059C338.184 682.099 334.307 671.188 330.479 660.258C326.706 649.502 322.94 638.736 319.175 627.978C315.449 617.319 311.722 606.651 307.996 595.991C304.254 585.3 300.523 574.615 296.781 563.924C292.995 553.108 289.182 542.29 285.403 531.465C280.075 516.223 274.771 500.967 269.434 485.727C263.509 468.803 257.558 451.884 251.633 434.96C247.876 424.236 244.129 413.519 240.372 402.795C236.604 392.021 232.829 381.256 229.062 370.49C225.303 359.758 221.563 349.031 217.795 338.3C213.947 327.357 210.327 316.32 206.148 305.491C201.667 293.865 198.427 281.817 193.636 270.275C190.946 263.786 189.298 256.818 186.551 250.27C185.785 248.455 186.518 247.315 188.448 246.71C198.784 243.47 208.76 239.197 219.287 236.475C224.541 235.112 229.453 232.517 234.577 230.622C240.737 228.348 247.148 226.668 253.087 223.935C261.278 220.156 269.775 221.661 278.195 221.133C288.47 220.487 298.557 218.452 308.381 215.134C313.944 213.262 319.786 212.332 325.462 210.701C339.77 206.573 353.749 201.646 367.685 196.391C387.254 189.009 406.229 180.503 424.313 170.012C430.045 166.685 435.639 163.12 440.64 158.724C444.69 155.159 450.078 154.929 454.797 153.049C468.497 147.605 482.634 143.38 496.407 138.071C503.878 135.199 511.634 132.879 519.259 130.32C520.551 129.886 521.771 129.033 522.461 131.406C525.137 140.674 528.046 149.865 530.849 159.098C531.103 159.922 531.224 160.783 531.404 161.632L531.243 161.666C533.592 168.972 535.824 176.312 538.327 183.551C539.923 188.143 540.923 192.898 542.306 197.535C545.768 209.164 549.532 220.712 552.729 232.432C555.325 241.948 557.882 251.569 560.998 260.859C564.31 270.737 566.939 280.867 570.819 290.58C572.77 295.47 573.55 300.776 575.265 305.805C579.012 316.814 581.22 328.302 585.605 339.14C587.473 343.764 588.111 348.773 589.759 353.532ZM687.047 91.3271C689.872 92.2706 689.511 93.6599 688.924 95.8245C688.072 98.9587 686.297 97.0737 685.048 96.6205C678.419 94.2226 671.839 91.7169 665.281 89.1531C664.438 88.8175 662.521 88.9762 663.288 87.1192C663.825 85.8435 664.274 84.4089 665.731 83.461C666.453 83.7247 667.256 83.9978 668.047 84.2999C674.367 86.6657 680.637 89.2107 687.047 91.3271ZM686.658 102.869C683.957 111.912 684.052 111.945 675.255 108.73C667.997 106.085 660.735 103.422 653.486 100.774C655.317 98.6206 657.459 96.8887 658.553 94.6433C660.445 90.7737 662.689 90.732 666.264 92.2793C672.303 94.9088 678.55 97.0951 684.767 99.3055C686.706 100.003 687.33 100.642 686.658 102.869ZM661.721 51.0702C669.329 53.2337 675.362 62.0196 675.424 69.9978C675.45 73.8414 676.206 77.6544 675.484 81.5239C675.084 83.6488 674.427 84.7728 672.172 83.4686C672.05 83.3969 671.915 83.3457 671.78 83.2945C668.737 82.0779 664.132 82.0266 666.173 76.263C664.015 80.4284 661.896 84.6121 659.695 88.7423C657.586 92.7199 654.946 96.3312 651.437 99.1869C646.297 103.382 641.12 101.936 638.886 95.6692C636.528 89.0742 636.937 82.3531 638.487 75.656C639.857 69.7421 642.153 64.1372 644.641 58.6424C647.691 51.9107 654.516 49.0074 661.721 51.0702ZM617.498 50.6474C623.536 41.7825 632.196 40.7516 640.299 47.963C645.416 52.5176 645.271 52.4598 642.617 58.6373C640.635 63.2532 638.884 67.9975 637.419 72.7963C634.698 81.6665 634.376 90.551 638.485 99.3817C632.75 101.318 627.22 102.509 621.579 99.7507C619.569 98.7669 618.855 97.7833 620.517 95.5857C623.647 91.4446 626.105 86.8962 628.191 82.0986C630.156 77.5662 630.011 73.1625 628.642 68.6369C627.536 64.9693 622.021 61.8028 617.367 62.5688C614.358 63.0568 613.826 62.5577 614.895 59.6524C615.97 56.7368 615.631 53.3851 617.498 50.6474ZM591.724 51.2754C593.248 46.7125 597.635 43.9009 602.811 43.4231C606.498 43.0752 612.316 46.8337 614.105 50.3742C614.628 51.4163 614.336 52.2586 614.149 53.2562C613.081 59.0883 611.459 64.151 605.269 67.0791C601.506 68.8624 598.698 72.5981 595.357 75.3294C594.139 76.3153 593.497 78.5979 591.492 77.9681C589.63 77.3876 590.606 75.1317 589.648 73.8361C589.212 66.1856 589.312 58.4659 591.724 51.2754ZM546.236 38.2518L546.245 38.25C548.655 39.326 551.082 40.3541 553.525 41.3345C555.156 41.9994 556.782 42.6388 558.425 43.2746C567.445 46.7436 576.614 49.8706 585.636 53.3481C588.022 54.2696 588.581 55.3129 588.149 57.7904C587.788 59.8094 587.081 59.7377 585.644 59.1914C574.752 55.0552 563.79 51.0849 552.991 46.7162C549.477 45.289 547.5 41.9481 546.336 38.3016L546.126 38.3994L546.236 38.2518ZM588.54 76.8916C575.414 72.0857 563.02 67.5588 550.637 62.9943C544.92 60.8818 542.366 55.3662 537.829 51.6283C545.216 48.9874 551.826 48.4179 558.919 51.7462C567.084 55.5742 575.759 58.336 584.264 61.4265C586.553 62.2623 587.882 63.1775 587.491 65.9745C587.002 69.4753 587.152 73.0265 588.54 76.8916ZM589.931 80.2683C586.849 83.7163 584.381 88.8876 580.8 89.8162C577.227 90.7431 572.538 87.4545 568.37 85.9534C561.214 83.3659 554.204 80.2595 546.887 78.256C540.284 76.438 536.835 71.7242 533.1 66.4948C540.569 64.9538 547.462 64.1649 554.707 67.1682C566.23 71.9419 578.088 75.9085 589.931 80.2683ZM505.119 53.3385C502.575 50.2953 500.046 47.24 497.545 44.232C501.856 43.3169 505.956 42.6153 509.959 41.5438C513.224 40.6733 514.392 42.4123 515.118 44.9987C516.006 48.1363 515.338 50.9654 513.175 53.3935C510.06 56.8929 508.075 56.8618 505.119 53.3385ZM524.583 77.1365C520.025 71.5849 515.376 66.106 510.699 60.6596C509.497 59.2563 509.372 58.6264 511.236 57.5036C517.802 53.5467 518.81 50.1929 516.068 42.8724C515.455 41.2376 515.993 40.5115 517.62 40.2371C524.949 39.0006 532.277 37.7557 539.596 36.4683C540.632 36.2927 541.295 36.7818 541.818 37.4512C544.095 40.3648 546.309 43.3183 549 46.8448L533.563 50.1215C537.285 54.1208 540.629 57.7127 544.434 61.8098L529.344 65.0126C531.471 69.2264 534.863 72.001 537.431 76.0768C533.858 76.8352 530.677 77.4749 527.513 78.1996C526.244 78.4868 525.456 78.2017 524.583 77.1365ZM572.191 95.8033C558.443 90.4109 544.572 85.3194 530.672 80.0836C536.336 77.4356 541.485 78.7109 546.88 80.8561C557.408 85.034 568.152 88.687 578.925 92.6C577.96 96.6186 575.974 97.2886 572.191 95.8033ZM640.218 144.15C645.613 144.787 650.896 145.945 655.974 143.502C660.609 141.267 662.053 142.096 662.028 147.245C662.015 152.614 659.176 156.206 654.492 158.371C648.685 161.058 642.518 162.216 636.126 162.145C625.6 162.029 615.053 161.811 604.951 158.429C594.4 154.895 592.089 147.474 598.167 138.21C599.493 136.182 600.621 136.022 602.672 136.908C607.729 139.09 613.015 140.425 618.566 140.674C620.141 140.739 621.627 140.761 623.713 139.848C622.053 139.464 621.015 139.046 619.959 139.004C605.923 138.436 594.431 131.429 583.362 123.907C573.175 116.987 571.912 107.446 578.969 97.3181C586.19 86.9605 594.723 77.8144 604.453 69.7534C607.645 67.1158 611.109 65.5913 615.168 64.6587C624.155 62.5826 629.597 69.126 627.652 77.7607C626.244 84.0375 622.756 89.4607 618.996 94.6047C615.94 98.8011 612.58 102.778 609.25 106.767C606.253 110.365 606.353 110.92 610.843 112.602C628.393 119.192 645.941 125.773 663.49 132.363C664.801 132.856 666.096 133.397 667.492 133.961C659.853 141.552 650.697 144.462 640.218 144.15ZM677.317 132.444C676.366 135.652 674.635 134.139 673.103 133.569C652.012 125.673 630.948 117.736 609.954 109.837C611.76 105.515 614.445 105.38 618.457 106.897C637.27 114.008 656.176 120.886 675.116 127.634C678.062 128.685 678.078 129.843 677.317 132.444ZM670.603 123.252C652.358 116.606 634.119 109.941 615.677 103.203C616.853 100.843 617.792 99.3749 620.184 101.413C621.958 102.916 624.405 103.789 626.636 103.351C634.316 101.845 642 103.239 649.655 102.865C650.884 102.808 651.896 103.019 652.964 103.413C661.873 106.693 670.739 110.106 679.724 113.156C682.564 114.124 682.715 115.253 681.867 117.819C679.055 126.301 679.148 126.361 670.603 123.252ZM700.818 140.458C696.257 141.24 691.722 140.224 687.243 139.135C685.372 138.681 685.538 137.83 685.994 136.385C690.093 123.479 694.145 110.565 698.157 97.6252C698.654 96.0385 699.224 95.5451 700.858 96.3512C708.719 100.208 715.674 104.852 717.427 115.495C719.813 126.776 712.583 138.431 700.818 140.458Z" fill="#090909"/>
<path d="M659.517 582.479C659.339 581.932 659.071 581.421 658.901 580.872C656.711 574.108 654.064 567.441 652.464 560.535C650.315 551.288 647.226 542.329 644.417 533.32C640.902 522.022 637.861 510.578 634.055 499.377C631.627 492.238 629.573 484.985 627.574 477.702C625.082 468.634 622.03 459.73 619.285 450.725C617.128 443.652 615.602 436.34 612.857 429.508C609.553 421.295 607.911 412.642 605.057 404.334C603.249 399.077 602.136 393.583 600.534 388.247C597.05 376.641 593.731 364.972 589.759 353.531C588.111 348.773 587.473 343.764 585.605 339.14C581.22 328.302 579.012 316.814 575.265 305.805C573.551 300.776 572.77 295.47 570.819 290.58C566.939 280.867 564.31 270.737 560.998 260.859C557.882 251.569 555.325 241.948 552.729 232.432C549.532 220.712 545.768 209.164 542.307 197.535C540.923 192.898 539.923 188.143 538.327 183.551C535.824 176.312 533.592 168.972 531.245 161.675L531.406 161.64C531.224 160.783 531.103 159.922 530.849 159.098C528.046 149.865 525.137 140.673 522.461 131.406C521.771 129.033 520.551 129.886 519.259 130.32C511.634 132.879 503.878 135.199 496.407 138.071C482.634 143.38 468.497 147.605 454.797 153.049C450.078 154.929 444.69 155.159 440.64 158.724C435.639 163.12 430.045 166.684 424.313 170.012C406.229 180.503 387.254 189.009 367.685 196.391C353.749 201.646 339.77 206.573 325.462 210.701C319.786 212.332 313.944 213.262 308.381 215.134C298.557 218.452 288.47 220.487 278.195 221.133C269.775 221.661 261.278 220.156 253.087 223.935C247.148 226.668 240.737 228.348 234.577 230.622C229.453 232.517 224.541 235.112 219.287 236.475C208.76 239.197 198.784 243.47 188.448 246.71C186.518 247.315 185.785 248.455 186.551 250.27C189.298 256.818 190.946 263.786 193.636 270.275C198.427 281.817 201.667 293.865 206.148 305.491C210.327 316.32 213.947 327.357 217.795 338.3C221.563 349.031 225.303 359.758 229.062 370.49C232.829 381.256 236.604 392.021 240.372 402.795C244.129 413.519 247.876 424.236 251.633 434.96C257.558 451.884 263.509 468.803 269.434 485.727C274.771 500.967 280.075 516.223 285.403 531.465C289.182 542.29 292.995 553.108 296.781 563.924C300.523 574.615 304.254 585.3 307.996 595.991C311.722 606.651 315.449 617.319 319.175 627.978C322.94 638.736 326.706 649.502 330.479 660.258C334.307 671.188 338.184 682.099 341.956 693.059C342.78 695.439 343.862 696.566 346.552 695.658C352.897 693.504 359.321 691.591 365.673 689.471C376.782 685.773 387.849 681.961 398.953 678.238C407.182 675.472 415.53 673.017 423.657 669.979C434.304 665.99 445.159 662.683 455.92 659.06C464.147 656.285 472.588 654.059 480.624 650.801C491.201 646.516 502.291 643.861 512.951 639.886C521.081 636.865 529.374 634.316 537.545 631.402C547.358 627.909 557.361 624.979 567.147 621.358C576.052 618.058 585.59 616.317 594.289 612.59C604.145 608.379 614.562 606.061 624.485 602.128C634.531 598.142 645.045 595.36 655.276 591.832C661.555 589.656 661.719 588.965 659.517 582.479ZM376.458 252.933C377.253 254.671 378.203 256.35 378.806 258.147C380.888 264.321 380.832 264.306 387.353 262.851C390.74 262.097 394.157 261.522 397.64 262.096C401.884 262.783 404.479 264.813 405.342 269.463C406.176 273.898 403.705 275.877 400.755 277.772C396.127 280.75 389.051 282.722 383.188 282.884C383.195 280.577 385.17 281.151 386.292 280.921C390.981 279.944 395.518 278.591 399.674 276.192C402.291 274.688 404.563 272.609 403.912 269.332C403.249 265.996 400.535 264.453 397.307 263.994C392.166 263.258 387.227 264.475 382.498 266.223C380.343 267.018 379.01 266.547 378.57 264.724C377.64 260.886 376.844 257.011 375.22 253.329C375.627 253.198 376.043 253.066 376.458 252.933ZM375.018 294.703C391.787 296.988 406.251 293.43 418.412 282.193C420.095 280.638 420.711 281.243 421.27 283.041C425.666 297.274 430.923 311.342 432.295 326.289C432.979 333.86 433.981 341.461 432.334 349.207C429.451 362.742 415.076 367.434 404.31 358.623C397.57 353.109 393.431 345.766 389.384 338.235C382.084 324.653 378.155 310.028 375.018 294.703ZM285.697 367.667C285.478 368.432 285.034 369.475 283.93 369.079C283.029 368.765 283.546 367.981 283.635 367.271C284.829 358.104 286.596 349.09 290.581 340.661C291.447 338.809 291.446 338.011 289.09 337.563C285.992 336.969 282.763 336.254 280.05 334.754C275.687 332.336 272.75 333.749 269.62 336.888C263.774 342.732 258.217 348.727 255.177 356.592C254.717 357.808 254.247 359.522 252.679 358.737C251.111 357.952 252.823 356.95 253.207 356.044C257.397 346.285 264.465 338.842 272.745 331.843C266.792 328.202 261.291 324.181 256.643 319.039C251.507 313.353 247.612 306.951 245.084 299.807C233.449 266.888 250.074 237.736 274.264 226.305C302.461 212.985 336.25 220.155 353.139 252.047C369.736 283.398 355.075 319.92 325.47 333.335C322.88 334.506 320.407 336.228 317.496 336.385C314.005 336.567 313.081 338.191 313.267 341.531C313.704 349.482 314.382 357.356 317.147 364.911C317.724 366.501 317.658 366.523 316.995 368.704C313.352 363.242 311.187 351.578 311.335 337.985C306.08 338.595 300.82 339.135 295.55 338.497C293.575 338.26 293.233 339.743 292.631 341.042C289.216 348.436 287.183 356.202 286.191 364.271C286.049 365.401 286.014 366.571 285.697 367.667ZM306.306 423.896C305.375 424.067 304.473 424.622 302.168 423.329C364.597 404.809 425.932 386.611 487.269 368.421C487.39 368.865 487.504 369.32 487.625 369.764C484.665 371.697 480.994 371.784 477.768 372.965C470.123 375.768 462.114 377.565 454.343 380.066C441.986 384.064 429.413 387.344 416.999 391.159C407.633 394.043 398.288 397.188 388.691 399.527C377.214 402.326 366.042 406.356 354.755 409.923C350.249 411.34 345.596 412.319 341.053 413.479C329.304 416.46 318.249 421.663 306.306 423.896ZM338.682 491.73C350.518 488.783 361.958 484.599 373.672 481.287C387.177 477.472 400.446 472.793 413.858 468.625C424.66 465.276 435.541 462.177 446.357 458.853C457.896 455.304 469.375 451.555 480.927 448.021C488.664 445.651 496.439 443.38 504.273 441.345C506.566 440.743 508.342 438.494 511.526 439.415C508.243 442.373 504.049 442.421 500.535 443.664C488.918 447.77 477.147 451.564 465.242 454.729C457.358 456.819 449.711 459.613 441.852 461.742C431.706 464.499 421.906 468.557 411.768 471.312C404.169 473.369 396.742 475.903 389.212 478.157C377.895 481.544 366.705 485.4 355.331 488.604C346.344 491.141 337.679 494.985 328.188 495.651C331.341 493.288 335.211 492.591 338.682 491.73ZM347.79 567.066C349.611 564.905 352.346 564.21 354.802 563.582C363.095 561.449 371.184 558.819 379.191 555.762C383.41 554.157 388.001 553.475 392.373 552.095C408.806 546.904 425.366 542.103 441.825 536.951C457.57 532.03 473.152 526.594 488.965 521.907C499.812 518.691 510.366 514.509 521.448 512.148C523.264 511.762 524.858 509.162 527.418 511.484C516.889 515.155 506.418 517.804 496.214 521.211C486.108 524.58 475.913 527.649 465.795 530.958C451.454 535.643 437.02 540.055 422.595 544.509C409.26 548.626 395.86 552.561 382.531 556.703C371.799 560.045 361.136 563.586 350.432 567.019C349.642 567.267 348.788 567.297 347.79 567.066ZM373.845 638.13C373.623 637.583 373.392 637.038 373.169 636.491C432.757 616.996 492.336 597.503 551.924 578.008C552.1 578.547 552.277 579.086 552.453 579.625C492.92 599.126 433.378 618.629 373.845 638.13ZM489.557 272.44C473.967 282.099 457.366 283.991 439.918 278.506C424.046 273.511 412.92 263.048 405.117 248.597C402.412 243.584 399.515 238.043 399.14 232.935C398.608 225.624 398.275 217.952 399.985 210.467C406.532 181.848 427.826 165.923 452.39 163.272C477.301 160.583 499.433 173.722 510.032 193.654C516.988 206.741 519.228 220.722 515.904 235.61C527.122 235.766 538.157 235.942 548.346 242.285C546.613 243.691 545.821 242.759 545.029 242.368C536.125 237.987 526.595 237.296 516.904 237.517C515.623 237.541 515.179 238.212 514.859 239.291C513.5 243.881 511.658 248.281 509.1 252.318C507.786 254.398 509.334 254.716 510.62 255.339C517.422 258.64 523.627 262.84 529.171 267.987C530.243 268.984 531.767 269.769 531.865 271.611C529.8 272.412 529.208 270.667 528.267 269.829C522.85 264.992 516.924 260.928 510.514 257.517C508.155 256.262 506.671 255.956 504.934 258.595C502.64 262.08 499.647 265.11 496.261 267.584C494.297 269.03 494.276 270.019 495.798 271.922C500.307 277.537 504.431 283.429 506.603 290.445C506.851 291.235 508.501 292.073 506.848 292.77C505.544 293.313 505.354 291.703 505.011 290.925C502.205 284.558 498.573 278.73 494.382 273.19C492.786 271.063 491.642 271.146 489.557 272.44ZM521.415 370.548C517.823 360.268 515.342 349.708 512.968 339.108C512.416 336.635 514.614 336.461 516.062 335.968C524.78 333 533.868 331.106 542.177 326.877C545.323 325.278 548.49 327.204 549.46 330.52C552.264 340.097 555.244 349.62 558.108 359.185C558.364 360.018 559.159 361.508 557.535 361.586C552.808 361.836 549.762 366.624 544.873 365.906C538.222 368.001 531.654 370.024 525.121 372.13C523.336 372.704 522.315 373.115 521.415 370.548ZM543.121 444.061C541 441.842 540.617 437.905 539.629 434.674C539.081 432.883 538.817 431.015 538.428 429.181C537.478 423.201 534.665 417.723 533.805 411.706C533.57 410.097 532.977 408.848 535.34 408.116C545.83 404.843 556.265 401.36 566.7 397.912C568.209 397.414 568.925 397.528 569.405 399.333C571.72 408.022 574.27 416.651 576.601 425.336C577.252 427.735 580.051 429.934 578.525 432.396C577.132 434.651 573.792 434.039 571.502 435.075C564.719 438.138 557.633 440.271 550.449 441.983C547.849 442.605 544.831 445.854 543.121 444.061ZM561.72 514.057C560.498 510.263 558.801 506.614 558.724 502.905C556.997 495.981 554.598 489.652 553.24 483.005C552.691 480.292 553.34 479.755 555.797 479.003C564.878 476.198 573.882 473.116 582.848 469.935C588.152 468.056 588.062 468.092 589.602 473.549C591.994 482.061 594.686 490.483 597.453 498.88C598.804 502.948 598.359 504.151 593.768 505.631C584.021 508.764 574.093 511.342 564.625 515.329C563.372 515.861 562.324 515.942 561.72 514.057ZM616.284 576.649C609.163 578.621 602.189 581.113 595.157 583.377C591.779 584.467 588.358 585.441 585.006 586.614C583.355 587.195 582.719 586.745 582.283 585.108C580.873 579.846 579.321 574.623 578.019 570.075C577.242 564.199 574.511 559.608 573.844 554.419C573.627 552.727 573.365 551.913 575.521 551.039C582.378 548.244 589.547 546.457 596.53 544.132C599.91 543.006 603.162 541.447 606.768 540.93C608.627 540.66 609.045 541.085 609.646 542.829C612.92 552.36 614.65 562.352 618.382 571.742C619.315 574.09 619.627 575.726 616.284 576.649Z" fill="white"/>
<path d="M341.025 696.068C332.034 692.026 324.175 688.053 315.981 684.967C311.026 683.101 309.293 679.451 307.747 675.132C304.728 666.717 302.18 658.14 299.1 649.729C296.611 642.932 294.16 636.064 291.822 629.19C287.361 616.07 283.058 602.899 278.654 589.758C274.54 577.478 269.75 565.439 265.781 553.093C262.026 541.42 256.915 530.168 253.404 518.434C250.34 508.175 246.373 498.259 243.163 488.066C240.009 478.057 235.851 468.367 232.612 458.376C229.583 449.033 226.305 439.777 223.028 430.521C218.684 418.246 214.371 405.946 210.093 393.648C205.938 381.722 202.153 369.656 197.98 357.726C193.168 343.953 188.511 330.121 183.675 316.363C178.705 302.225 173.58 288.146 168.561 274.027C168.191 272.997 167.957 272.018 168.835 270.847C173.931 264.062 178.89 257.174 184.661 249.261C236.914 398.58 288.862 547.006 341.027 696.077L341.025 696.068Z" fill="white"/>
<path d="M72.5155 272.817C74.757 273.725 76.7061 273.213 78.6439 272.314C82.477 270.525 86.6593 269.921 90.7647 269.289C94.7579 268.672 100.096 273.136 100.879 277.2C101.732 281.64 98.847 286.767 94.1424 287.96C84.9928 290.275 76.2423 293.968 66.8868 295.564C61.9484 296.408 57.4619 298.921 52.4643 299.654C45.8581 300.622 38.8775 295.939 37.9356 289.789C37.2571 285.338 39.9671 281.224 44.3185 279.955C47.6677 278.978 51.3288 279.052 54.4335 277.258C54.3658 276.855 54.2982 276.453 54.2323 276.059C51.16 276.711 48.0535 277.202 45.0433 278.063C42.8709 278.692 41.8277 278.248 40.7835 276.129C33.1628 260.575 26.3027 244.718 20.5208 228.385C16.6204 217.363 13.704 206.088 12.4631 194.476C11.884 189.073 12.6137 183.694 14.6847 178.492C17.5655 171.255 31.1746 169.768 36.0641 176.34C36.6328 177.097 36.7178 177.957 36.9226 178.88C38.9705 188.069 38.9247 197.631 41.7685 206.642C43.3607 206.454 43.0731 205.433 42.8752 204.668C40.9845 197.557 41.656 189.982 39.153 183.037C37.014 177.096 43.5911 166.13 48.2654 163.958C51.7856 162.324 54.9396 163.269 58.0747 165.211C68.587 171.698 72.8997 187.253 68.3697 198.086C67.4596 200.275 66.0358 202.342 66.13 205.001C73.6982 196.991 83.1896 194.657 93.6961 193.846C99.9354 193.364 105.36 194.394 110.681 197.23C116.311 200.23 117.621 205.734 117.627 211.197C117.629 215.844 113.882 218.706 109.779 220.561C105.717 222.399 101.951 221.415 98.2958 219.193C92.5902 215.713 86.5844 213.617 79.7746 215.506C73.6281 217.219 67.7528 224.346 67.9905 230.522C68.1618 234.964 70.9301 238.27 74.2705 240.887C82.5021 247.326 91.7053 248.273 101.236 244.538C108.025 241.882 111.538 236.41 111.867 229.102C111.979 226.622 112.114 224.207 113.359 222.009C114.78 219.508 116.608 217.506 119.799 217.751C123.171 218.011 124.829 220.347 125.751 223.228C131.158 240.094 123.04 256.753 106.36 263.247C100.462 265.546 94.3958 266.674 88.0617 267.335C82.6639 267.895 77.8424 271.296 72.5039 272.846L72.5155 272.817Z" fill="white"/>
<path d="M362.162 150.441C363.662 145.972 365.373 141.165 360.718 138.872C353.358 135.245 350.603 142.03 346.81 147.349C345.636 142.614 344.14 138.993 340.162 137.133C338.201 136.21 336.388 137.029 334.716 137.588C330.871 138.865 330.718 142.862 333.932 152.238C328.213 151.243 321.894 148.425 318.376 155.797C315.792 161.215 321.299 162.254 324.272 165.064C317.599 167.51 311.227 170.459 304.539 172.171C293.668 174.94 282.906 178.226 271.832 180.248C268.835 180.796 268.267 179.79 267.651 177.349C258.626 141.641 276.603 103.235 310.254 87.3206C348.74 69.1117 392.47 83.8832 413.154 119.236C414.795 122.036 414.691 123.344 411.718 125.093C395.847 134.475 379.507 142.901 362.181 150.446L362.162 150.441Z" fill="#FF5F9E"/>
<path d="M347.696 769.952C349.084 766.757 352.324 766.017 355.019 764.842C368.55 758.972 382.873 757.759 397.41 758.221C404.902 758.458 412.382 758.972 419.864 759.335C420.743 759.379 422.145 760.093 422.082 758.376C422.045 757.24 420.736 757.465 419.998 757.417C414.539 757.06 409.06 756.528 403.594 756.598C399.931 756.639 399.111 754.365 398.839 751.789C398.544 748.978 401.312 749.942 402.661 749.612C408.901 748.092 415.212 746.859 421.526 745.519C420.916 743.147 419.741 743.796 418.889 744.003C407.3 746.773 395.476 748.565 384.256 752.826C379.571 754.61 371.857 749.986 370.527 744.929C369.123 739.613 373.105 733.845 378.951 733.056C381.203 732.756 383.575 732.82 385.839 733.12C398.461 734.796 409.838 731.654 420.335 724.654C423.327 722.662 426.367 720.73 429.737 719.35C435.163 717.125 440.085 719.885 440.715 725.694C440.993 728.296 440.865 731.037 439.713 733.339C438.042 736.665 438.595 739.563 440.022 742.737C442.388 747.991 444.431 753.393 446.659 758.712C449.226 764.828 448.206 769.302 443.068 773.674C438.703 777.385 433.438 779.408 428.16 781.37C412.618 787.162 397.169 793.27 380.6 795.687C372.427 796.881 364.273 797.574 356.031 796.521C353.16 796.154 350.312 795.65 347.65 794.512C343.581 792.769 338.811 791.271 338.214 786.12C337.519 780.086 342.471 772.33 347.654 769.961C348.176 771.669 346.642 772.509 346.028 773.712C343.67 778.355 342.303 783.115 344.022 788.285C344.579 789.949 345.673 791.136 347.613 790.414C349.257 789.799 349.522 788.457 349.002 786.846C347.591 782.454 349.133 778.605 351.383 774.953C352.293 773.474 353.737 772.174 352.431 770.322C351.074 768.402 349.274 770.114 347.692 769.936L347.696 769.952Z" fill="#FF5F9E"/>
<path d="M275.333 196.366C288.991 194.398 302.068 191.365 315.041 187.884C321.838 186.06 328.53 183.868 335.289 181.91C336.6 181.525 338.086 180.838 337.965 183.524C337.716 189.12 341.062 193.439 345.113 193.173C349.277 192.901 352.656 187.723 352.227 182.315C352.119 180.972 351.227 179.654 352.004 177.839C353.958 179.73 355.539 181.541 357.386 183.012C361.163 186.015 365.158 186.284 367.641 183.939C370.094 181.627 369.987 177.525 367.364 173.612C366.729 172.665 366.046 171.745 365.172 170.512C384.384 162.744 401.844 152.28 418.73 140.784C420.156 139.817 421.412 139.089 421.525 141.584C421.762 146.589 425.246 145.787 428.193 145.215C432.689 144.332 437.11 144.52 441.457 145.61C445.589 146.649 446.328 148.754 443.94 152.25C441.213 156.243 437.41 159.135 433.489 161.847C416.318 173.714 397.479 182.36 378.302 190.333C365.18 195.788 351.853 200.692 338.331 205.096C323.456 209.939 308.292 213.672 293.064 217.143C284.562 219.081 275.863 219.801 267.139 218.895C264.745 218.649 261.822 218.373 260.975 215.68C260.212 213.252 262.264 211.388 263.761 209.669C266.623 206.392 270.047 203.723 273.647 201.336C275.59 200.045 277.288 198.975 275.317 196.378L275.333 196.366Z" fill="#FF5F9E"/>
<path d="M341.399 163.602C337.382 162.894 333.465 164.914 329.415 163.68C327.235 163.016 324.877 162.896 322.874 161.654C321.066 160.53 319.676 159.078 320.075 156.74C320.475 154.402 322.255 153.43 324.345 153.04C328.916 152.176 332.823 154.078 336.641 156.186C338.629 157.281 340.535 158.526 342.528 159.726C343.63 157.984 341.83 157.568 341.074 156.806C337.802 153.509 334.6 150.163 333.552 145.436C332.956 142.751 333.065 140.049 336.059 138.819C338.775 137.702 340.899 139.264 342.381 141.318C345 144.966 345.419 149.365 345.604 153.663C345.676 155.253 345.673 156.619 346.663 158.316C348.012 156.983 347.726 155.51 347.934 154.233C348.652 149.929 349.617 145.698 352.62 142.338C354.548 140.181 357.011 138.665 359.858 140.464C362.574 142.185 362.075 144.934 361.105 147.464C359.716 151.075 357.05 153.726 354.116 156.113C352.823 157.168 351.485 158.179 349.813 159.492C352.96 160.279 355.101 158.538 356.876 157.461C360.6 155.198 364.509 155.477 368.377 155.57C370.668 155.624 372.842 157.008 373.191 159.781C373.526 162.441 371.656 163.743 369.655 164.638C365.069 166.684 360.438 165.76 355.801 164.598C354.265 164.215 352.751 163.179 350.917 163.773C351.343 165.908 353.111 165.71 354.293 166.267C358.615 168.329 362.868 170.478 365.701 174.55C367.421 177.014 368.804 179.852 366.321 182.401C363.656 185.14 360.838 183.148 358.588 181.444C354.575 178.42 352.128 174.159 350.182 169.587C349.828 168.757 349.609 167.225 348.345 167.618C346.737 168.11 347.522 169.841 347.94 170.515C350.068 173.984 350.208 177.777 350.209 181.626C350.208 181.91 350.33 182.194 350.337 182.477C350.479 186.908 347.856 191.181 344.945 191.258C341.955 191.334 339.831 187.971 339.933 182.938C340.025 178.395 341.573 174.199 343.405 170.085C343.815 169.174 345.389 167.899 344.015 167.153C342.322 166.235 342.174 168.466 341.61 169.358C339.67 172.421 337.374 175.144 334.935 177.817C332.721 180.256 329.489 180.028 326.918 181.541C325.38 182.443 322.758 178.778 323.352 176.692C325.189 170.218 330.758 167.998 336.158 165.654C337.84 164.925 339.88 165.219 341.407 163.556L341.399 163.602Z" fill="white"/>
<path d="M338.368 791.649C351.088 800.435 364.748 799.814 378.564 797.84C393.706 795.673 408.192 791.383 422.271 785.299C427.633 782.981 433.44 781.509 438.72 778.845C443.174 776.596 446.999 773.602 449.18 768.873C452.29 773.748 451.202 779.611 446.313 783.992C442.156 787.721 437.085 789.862 431.946 791.769C421.955 795.468 412.087 799.665 401.848 802.485C386.557 806.707 370.988 809.905 354.948 806.666C348.164 805.295 342.503 802.275 339.114 795.836C338.49 794.647 338.028 793.601 338.359 791.651L338.368 791.649Z" fill="white"/>
<path d="M415.825 125.179C416.832 127.706 417.456 130.27 418.779 132.41C421.086 136.134 419.393 137.726 416.29 139.777C404.068 147.843 391.721 155.653 378.525 162.054C377.214 162.688 376.024 163.472 374.478 163.295C375.981 160.723 375.647 158.062 373.781 156.126C369.835 152.032 364.906 152.794 359.941 154.017C379.084 145.714 397.595 136.233 415.825 125.179Z" fill="#FF5F9E"/>
<path d="M330.198 165.359C318.82 174.435 319.441 178.737 323.711 182.895C308.999 187.916 293.614 190.481 278.408 193.762C275.201 194.451 273.686 193.496 272.475 190.631C269.156 182.768 269.039 182.633 277.555 181.056C295.304 177.759 312.285 171.937 330.206 165.357L330.198 165.359Z" fill="#FF5F9E"/>
<path d="M353.139 252.047C336.25 220.155 302.461 212.985 274.264 226.305C250.074 237.736 233.45 266.888 245.084 299.807C247.612 306.951 251.507 313.353 256.643 319.039C261.291 324.181 266.792 328.202 272.745 331.843C264.465 338.842 257.397 346.285 253.207 356.044C252.823 356.95 251.111 357.952 252.679 358.737C254.247 359.522 254.717 357.808 255.177 356.592C258.217 348.727 263.774 342.732 269.62 336.888C272.75 333.749 275.687 332.336 280.05 334.754C282.763 336.254 285.992 336.969 289.09 337.563C291.446 338.011 291.447 338.809 290.581 340.661C286.596 349.09 284.829 358.104 283.635 367.271C283.546 367.981 283.029 368.765 283.93 369.079C285.034 369.475 285.478 368.432 285.697 367.667C286.014 366.571 286.049 365.401 286.191 364.271C287.183 356.202 289.216 348.436 292.631 341.042C293.233 339.743 293.575 338.26 295.55 338.497C300.82 339.135 306.08 338.595 311.335 337.985C311.187 351.578 313.352 363.242 316.995 368.704C317.658 366.523 317.724 366.501 317.147 364.911C314.382 357.356 313.704 349.482 313.267 341.531C313.081 338.191 314.005 336.567 317.496 336.385C320.407 336.228 322.88 334.506 325.47 333.335C355.075 319.92 369.736 283.398 353.139 252.047ZM301.421 299.885C308.052 311.489 316.137 321.835 326.802 330.542C303.663 341.414 282.232 338.85 263.345 322.699C245.04 307.036 238.859 286.689 245.747 263.276C251.669 243.163 265.276 230.385 285.876 223.725C284.688 232.252 284.363 240.081 285.058 247.907C285.572 253.714 286.077 259.523 287.19 265.264C287.635 267.573 289.16 267.401 290.676 267.442C301.972 267.759 313.259 268.033 324.551 268.332C325.843 268.36 327.134 268.467 329.126 268.576C319.847 277.384 311.259 285.69 302.479 293.798C300.336 295.778 299.84 297.116 301.421 299.885Z" fill="#090909"/>
<path d="M515.904 235.61C519.228 220.722 516.987 206.741 510.032 193.654C499.433 173.722 477.301 160.583 452.39 163.272C427.826 165.923 406.532 181.848 399.985 210.467C398.275 217.952 398.608 225.624 399.14 232.935C399.515 238.044 402.412 243.584 405.117 248.597C412.92 263.048 424.046 273.511 439.918 278.506C457.366 283.991 473.967 282.099 489.557 272.44C491.642 271.146 492.786 271.063 494.382 273.19C498.573 278.73 502.205 284.558 505.011 290.925C505.354 291.704 505.544 293.313 506.848 292.77C508.501 292.073 506.851 291.235 506.603 290.445C504.431 283.429 500.307 277.537 495.798 271.922C494.276 270.019 494.297 269.03 496.261 267.585C499.647 265.11 502.64 262.08 504.934 258.595C506.671 255.956 508.155 256.262 510.514 257.517C516.924 260.928 522.85 264.992 528.267 269.829C529.208 270.667 529.8 272.412 531.865 271.611C531.767 269.769 530.243 268.984 529.171 267.987C523.627 262.84 517.422 258.64 510.62 255.339C509.334 254.716 507.786 254.398 509.1 252.318C511.658 248.281 513.5 243.881 514.859 239.291C515.179 238.212 515.622 237.541 516.904 237.518C526.595 237.296 536.125 237.988 545.029 242.368C545.821 242.759 546.613 243.691 548.346 242.285C538.157 235.942 527.122 235.766 515.904 235.61ZM473.382 223.855C469.32 227.741 465.516 231.964 461.089 235.387C457.206 238.402 457.413 240.841 459.919 244.584C463.361 249.725 466.624 254.984 470.551 259.782C474.489 264.587 478.911 268.917 483.753 272.838C468.727 283.194 443.581 281.684 425.302 269.191C407.333 256.908 396.627 233.211 402.142 209.22C407.03 187.996 425.605 170.208 443.25 167.093C442.145 175.425 441.925 183.667 442.54 191.997C442.971 197.662 444.684 202.975 445.486 208.507C445.802 210.666 447.49 210.095 448.866 210.14C461.173 210.499 473.481 210.867 486.575 211.254C481.855 215.759 477.624 219.815 473.382 223.855Z" fill="#090909"/>
<path d="M421.27 283.041C420.711 281.243 420.095 280.638 418.412 282.193C406.251 293.43 391.787 296.988 375.018 294.703C378.155 310.028 382.084 324.653 389.384 338.235C393.431 345.766 397.57 353.109 404.31 358.623C415.076 367.434 429.451 362.742 432.334 349.207C433.981 341.461 432.979 333.86 432.295 326.289C430.923 311.342 425.666 297.274 421.27 283.041ZM398.376 295.315C400.701 294.901 402.912 293.829 405.126 292.933C406.867 292.235 407.577 292.697 408.066 294.544C410.317 303.14 412.886 311.65 415.977 319.987C416.827 322.281 416.321 323.364 413.868 323.885C411.127 324.467 408.329 324.821 405.781 326.275C403.875 327.363 402.417 327.389 401.56 324.44C399.355 316.81 396.64 309.324 393.575 300.148C391.354 296.832 394.452 296.006 398.376 295.315ZM384.506 322.108C382.446 316.035 379.944 310.101 378.899 304.256C377.915 299.622 379.651 297.308 384.104 297.315C391.398 297.328 391.138 297.401 393.15 304.247C395.27 311.477 397.926 318.559 399.901 325.856C400.239 327.115 400.616 327.469 399.303 327.846C399.027 327.922 398.717 327.926 398.467 328.041C388.49 332.518 387.984 332.306 384.506 322.108ZM401.653 353.626C396.451 348.087 393.075 341.416 389.568 334.799C388.498 332.764 390.646 332.565 391.096 332.426C393.842 331.577 396.717 331.162 399.519 330.452C401.185 330.027 401.248 331.034 401.714 332.185C404.772 339.82 406.83 347.765 409.306 355.585C409.729 356.906 410.385 358.159 411.33 360.397C406.98 358.749 404.219 356.354 401.653 353.626ZM426.099 357.52C422.823 360.601 418.847 362.048 414.579 360.994C411.097 360.136 411.418 356.467 410.804 353.405C408.427 346.175 406.012 338.688 403.451 331.258C402.958 329.81 402.562 328.99 404.496 328.491C407.798 327.63 411.092 326.683 414.289 325.49C416.822 324.553 417.881 325.241 418.501 327.824C420.664 336.846 423.578 345.647 426.659 354.394C427.085 355.607 427.097 356.581 426.099 357.52ZM431.009 328.797C431.785 335.089 432.011 341.418 430.71 347.698C430.28 349.767 429.982 351.915 427.78 354.325C425.907 344.292 422.081 335.667 419.864 326.559C419.405 324.687 419.585 323.824 421.66 323.153C429.148 320.739 430.071 321.12 431.009 328.797ZM425.648 320.506C418.381 322.537 418.13 322.652 415.677 314.144C413.858 307.834 412.067 301.526 409.834 295.348C408.849 292.631 409.137 290.521 412.296 289.274C415.038 288.195 418.724 283.874 419.394 284.814C421.618 287.898 422.255 292.109 423.509 295.887C425.545 302.302 427.281 308.772 428.773 315.338C429.496 318.492 428.411 319.734 425.648 320.506Z" fill="#090909"/>
<path d="M552.453 579.625C492.92 599.126 433.378 618.629 373.845 638.13C373.623 637.583 373.392 637.038 373.169 636.491C432.757 616.996 492.336 597.503 551.924 578.008C552.1 578.547 552.277 579.086 552.453 579.625Z" fill="#090909"/>
<path d="M527.418 511.484C516.889 515.155 506.417 517.804 496.214 521.211C486.108 524.58 475.913 527.649 465.795 530.958C451.454 535.643 437.02 540.055 422.595 544.509C409.26 548.626 395.86 552.561 382.531 556.703C371.799 560.045 361.136 563.586 350.432 567.019C349.642 567.267 348.788 567.297 347.79 567.066C349.611 564.905 352.346 564.21 354.802 563.582C363.095 561.449 371.184 558.819 379.191 555.762C383.409 554.157 388.001 553.475 392.373 552.095C408.806 546.904 425.366 542.103 441.825 536.951C457.57 532.03 473.152 526.594 488.965 521.907C499.812 518.691 510.366 514.509 521.448 512.148C523.264 511.762 524.858 509.162 527.418 511.484Z" fill="#090909"/>
<path d="M487.625 369.764C484.665 371.697 480.994 371.784 477.768 372.965C470.123 375.768 462.114 377.565 454.343 380.066C441.986 384.064 429.413 387.344 416.999 391.159C407.633 394.043 398.287 397.188 388.691 399.527C377.214 402.326 366.042 406.356 354.755 409.923C350.249 411.34 345.596 412.319 341.053 413.479C329.304 416.46 318.249 421.663 306.306 423.896C305.375 424.067 304.473 424.622 302.168 423.329C364.597 404.809 425.932 386.611 487.269 368.421C487.39 368.865 487.504 369.32 487.625 369.764Z" fill="#090909"/>
<path d="M511.526 439.415C508.243 442.373 504.049 442.421 500.535 443.664C488.918 447.77 477.147 451.564 465.242 454.729C457.357 456.819 449.711 459.613 441.852 461.742C431.706 464.499 421.906 468.557 411.768 471.312C404.169 473.369 396.742 475.903 389.212 478.158C377.895 481.544 366.705 485.4 355.331 488.604C346.344 491.141 337.679 494.985 328.188 495.651C331.341 493.288 335.21 492.591 338.682 491.73C350.518 488.783 361.958 484.599 373.672 481.287C387.177 477.472 400.446 472.793 413.858 468.625C424.66 465.276 435.541 462.177 446.357 458.853C457.896 455.304 469.375 451.555 480.927 448.021C488.664 445.651 496.439 443.38 504.273 441.345C506.566 440.743 508.342 438.494 511.526 439.415Z" fill="#090909"/>
<path d="M405.342 269.463C406.176 273.898 403.705 275.877 400.755 277.772C396.127 280.75 389.051 282.722 383.188 282.884C383.195 280.577 385.17 281.151 386.292 280.921C390.981 279.944 395.518 278.591 399.674 276.192C402.291 274.688 404.563 272.609 403.912 269.332C403.249 265.996 400.535 264.453 397.307 263.994C392.166 263.258 387.227 264.475 382.498 266.223C380.343 267.018 379.01 266.547 378.57 264.724C377.64 260.886 376.844 257.011 375.22 253.329C375.627 253.198 376.043 253.066 376.458 252.933C377.253 254.671 378.203 256.35 378.806 258.147C380.888 264.321 380.832 264.306 387.353 262.851C390.74 262.097 394.157 261.522 397.64 262.096C401.884 262.783 404.479 264.813 405.342 269.463Z" fill="#090909"/>
<path d="M347.696 769.952C349.277 770.131 351.078 768.419 352.434 770.339C353.739 772.182 352.296 773.491 351.386 774.97C349.135 778.614 347.595 782.471 349.006 786.863C349.525 788.474 349.26 789.816 347.617 790.431C345.679 791.161 344.582 789.966 344.025 788.302C342.307 783.132 343.674 778.372 346.032 773.729C346.646 772.526 348.179 771.686 347.657 769.978L347.691 769.971L347.696 769.952Z" fill="white"/>
<path d="M329.126 268.576C319.855 277.382 311.259 285.69 302.487 293.796C300.345 295.776 299.84 297.116 301.431 299.892C308.062 311.495 316.146 321.833 326.81 330.541C303.665 341.422 282.234 338.858 263.355 322.705C245.042 307.045 238.86 286.698 245.757 263.283C251.679 243.17 265.286 230.392 285.886 223.731C284.697 232.25 284.382 240.086 285.068 247.914C285.582 253.721 286.088 259.529 287.2 265.271C287.644 267.572 289.168 267.399 290.695 267.447C301.982 267.765 313.277 268.038 324.569 268.337C325.863 268.373 327.152 268.472 329.145 268.581L329.126 268.576Z" fill="white"/>
<path d="M486.575 211.254C481.855 215.759 477.624 219.815 473.391 223.853C469.318 227.733 465.524 231.962 461.098 235.385C457.204 238.393 457.42 240.831 459.926 244.574C463.368 249.715 466.63 254.973 470.558 259.772C474.496 264.577 478.918 268.906 483.753 272.838C468.735 283.192 443.581 281.684 425.3 269.183C407.341 256.906 396.625 233.202 402.151 209.218C407.038 187.994 425.603 170.2 443.258 167.091C442.145 175.425 441.925 183.667 442.549 191.995C442.971 197.662 444.684 202.975 445.494 208.506C445.811 210.665 447.501 210.102 448.874 210.139C461.181 210.498 473.49 210.865 486.583 211.252L486.575 211.254Z" fill="white"/>
<path d="M410.81 353.394C408.425 346.167 406.021 338.686 403.459 331.256C402.957 329.81 402.562 328.99 404.502 328.48C407.805 327.62 411.099 326.672 414.289 325.49C416.83 324.551 417.881 325.241 418.501 327.824C420.664 336.846 423.578 345.647 426.659 354.394C427.085 355.607 427.097 356.581 426.099 357.52C422.823 360.601 418.847 362.048 414.579 360.994C411.097 360.136 411.418 356.467 410.812 353.403L410.81 353.394Z" fill="white"/>
<path d="M393.583 300.146C391.363 296.83 394.452 296.006 398.385 295.313C400.701 294.901 402.921 293.827 405.134 292.931C406.867 292.235 407.585 292.695 408.066 294.544C410.325 303.138 412.886 311.65 415.985 319.985C416.836 322.279 416.33 323.362 413.877 323.883C411.136 324.465 408.337 324.819 405.79 326.274C403.883 327.361 402.425 327.387 401.569 324.438C399.364 316.808 396.642 309.333 393.585 300.154L393.583 300.146Z" fill="white"/>
<path d="M378.897 304.247C377.915 299.619 379.653 297.308 384.113 297.313C391.398 297.328 391.147 297.399 393.148 304.238C395.27 311.477 397.924 318.55 399.899 325.848C400.237 327.106 400.614 327.461 399.301 327.837C399.025 327.913 398.715 327.917 398.465 328.032C388.486 332.501 387.982 332.297 384.513 322.098C382.444 316.027 379.951 310.09 378.895 304.239L378.897 304.247Z" fill="white"/>
<path d="M423.509 295.887C425.543 302.293 427.29 308.77 428.781 315.336C429.496 318.492 428.419 319.732 425.657 320.505C418.389 322.535 418.139 322.65 415.685 314.142C413.867 307.832 412.076 301.524 409.834 295.348C408.849 292.631 409.147 290.527 412.298 289.282C415.04 288.203 418.726 283.882 419.395 284.822C421.611 287.908 422.257 292.117 423.502 295.897L423.509 295.887Z" fill="white"/>
<path d="M411.337 360.387C406.987 358.738 404.226 356.344 401.66 353.616C396.459 348.086 393.09 341.404 389.575 334.788C388.496 332.756 390.646 332.565 391.096 332.426C393.842 331.577 396.723 331.151 399.517 330.443C401.192 330.017 401.248 331.034 401.714 332.185C404.772 339.82 406.83 347.765 409.313 355.575C409.737 356.904 410.393 358.157 411.337 360.387Z" fill="white"/>
<path d="M427.78 354.325C425.907 344.292 422.081 335.667 419.864 326.559C419.405 324.687 419.585 323.824 421.66 323.153C429.148 320.739 430.071 321.12 431.011 328.805C431.777 335.09 432.013 341.426 430.71 347.698C430.28 349.767 429.982 351.915 427.771 354.327L427.78 354.325Z" fill="white"/>
</g>
<defs>
<filter id="filter0_d_15_308" x="-4" y="0" width="853.924" height="866.058" filterUnits="userSpaceOnUse" color-interpolation-filters="sRGB">
<feFlood flood-opacity="0" result="BackgroundImageFix"/>
<feColorMatrix in="SourceAlpha" type="matrix" values="0 0 0 0 0 0 0 0 0 0 0 0 0 0 0 0 0 0 127 0" result="hardAlpha"/>
<feOffset dy="4"/>
<feGaussianBlur stdDeviation="2"/>
<feComposite in2="hardAlpha" operator="out"/>
<feColorMatrix type="matrix" values="0 0 0 0 0 0 0 0 0 0 0 0 0 0 0 0 0 0 0.25 0"/>
<feBlend mode="normal" in2="BackgroundImageFix" result="effect1_dropShadow_15_308"/>
<feBlend mode="normal" in="SourceGraphic" in2="effect1_dropShadow_15_308" result="shape"/>
</filter>
<clipPath id="clip0_15_308">
<rect width="710.598" height="726.345" fill="white" transform="translate(0 147.542) rotate(-11.9835)"/>
</clipPath>
</defs>
</svg>
