<?xml version="1.0" encoding="utf-8"?>
<!-- Generator: Adobe Illustrator 27.4.0, SVG Export Plug-In . SVG Version: 6.00 Build 0)  -->
<svg version="1.1" id="Warstwa_1" xmlns="http://www.w3.org/2000/svg" xmlns:xlink="http://www.w3.org/1999/xlink" x="0px" y="0px"
	 viewBox="0 0 895 905" style="enable-background:new 0 0 895 905;" xml:space="preserve">
<style type="text/css">
	.st0{clip-path:url(#SVGID_00000072993423288987850090000017980722295883835578_);}
	.st1{fill:#090909;}
	.st2{fill:#FFFFFF;}
	.st3{fill:#FF5F9E;}
	.st4{fill:#07C96C;}
	.st5{fill:none;stroke:#FF5F9E;stroke-width:3.4704;stroke-linecap:square;}
</style>
<g>
	<defs>
		
			<rect id="SVGID_1_" x="83.9" y="96.9" transform="matrix(0.2967 -0.955 0.955 0.2967 -117.4776 744.9716)" width="726.3" height="710.6"/>
	</defs>
	<clipPath id="SVGID_00000165192146921242964220000013643661571861907850_">
		<use xlink:href="#SVGID_1_"  style="overflow:visible;"/>
	</clipPath>
	<g style="clip-path:url(#SVGID_00000165192146921242964220000013643661571861907850_);">
		<path class="st1" d="M860,309.6c-1.2-5.6-4.2-10.4-7.9-14.8c-4.8-5.6-9.4-11.3-14.2-16.9c-1.3-1.5-1.5-2.5,0-3.9
			c4.1-3.8,6-9.1,7.7-14.2c4.4-13.2-0.9-23-14.4-26.8c-3.6-1-5.3-2.6-6.4-6.3c-3.5-12.3-10.9-16-23-11.8c-0.3,0.1-0.8,0.5-1-0.1
			c-3.2-13.8-10.4-17.5-23-11.5c-2.4,1.2-3-0.2-4.1-1.4c-9.3-11-18.7-22-27.9-33.1c-2-2.4-4.1-3.9-7-4.6c-7.9-1.8-15.2-5.3-22.6-8.2
			c-6.1-2.4-12.3-4.3-19-6.4c3.1,16,6,31.3,8.9,46.7c0.3,1.7,1.5,2.8,2.5,4c10.1,12,20.2,24.1,30.5,36c1.7,2,1.7,2.8-0.4,4.6
			c-6,5.4-8.7,11.9-6,20.1c1.9,5.8,4.6,11.5,8.3,16c3.2,4,1.5,4.6-1.5,6.4c-9.2,5.4-10.5,13.3-3.8,21.7c2.2,2.7,4.6,5.3,7.5,7.1
			c2.9,1.8,3.5,3.7,2.5,7c-5.6,17.2-11,34.4-18.3,51c-3.5,7.8-7.2,15.5-11.3,22.9c-6,11-13.9,20.6-24.1,28.2
			c-7.9,5.9-19.9,6.7-28.3,1.5c-6.9-4.4-12.1-10.5-17.1-16.8c-0.9-1.2-1.5-2.6-1-4c2-6.3,2.8-12.8,4.2-19.2
			c1.9-8.9,4.4-17.7,6.3-26.6c3-13.9,5.3-27.9,8.6-41.7c3.2-13.3,5.5-26.8,8.8-40c2.9-11.5,4.5-23.2,7.9-34.6
			c0.5-1.8,0.4-2.4-1.7-2.7c-5.9-0.9-11.8-2.1-17.7-3.1c-12-2.1-24-4-36-6.1c-8.2-1.4-16.4-3-24.8-4.5c5.9-4.9,5.9-8.3,0-12.6
			c-3-2.1-6.3-4-9.8-5.2c-3.1-1.1-4.1-2.3-3-5.6c1.7-4.9,2.4-10,2.9-15.1c3.7-36.4-18.4-77.2-66.1-86.9c-19.4-4-38.4-0.3-55.6,10.1
			c-16.4,9.9-28.3,23.7-34.7,41.9c-3,8.4-5.2,16.9-4.9,25.9c0.1,2.3-0.9,2.6-2.7,2.8c-4.2,0.4-8.3,1-12.3,2.3
			c-4.2,1.4-7.8,3.4-6.7,9.1c-8.5-1.6-16.6-3.3-24.8-4.6c-15.9-2.6-31.8-5-47.6-8.4c-5.2-1.1-9.9-0.4-14.7,2.3
			c-5.5,3.2-11.4,6-17.4,8.1c-4.5,1.5-4.7,4.6-5.1,8.1c-0.1,0.6,0.1,1.1,0,1.7c-2,10.2-4.4,20.3-5.8,30.5
			c-1.9,14.5-5.4,28.6-7.4,43.1c-1.9,13.7-5.3,27.3-7.2,41.1c-0.4,3.1-1.6,5.8-4.9,7.5c-8.6,4.6-17,9.4-26.1,12.9
			c-10.4,4-20.7,7.7-32,7.3c-6.5-0.2-11.9-2.7-16.2-7.7c-5.4-6.4-7.7-14.1-8.9-22.1c-3.3-22.5,0.7-44.6,6.2-66.2
			c2.6-10.2,5.2-20.4,8.9-30.4c5.2-14,9.8-28.2,15.1-42.2c0.7-1.7,1.2-2.4,3-1.5c3.1,1.4,6.2,1.6,9.6,1c6.8-1.2,11-7.9,8.9-14.5
			c-0.4-1.2-1.6-2.3-1.2-3.9c1.9,0.6,3.5,1.2,5.2,1.6c10.9,2.4,21.4,2,31.1-4.7c7.7-5.4,11.7-13,13.4-21.9c0.6-3.1,0.1-6.3-2.7-8.2
			c-2-1.4-1.4-1.9-0.2-3.4c4.1-5.2,5.8-10.9,2.8-17.3c-3.5-7.5-9.5-12.2-17.1-14.9c-6.6-2.4-13.3-4.3-20.5-4.3
			c0.2-0.8,0.1-1.2,0.3-1.3c8.7-7.6,12.1-23.3,6.5-34.3c-3.3-6.6-8.9-8.8-15.9-6.2c-3.1,1.2-5.7,3.2-8.5,5c-0.7-1.4-1.1-2.6-1.8-3.7
			c-4.3-7.9-14.8-10.4-22-5.1c-4.4,3.2-7.1,7.7-9.2,12.5c-5.1,11.5-8.1,23.6-10.4,35.9c-1.5,8.3-3.5,16.7-3.8,25.2
			c-0.3,8.4-1.5,16.7-1.4,25.1c0,1.3,0.1,2.5-1.6,3.1c-5,1.8-8.3,5.2-8.1,10.8c0.2,6.5,2.8,11.7,9.4,13.8c2.2,0.7,2.8,1.7,1.8,3.7
			c-3.7,7.6-6.3,15.7-8.9,23.6c-7.7,23.4-16.1,46.7-19.5,71.3c-1.2,8.6-3.5,17.3-3.7,25.8c-0.2,9.3-0.3,18.7,1,28.1
			c1.8,13.4,5.9,25.6,13.7,36.6c11.3,15.9,27.4,22.7,46.4,23.3c16.3,0.5,31.4-4.5,46.3-10.5c1.8-0.7,3.7-3.2,5.3-1.8
			c1.7,1.5,0.1,3.9-0.7,5.8c-0.1,0.2-0.1,0.6-0.1,0.8c-1.1,10.5-3.6,20.7-5.3,31c-1,6-2.6,11.9-3.4,17.9c-1.3,9.7-3.1,19.3-4.7,28.9
			c-1.3,7.4-2.9,14.7-4.2,22.1c-1.1,6.4-1.6,12.9-3.1,19.2c-2.4,10.2-3.5,20.5-5.8,30.7c-2.8,12.3-4.2,24.9-6.2,37.3
			c-1.8,11.1-4.1,22.2-6.2,33.3c-1.5,7.9-1.9,16-4.4,23.8c-1.6,5.1-0.5,9.6,3.1,14.1c5.8,7.1,11.5,14.4,16.1,22.5
			c0.5,0.8,1.5,1.7,2.4,1.9c8,1.5,16.1,2.5,24.1,4.2c7.5,1.6,15.4,1.4,22.1,4.6c-0.3,3.8-3,6.5-4,9.9c-3.2,10.5-6.7,20.9-9.7,31.5
			c-1.2,4.5-3.2,3.8-6,2c-3.5-2.2-6.9-4.8-10.7-6.6c-6.9-3.4-14-0.6-16.5,5.9c-2.4,6.3,1.2,13.6,8,15.9c3.5,1.2,7.2,2.3,10.8,3.3
			c1.4,0.4,2.5,0.4,1.8,2.4c-0.6,1.7-1.1,2.8-3.3,1.8c-4.4-1.9-8.8-4.1-13-6.3c-9.8-4.9-20-7.8-30.9-7.9
			c-10.9-0.1-19.1,5.2-24.2,14.6c-3,5.6-2.7,11.9,0.7,17.5c6.8,11.2,18,16.5,29.5,21.1c13.4,5.4,27.5,8.2,41.7,10.2
			c8.1,1.1,16,3.1,24.3,2.3c8.1-0.8,12.2-4,14.8-11.5c3.1-9,3-18.6,4.4-27.8c0.6-3.9,0.9-7.2,4.7-9.5c1.5-0.9,2.5-2.8,3.5-4.4
			c3.7-6.1,2-11.9-4.6-14.9c-1.9-0.9-1.7-1.7-1.3-3.3c3.5-12.8,8.3-25.1,14.4-36.9c1.2-2.4,2.6-3.2,5.4-2.5
			c7.9,2.2,16.2,3.2,24.3,4.7c14.5,2.5,28.9,5.6,43.4,8.2c8.5,1.5,17,3.3,25.5,4.9c13.1,2.4,26.2,4.6,39.3,7.1
			c8.9,1.7,17.7,3.9,26.7,5.2c2.9,0.4,3.7,1.2,3.6,3.8c-0.4,9.7-1.1,19.3-3.2,28.9c-1.9,8.6-4.2,17-7.1,25.3
			c-0.5,1.5-0.8,2.7-3.2,2.1c-4.3-1.1-8.6,1.6-10.3,5.8c-1.7,4.1-1.3,8.2-0.3,12.3c0.3,1.2,0.8,2.4,0.1,3.7
			c-4.1,7.5-7.6,15.4-12.1,22.6c-5.9,9.3-3.2,22.8,6.3,27.6c5.8,2.9,11.2,6.4,17.3,8.7c7.5,2.9,14,7.7,21.8,9.9
			c10.5,3,20.7,6.8,31.6,8c6.9,0.7,13.7,1.1,20.5-0.9c5.4-1.7,10.1-4.5,12.2-10c5-13.2,1.3-24.2-10.5-32.1
			c-6.9-4.7-14.8-7.2-22.8-9.2c-6.4-1.7-12.9-2.5-19.5-3.2c-1.6-0.2-4,0-3.3-3.2c0.8-3.2,2.6-1.3,3.9-1c3.5,1,6.9,2.2,10.4,3.2
			c7.6,2.2,13.1-1.4,15.5-10c1.5-5.2-2.6-10.7-8.9-12.7c-3.8-1.2-7.7-0.3-11.5-0.6c-7.9-0.5-9-2.2-5.3-9.3c5.4-10.5,7.4-22,9.9-33.4
			c2.1-9.6,3.3-19.4,3.1-29.2c12.1,2.3,23.8,4.7,35.6,6.7c3.4,0.6,6.6,1.8,10.1,2c2.1,0.1,2.8-0.4,3.2-2.2c1.3-5.3,3-10.5,3.8-15.8
			c0.5-3.8,2-7.2,2.5-10.9c1.2-8.3,3.8-16.3,5-24.6c0.9-6.1,3.3-11.8,4-18c0.8-6.3,2.4-12.5,3.8-18.8c1.3-5.7,3.1-11.3,4.2-17
			c2.4-12.9,5.1-25.7,8.4-38.3c0.8-3.1,1.9-6.4,2.1-9.2c0.7-8.3,3.2-16.1,4.9-24.1c2.3-10.7,4.3-21.5,7.1-32.2
			c1.5-5.8,2.4-11.8,4.1-17.6c1.9-6.4,2.3-13.1,4-19.6c1.5-6,1.9-12.4,4.8-18.2c6.9,4.4,13.2,9.6,21.2,12.1
			c8.1,2.6,16.2,3.7,24.7,2.6c16.8-2.1,30.2-10.5,41.7-22.4c19.3-20,29.9-45.1,39.9-70.4c4.3-10.7,7.9-21.7,11-32.8
			c0.7-2.5,2.1-3,4.3-2.8c9.2,1.1,14-2.1,16.6-11c0.5-1.8,1.2-2.3,3.1-2.7c5.2-1.1,9.1,0.2,11.7,5c0.6,1.1,1.6,2,2.4,3
			c3.8,4.8,8,9.5,13.5,12.1c8.2,3.8,16.5,3.4,23.8-2.8C858.7,327.7,862.1,319.6,860,309.6z M201.6,161.8c-4.7-1.7-9.9-1.7-14.6-3.5
			c-6.2-2.4-10-9.9-7.9-15.7c1.6-4.2,6-6.5,10.4-5.5c3.4,0.8,6.6,2.6,10.1,2.6c0.1-0.4,0.3-0.8,0.4-1.1c-3-0.9-6-2-9-2.7
			c-2.2-0.5-2.9-1.4-2.8-3.8c0.9-17.3,2.7-34.5,5.6-51.6c2-11.5,4.9-22.8,9.5-33.5c2.1-5,5.4-9.3,9.7-12.9
			c6.1-4.9,18.7,0.4,19.7,8.6c0.1,0.9-0.2,1.7-0.5,2.6c-2.7,9-7.4,17.3-9.3,26.6c1.5,0.6,1.7-0.4,1.9-1.2c1.8-7.1,6.1-13.4,7.3-20.7
			c1-6.2,12.1-12.6,17.3-12.2c3.9,0.3,6.2,2.7,8,5.9c6,10.8,2.2,26.5-7.1,33.7c-1.9,1.5-4.1,2.6-5.3,4.9c10.5-3.3,19.9-0.7,29.5,3.7
			c5.7,2.6,9.9,6.2,13.2,11.3c3.5,5.4,1.9,10.8-0.8,15.6c-2.3,4.1-6.9,4.7-11.4,4.3c-4.4-0.4-7.3-3.1-9.4-6.8
			c-3.3-5.8-7.5-10.6-14.4-12.3c-6.2-1.5-14.8,1.8-17.6,7.3c-2,4-1.2,8.2,0.4,12.1c4,9.6,11.6,15,21.7,16.4c7.2,1,13-2.1,16.8-8.3
			c1.3-2.1,2.6-4.2,4.8-5.5c2.5-1.5,5-2.3,7.7-0.6c2.8,1.9,3.1,4.7,2.5,7.7c-3.5,17.4-18.7,27.9-36.5,25.4c-6.3-0.9-12.1-2.9-18-5.4
			c-5-2.1-10.9-1.5-16.3-2.8c1.5,1.9,3.5,2.4,5.6,2.6c4.2,0.3,8.2,1.8,12,3.3c3.8,1.4,6.3,7.9,5,11.8c-1.4,4.3-6.4,7.4-11.1,6.1
			C220,166.1,210.5,165,201.6,161.8z M275.4,119.5c-1.5,2.3-2.8,4.3-4.2,6.3c-5.1,7.3-13.6,8.8-23,4c-7.6-3.8-12.4-10.1-13.1-19
			c-0.2-2.5,0.5-4.3,2.2-6c6.9-6.8,15.8-6.8,22.5,0.1c1.6,1.6,3,3.5,4.2,5.4C268.2,117,268.2,117,275.4,119.5z M588.3,191.4
			c0.2,4.4-2.1,4.9-5.8,5.2c-14.6,1.1-29.2,1.8-43.8,1c-1.5-0.1-2.9,0-4.1-0.9c2.6-1.5,3.6-4,2.9-6.6c-1.4-5.5-6.1-7.2-11-8.6
			c20.8,2.1,41.5,2.9,62.8,2.1C588.9,186.3,588.2,188.9,588.3,191.4z M515.5,189.4c2.8,3.9,5.4,7.9,5.9,12.8c0.3,3,0.1,6.1-3.3,7.2
			c-3.7,1.1-5.1-2-6.3-4.6c-2-4.6-2.1-9.5-1.5-14.5c0.1-0.9,0.7-2.3-0.6-2.6c-1.6-0.3-1.8,1.5-1.8,2.3c0.2,4.1-1.6,7.4-3.4,10.8
			c-0.1,0.2-0.2,0.6-0.3,0.8c-2,3.9-6.4,6.4-9,5c-2.7-1.4-2.9-5.4-0.3-9.7c2.3-3.9,5.7-6.8,9.3-9.5c0.8-0.6,2.8-0.9,2-2.3
			c-1-1.6-2.2,0.3-3.2,0.8c-3.2,1.7-6.5,3-10,4.1c-3.1,1-5.8-0.7-8.8-0.7c-1.8,0-2.3-4.4-0.7-6c4.8-4.8,10.7-4,16.6-3.4
			c1.8,0.2,3.5,1.4,5.6,0.7c-3.2-2.6-7.6-2.7-10.5-5.8c-1.6-1.6-3.6-2.9-4.7-5c-1-1.9-1.5-3.8,0-5.7c1.5-1.9,3.5-1.8,5.5-1.2
			c4.4,1.5,6.9,5,9.2,8.8c1.2,1.9,2.3,3.9,3.4,6c1.8-1,0.4-2.2,0.2-3.3c-1.2-4.5-2.4-9-1-13.6c0.8-2.6,2.2-4.9,5.4-4.5
			c2.9,0.4,4,2.8,4.3,5.3c0.5,4.5-1.3,8.5-3.2,12.3c-0.7,1.4-1.4,2.6-1.4,4.6c1.8-0.5,2.3-1.9,3.1-2.9c2.7-3.4,5.6-6.6,9.9-8.1
			c2.7-0.9,5.6-1.1,7.2,1.9c1.5,2.8-0.3,5-2.3,6.7c-3,2.5-6.6,3.5-10.3,4.1c-1.7,0.3-3.3,0.5-5.4,0.8c2.4,2.2,5.1,1.8,7.1,1.7
			c4.4-0.2,7.6,2,11,4c2,1.2,3.2,3.4,2.1,6c-1,2.5-3.3,2.7-5.4,2.5c-5-0.5-8.6-3.5-12.1-6.8c-1.1-1.1-2-2.7-3.9-3.1
			C513.1,187.7,514.8,188.4,515.5,189.4z M434.5,156.8c9.6-35.6,44-60.3,81.1-57.7c42.5,2.9,73.4,37.2,74.2,78.1
			c0.1,3.2-0.7,4.3-4.1,4.4c-18.4,0.4-36.8-0.2-55.6-2.1c3.5-3.2,7.3-6.5,4.4-10.8c-4.7-6.8-10.4-2.2-16.3,0.6
			c1.3-4.7,1.8-8.6-0.8-12.2c-1.3-1.8-3.2-1.9-5-2.3c-4-0.8-6.1,2.6-7.8,12.4c-4.5-3.7-8.6-9.2-15.3-4.5c-4.9,3.5-0.6,7.1,0.6,11
			c-7-1.1-14-1.7-20.7-3.4c-10.8-2.9-21.8-5.3-32.5-8.9C433.9,160.3,433.9,159.2,434.5,156.8z M441.3,164.8c17.1,5.8,34.8,9,53.6,12
			c-14.4,2.4-15.9,6.4-14.2,12.1c-15.3-2.8-30-8.1-44.8-12.7c-3.1-1-4-2.5-3.6-5.6C433.2,162.2,433.1,162.1,441.3,164.8z
			 M415.3,183.1c4.1-1.5,8.4-2.1,12.7-2.4c2.3-0.2,4.3-0.3,3.9-3.5c12.9,5,25.8,8.7,38.8,12c6.8,1.7,13.7,3.1,20.6,4.7
			c1.3,0.3,3,0.4,1.6,2.7c-3,4.8-2.1,10.2,1.5,11.9c3.8,1.8,9.2-1.1,11.5-6c0.6-1.2,0.4-2.8,2-4c0.8,2.6,1.3,4.9,2.2,7.1
			c1.8,4.5,5.2,6.7,8.5,5.8c3.3-0.8,5.2-4.4,4.8-9.1c-0.1-1.1-0.2-2.3-0.4-3.8c20.6,2.6,40.9,2,61.3,0.2c1.7-0.2,3.2-0.2,2,2.1
			c-2.2,4.5,1.2,5.5,4,6.4c4.4,1.4,8.1,3.7,11.4,6.8c3.1,2.9,2.7,5.1-1.1,7c-4.3,2.2-9.1,2.8-13.8,3.3c-20.8,2-41.5,0.3-62.1-2.1
			c-14.1-1.7-28.1-3.9-42.1-6.7c-15.3-3-30.4-7.2-45.4-11.6c-8.4-2.5-16.3-6.1-23.5-11.1c-2-1.4-4.4-3-3.8-5.8
			C410.5,184.5,413.2,183.8,415.3,183.1z M228.7,623.3c-3.4-4.1-3.1-8.1-2.4-12.6c1.5-8.8,3.4-17.5,4.9-26.4
			c1.1-7.1,2.4-14.3,3.7-21.5c2.5-13.6,5.2-27.2,7.8-40.8c2.4-12.7,4.1-25.6,6.7-38.3c2.4-12,3.5-24.3,6.1-36.3
			c2.3-10.5,3.7-21,5.9-31.5c2.1-10.3,3.2-20.8,5.3-31.1c1.9-9.6,3.6-19.3,5.3-29c2.2-12.8,4.5-25.7,6.7-38.5
			c2.2-12.4,4.8-24.8,7-37.3c2.5-14.4,5.2-28.7,7.7-43.1c2.6-14.8,5-29.6,7.5-44.3c0.2-1.1,0.4-2.1,1.8-2.6
			c7.8-3.4,15.5-7,24.4-11.1c-27.4,155.8-54.6,310.7-81.9,466.3C239.2,637.3,234.3,630,228.7,623.3z M294,773.4
			c-5.4,1.2-10.9,0.6-16.3-0.2c-10.5-1.7-21.2-2.8-31.5-5.4c-15.4-3.8-30.6-8.6-43-19.3c-5.2-4.5-8.7-9.9-8.5-17.2
			c0-1.4,0.1-2.5,1.4-4c6.8,13.9,19,20,32,25c14.3,5.5,29,8.8,44.3,10.4c5.8,0.6,11.6,2.1,17.5,2.4c5,0.2,9.8-0.5,14-3.6
			C304.2,767.4,300.4,771.9,294,773.4z M311.1,708.9c5.8,0.7,8.8,5.5,6.5,10.9c-1,2.4-2.5,4.7-4.6,6.2c-3.1,2.1-4,4.9-4.3,8.4
			c-0.5,5.7-1.4,11.4-2,17.2c-0.7,6.6-3.8,10-10.4,11.3c-5.6,1.1-11.2,0.3-16.8-0.6c-16.4-2.5-32.8-4.8-48.5-10.7
			c-7.7-3-15.2-6.3-21.8-11.3c-2.3-1.7-4.6-3.6-6.3-5.8c-2.7-3.5-6.1-7.2-4.1-11.9c2.3-5.6,10.5-10,16.1-9.5l0,0
			c2.8-2.1,6-1.2,8.9-0.9c14.7,1.5,27.8,7.4,40.2,14.9c6.4,3.9,12.7,8,19,11.9c0.7,0.5,1.6,1.8,2.4,0.2c0.5-1-0.7-1.5-1.4-1.9
			c-4.6-3-9.1-6.1-13.9-8.7c-3.2-1.8-2.8-4.1-1.8-6.5c1.1-2.6,3.1-0.4,4.4,0c6.2,1.7,12.3,3.7,18.5,5.7c0.6-2.4-0.7-2.4-1.6-2.6
			c-11.5-3.2-22.7-7.5-34.5-9.2c-5-0.7-9.4-8.5-8.1-13.6c1.4-5.3,7.7-8.4,13.2-6.2c2.1,0.8,4.1,2.1,6,3.4
			c10.2,7.6,21.7,10.4,34.2,9.5C303.9,708.6,307.5,708.4,311.1,708.9z M555.2,850.9c-6.4,2-13.1,1.5-19.6,0.6
			c-16.4-2.1-31.7-7.5-46.5-14.7c-7.3-3.6-14.8-6.8-21.8-11.1c-5.6-3.4-9.9-7.8-10-15.1c0-2.1,0.7-3.7,1.5-5.7
			c3.3,7.5,9.4,11.6,16.1,14.9c7.8,3.9,15.7,7.6,23.7,11.2c14.4,6.5,29.3,11.2,45.2,12.4c8.2,0.6,16.1-0.1,23.9-5.2
			C566.4,846.1,561.3,849.1,555.2,850.9z M523.7,775.8c2.9,0,5.8,0,8.6,0.4c5.4,0.8,8.6,5,8.4,10.4c-0.1,4.5-4.1,8.5-9,9
			c-5.4,0.5-10.3-0.7-15.1-3.4c-8.2-4.7-17.6-6.1-26.7-8.4c1.9,2.3,4.6,2.6,7,3.4c4,1.3,8,2.4,12,3.8c1.1,0.4,3.6,0.1,2.6,2.3
			c-0.8,1.6-0.5,4.5-3.9,4.3c-5.6-0.4-11.2-0.5-16.9-0.7c-1.1,0-2.2-0.2-3.1,0.6c0.4,1.8,1.5,1.3,2.4,1.4
			c12.5,0.7,25.1,0.2,37.5,2.7c10.2,2,20.3,4.6,29.1,10.5c1.4,0.9,3.5,1.5,3.6,3.7l0,0c5.3,2.8,10,12.8,8.2,18
			c-1.1,3.3-4.2,4.7-7.2,5.8c-8.4,3.2-17,2.5-25.6,1.2c-17.9-2.8-34.3-9.9-50.4-17.9c-5.2-2.6-10.5-4.8-15.3-8c-3-2-5.8-4.3-7.5-7.6
			c-1.6-3.2-2.1-6.4-0.1-9.8c3.4-6,6.3-12.3,9.6-18.4c1.1-2.1,1.5-4.1,0.7-6.5c-1-3-1.3-6.2-0.4-9.4c1.5-5.6,6.4-7.8,11.4-4.8
			c4.4,2.7,8.6,5.8,12.8,8.9C504.7,772.9,513.7,775.7,523.7,775.8z M629.5,467.9c-2.1,11.9-4.9,23.7-7.6,35.6
			c-1.2,5.4-2.9,10.8-3.9,16.2c-1.6,8.6-4.4,17-5.5,25.8c-0.9,7.3-3.2,14.4-4.8,21.7c-2,9.2-3.7,18.5-5.9,27.6
			c-1.8,7.3-3.6,14.7-4.9,22.1c-2.2,11.6-5.1,23.1-7.5,34.7c-2,9.2-3.6,18.6-6.3,27.7c-2,6.8-2.9,13.9-4.3,20.9
			c-0.1,0.6-0.1,1.1-0.2,1.7c-1.2,6.7-1.7,7.3-8.3,6.1c-10.7-1.9-21.2-4.6-31.9-6.1c-10.6-1.4-20.8-4.5-31.5-5.6
			c-9.4-1-18.6-4.1-28-5.6c-10.3-1.6-20.5-4-30.7-5.7c-8.6-1.4-17-3.3-25.6-4.6c-11.2-1.7-22.2-4.8-33.5-6.3
			c-8.6-1.1-17.1-3.3-25.6-4.9c-11.2-2.1-22.2-4.5-33.5-6.2c-8.6-1.3-17.1-3.3-25.6-4.9c-11.5-2.2-23-4.3-34.5-6.5
			c-6.6-1.3-13.1-2.7-19.7-3.9c-2.8-0.5-3.2-2-2.7-4.5c2.1-11.4,4-22.8,6-34.2c2-11.2,3.9-22.5,5.9-33.7c2-11.1,3.9-22.2,5.9-33.4
			c2-11.2,3.9-22.3,5.9-33.5c2-11.3,3.9-22.6,5.9-33.9c2.8-15.9,5.6-31.8,8.4-47.7c3.1-17.7,6.2-35.3,9.3-53
			c2-11.2,3.9-22.4,5.9-33.6c2-11.2,3.9-22.5,5.9-33.7c2-11.2,3.9-22.4,5.9-33.6c2-11.4,4.2-22.8,5.9-34.3
			c1.8-12.3,4.8-24.4,6.3-36.8c0.8-7,2.8-13.9,3.6-20.9c0.2-2,1.4-2.6,3.4-2.2c10.6,2.2,21.4,3.4,31.9,6.1
			c5.2,1.4,10.8,1.5,16.2,2.4c6.5,1,12.9,2.7,19.4,3.2c9,0.7,15.7,6.2,23.3,9.8c9.3,4.5,19.1,7.6,29.3,9.5
			c5.8,1.1,11.3,3.1,17.1,4.5c14.5,3.4,29.1,5.9,43.8,8.1c20.7,3.1,41.4,5,62.3,4.7c6.6-0.1,13.2-0.5,19.8-1.9
			c5.3-1.1,10.1,1.3,15.1,2c14.6,1.9,29,5.2,43.6,7.3c7.9,1.1,15.8,2.9,23.7,4.4c1.3,0.3,2.8,0.1,2.3,2.5
			c-2.2,9.4-4.1,18.8-6.2,28.3c-0.2,0.8-0.5,1.7-0.8,2.5l-0.2,0c-1.5,7.5-3.2,15-4.5,22.6c-0.9,4.8-2.3,9.4-3.4,14.1
			c-2.7,11.8-5,23.8-8,35.5c-2.4,9.6-4.9,19.2-6.7,28.8c-1.9,10.2-4.6,20.4-6,30.7c-0.7,5.2-2.6,10.2-3.6,15.5
			c-2.1,11.4-5.8,22.5-7.3,34.1C632.3,458.2,630.4,462.9,629.5,467.9z M842.5,286.6c2,2.2,1,3.2-0.6,4.8c-2.3,2.3-2.9-0.2-3.8-1.2
			c-4.6-5.3-9.1-10.7-13.6-16.2c-0.6-0.7-2.3-1.5-0.7-2.7c1.1-0.9,2.2-1.9,3.9-2c0.5,0.6,1.1,1.2,1.6,1.9
			C833.7,276.4,837.9,281.6,842.5,286.6z M836.5,296.5c-6.8,6.6-6.7,6.6-12.8-0.5c-5-5.9-10.1-11.7-15.1-17.6c2.6-1,5.4-1.4,7.4-2.9
			c3.5-2.5,5.5-1.4,7.9,1.7c4,5.2,8.4,10.2,12.7,15.2C837.9,294,838.2,294.9,836.5,296.5z M840,239.1c5.6,5.6,6.6,16.2,2.7,23.2
			c-1.9,3.4-3.1,7.1-5.6,10.1c-1.4,1.7-2.5,2.3-3.8,0.1c-0.1-0.1-0.2-0.2-0.3-0.3c-2.1-2.5-6.1-4.8-1.5-8.9
			c-3.9,2.6-7.8,5.2-11.7,7.7c-3.8,2.4-7.9,4.3-12.3,5.1c-6.5,1.1-10.3-2.6-9.2-9.2c1.2-6.9,4.8-12.6,9.4-17.7
			c4.1-4.5,8.8-8.3,13.7-11.8C827.4,233,834.8,233.8,840,239.1z M801.7,217.1c9.6-4.8,17.7-1.5,21.2,8.8c2.2,6.5,2.1,6.4-3.2,10.4
			c-4,3.1-7.8,6.3-11.5,9.8c-6.7,6.4-11.3,14-12.1,23.7c-6-1.1-11.4-2.8-14.9-7.9c-1.3-1.8-1.4-3,1.1-4.2c4.8-2.1,9.1-4.9,13.3-8
			c3.9-3,6-6.9,7-11.5c0.8-3.7-2.4-9.2-6.9-10.8c-2.9-1-3.1-1.7-0.7-3.8C797.4,221.7,798.7,218.6,801.7,217.1z M778.9,205.1
			c3.6-3.2,8.8-3.5,13.5-1.4c3.4,1.5,6.6,7.6,6.5,11.6c-0.1,1.2-0.7,1.8-1.4,2.5c-3.8,4.6-7.7,8.2-14.5,7.7
			c-4.2-0.3-8.4,1.6-12.7,2.4c-1.5,0.3-3.2,1.9-4.7,0.4c-1.3-1.4,0.6-2.9,0.4-4.5C769.4,216.9,773.3,210.2,778.9,205.1z
			 M745.5,171.5L745.5,171.5c1.6,2.1,3.2,4.2,4.9,6.2c1.1,1.4,2.2,2.7,3.3,4.1c6.2,7.4,12.6,14.6,18.8,22.1c1.6,2,1.6,3.2,0,5.1
			c-1.3,1.6-1.9,1.2-2.9,0c-7.5-8.9-15.1-17.8-22.4-26.8C744.9,179.2,744.8,175.4,745.5,171.5l-0.2,0.1L745.5,171.5z M763.6,225.9
			c-9.1-10.6-17.7-20.6-26.3-30.6c-4-4.6-3.5-10.7-5.6-16.2c7.7,1.3,13.8,4,18.3,10.4c5.3,7.3,11.5,14,17.4,20.8
			c1.6,1.8,2.3,3.3,0.6,5.5C765.9,218.7,764.3,221.8,763.6,225.9z M763.1,229.5c-4.4,1.5-9.1,4.8-12.6,3.9c-3.6-0.9-6.1-6.1-9-9.4
			c-5-5.8-9.6-11.9-15-17.2c-4.9-4.8-5.6-10.6-6.3-17c7.3,2.3,13.7,5,18.5,11.1C746.5,210.7,754.9,219.9,763.1,229.5z M702.3,164.6
			c-0.7-3.9-1.4-7.8-2.2-11.6c4.2,1.3,8.1,2.7,12.1,3.7c3.3,0.8,3.4,2.9,2.8,5.5c-0.8,3.2-2.7,5.3-5.8,6.4
			C704.9,170.1,703.2,169.1,702.3,164.6z M707.7,194.9c-1.3-7.1-2.6-14.1-4.1-21.2c-0.4-1.8-0.2-2.4,2-2.5
			c7.7-0.2,10.2-2.7,11.4-10.4c0.3-1.7,1.1-2.1,2.6-1.5c7,2.5,14,5,21,7.4c1,0.4,1.3,1.1,1.5,1.9c0.6,3.7,1.1,7.3,1.7,11.7
			l-15.1-4.7c1.3,5.3,2.5,10.1,3.8,15.5l-14.7-4.6c-0.2,4.7,1.4,8.8,1.6,13.6c-3.5-1.1-6.6-2.1-9.7-3
			C708.4,196.8,707.9,196.2,707.7,194.9z M740.1,234.4c-9.4-11.4-19-22.6-28.5-34c6.2,0.5,10.1,4.1,13.8,8.6
			c7.1,8.8,14.7,17.2,22.2,25.9C744.7,237.9,742.6,237.5,740.1,234.4z M775.8,309.8c4.4,3.2,8.4,6.8,14.1,7.1c5.1,0.3,6,1.7,3.5,6.2
			c-2.6,4.7-6.9,6.4-12,6c-6.4-0.5-12.3-2.5-17.9-5.7c-9.1-5.2-18.2-10.6-25.4-18.5c-7.5-8.2-5.9-15.8,4-21c2.1-1.1,3.2-0.7,4.6,1.1
			c3.3,4.4,7.3,8.1,12,11.1c1.3,0.8,2.6,1.6,4.9,1.8c-1.3-1.1-2-2-2.9-2.6c-12-7.4-18.6-19.1-24.6-31.1c-5.5-11-1.9-20,9.2-25.3
			c11.4-5.5,23.3-9.3,35.7-11.6c4.1-0.7,7.8-0.4,11.8,0.8c8.9,2.6,10.4,10.9,4.5,17.5c-4.3,4.8-10,7.8-15.8,10.5
			c-4.7,2.2-9.6,4-14.4,5.9c-4.4,1.7-4.6,2.2-1.5,5.9c12.1,14.3,24.2,28.6,36.3,43c0.9,1.1,1.8,2.2,2.7,3.4
			C794.2,317.2,784.8,315.2,775.8,309.8z M813.9,317.7c-2.4,2.3-3.2,0.2-4.2-1.1c-14.5-17.2-29-34.4-43.5-51.6
			c3.7-2.9,6.1-1.7,8.9,1.6c12.9,15.4,26.1,30.6,39.3,45.8C816.4,314.8,815.8,315.8,813.9,317.7z M812.5,306.4
			c-12.7-14.7-25.3-29.4-38.1-44.3c2.2-1.5,3.7-2.3,4.8,0.6c0.8,2.2,2.5,4.1,4.7,4.8c7.4,2.4,13.5,7.4,20.3,10.8
			c1.1,0.6,1.9,1.2,2.6,2.1c6.2,7.2,12.2,14.5,18.6,21.6c2,2.2,1.6,3.3-0.4,5.1C818.4,313.2,818.5,313.3,812.5,306.4z M830.5,336.2
			c-4.4-1.5-7.8-4.6-11.2-7.8c-1.4-1.3-0.8-2,0.3-3c9.9-9.3,19.7-18.5,29.5-27.9c1.2-1.1,1.9-1.3,3,0.2c5,7.2,8.8,14.7,5.1,24.8
			C853.7,333.6,841.7,340.2,830.5,336.2z"/>
		<path class="st2" d="M578.5,701.7c0.1-0.6,0.1-1.1,0.2-1.7c1.4-7,2.3-14.1,4.3-20.9c2.6-9.1,4.3-18.4,6.3-27.7
			c2.5-11.6,5.4-23,7.5-34.7c1.4-7.4,3.1-14.7,4.9-22.1c2.3-9.1,3.9-18.4,5.9-27.6c1.6-7.2,3.8-14.4,4.8-21.7
			c1.1-8.8,3.9-17.1,5.5-25.8c1-5.5,2.7-10.8,3.9-16.2c2.6-11.8,5.4-23.6,7.6-35.6c0.9-5,2.8-9.6,3.4-14.6
			c1.5-11.6,5.2-22.7,7.3-34.1c1-5.2,2.9-10.2,3.6-15.5c1.4-10.4,4-20.5,6-30.7c1.8-9.6,4.3-19.3,6.7-28.8c2.9-11.8,5.3-23.7,8-35.5
			c1.1-4.7,2.5-9.4,3.4-14.1c1.4-7.5,3-15,4.5-22.5l0.2,0c0.3-0.8,0.6-1.6,0.8-2.5c2.1-9.4,4-18.9,6.2-28.3c0.6-2.4-0.9-2.3-2.3-2.5
			c-7.9-1.5-15.8-3.3-23.7-4.4c-14.6-2.1-29-5.3-43.6-7.3c-5-0.7-9.8-3.1-15.1-2c-6.5,1.4-13.1,1.8-19.8,1.9
			c-20.9,0.3-41.6-1.5-62.3-4.7c-14.7-2.2-29.3-4.8-43.8-8.1c-5.7-1.3-11.3-3.4-17.1-4.5c-10.2-1.9-20-5.1-29.3-9.5
			c-7.6-3.7-14.3-9.1-23.3-9.8c-6.5-0.5-12.9-2.2-19.4-3.2c-5.4-0.9-11-1-16.2-2.4c-10.5-2.8-21.3-3.9-31.9-6.1
			c-2-0.4-3.2,0.2-3.4,2.2c-0.8,7.1-2.8,13.9-3.6,20.9c-1.5,12.4-4.5,24.5-6.3,36.8c-1.6,11.5-3.9,22.9-5.9,34.3
			c-2,11.2-3.9,22.4-5.9,33.6c-2,11.2-3.9,22.5-5.9,33.7c-2,11.2-3.9,22.4-5.9,33.6c-3.1,17.7-6.2,35.3-9.3,53
			c-2.8,15.9-5.6,31.8-8.4,47.7c-2,11.3-4,22.6-5.9,33.9c-2,11.2-3.9,22.3-5.9,33.5c-2,11.1-3.9,22.2-5.9,33.4
			c-2,11.2-3.9,22.5-5.9,33.7c-2,11.4-3.9,22.8-6,34.2c-0.4,2.5-0.1,4,2.7,4.5c6.6,1.2,13.1,2.7,19.7,3.9c11.5,2.2,23,4.3,34.5,6.5
			c8.5,1.6,17,3.5,25.6,4.9c11.2,1.7,22.3,4.1,33.5,6.2c8.5,1.6,17,3.8,25.6,4.9c11.3,1.4,22.3,4.5,33.5,6.3
			c8.6,1.3,17.1,3.2,25.6,4.6c10.3,1.7,20.4,4.1,30.7,5.7c9.4,1.5,18.6,4.6,28,5.6c10.7,1.1,20.9,4.2,31.5,5.6
			c10.7,1.4,21.2,4.1,31.9,6.1C576.8,709,577.2,708.4,578.5,701.7z M492.5,275.9c-0.2,1.9-0.1,3.8-0.5,5.7c-1.2,6.4-1.2,6.4,5.2,8.3
			c3.3,1,6.6,2.2,9.3,4.4c3.4,2.7,4.6,5.7,3.1,10.2c-1.4,4.3-4.6,4.8-8.1,5c-5.5,0.3-12.6-1.4-17.8-4.1c1.1-2,2.6-0.5,3.7-0.2
			c4.6,1.4,9.2,2.5,14,2.4c3,0,6-0.7,7-3.9c1.1-3.2-0.6-5.9-3.2-7.9c-4.1-3.2-9-4.5-14-5.3c-2.3-0.4-3.2-1.4-2.7-3.2
			c1.1-3.8,2.3-7.6,2.6-11.6C491.7,275.7,492.1,275.8,492.5,275.9z M470.9,311.6c13.5,10.2,27.9,14.1,44,10.3
			c2.2-0.5,2.5,0.3,2.1,2.1c-3.1,14.6-5.4,29.4-11.5,43.1c-3.1,6.9-5.9,14.1-11.2,20c-9.1,10.4-24,7.5-29.1-5.5
			c-3.2-8.1-3.2-16.5-3.1-25.1C462.4,341.2,466.1,326.5,470.9,311.6z M357.3,331.6c-0.6,0.6-1.5,1.3-2.2,0.4
			c-0.6-0.7,0.2-1.1,0.6-1.7c5.5-7.4,11.5-14.4,19.1-19.8c1.7-1.2,2.1-1.9,0.2-3.4c-2.4-2-4.9-4.2-6.5-6.9
			c-2.6-4.2-5.9-4.4-10.1-3.2c-8,2.2-15.7,4.8-22.2,10.1c-1,0.8-2.2,2.1-3.2,0.7c-1-1.5,1-1.5,1.8-2.1c8.4-6.5,18.2-9.5,28.9-11.6
			c-3.4-6.1-6.2-12.3-7.8-19c-1.7-7.5-2-15-0.7-22.4c5.9-34.4,34.7-51.7,61.4-49.9c31.1,2.2,57.1,24.9,56.2,61
			c-0.8,35.5-31.5,60.2-63.9,57.4c-2.8-0.2-5.8,0.1-8.4-1.2c-3.1-1.5-4.7-0.6-6.2,2.4c-3.5,7.2-6.8,14.4-8,22.3
			c-0.3,1.7-0.3,1.7-2,3.2c-0.5-6.5,3.3-17.8,10.1-29.6c-4.9-2-9.7-4.1-14-7.3c-1.6-1.2-2.6,0-3.8,0.8c-6.6,4.8-12.2,10.6-17,17.1
			C358.7,329.8,358.1,330.8,357.3,331.6z M347.8,390.8c-0.9-0.3-2-0.3-3.3-2.5c63.5,14.3,125.9,28.4,188.3,42.5
			c-0.1,0.4-0.2,0.9-0.3,1.3c-3.5,0.2-6.8-1.5-10.2-2c-8-1.3-15.9-3.6-23.9-5.2c-12.7-2.5-25.3-5.8-38-8.6
			c-9.6-2.1-19.3-3.9-28.8-6.5c-11.4-3.2-23.1-5.1-34.7-7.5c-4.6-1-9.2-2.4-13.7-3.6C371.5,395.5,359.3,394.7,347.8,390.8z
			 M342.9,465.8c11.8,3.2,23.8,5.1,35.6,8c13.6,3.3,27.5,5.7,41.3,8.6c11.1,2.4,22.1,5,33.1,7.4c11.8,2.5,23.7,4.9,35.5,7.4
			c7.9,1.7,15.8,3.5,23.6,5.6c2.3,0.6,4.9-0.5,7.3,1.9c-4.3,1-8-1-11.7-1.7c-12.1-2.1-24.3-4.5-36.2-7.6c-7.9-2-15.9-3.3-23.8-5.3
			c-10.2-2.6-20.7-3.8-30.9-6.3c-7.6-1.9-15.4-3.3-23-5c-11.5-2.6-23.2-4.7-34.7-7.4c-9.1-2.2-18.5-3.1-27.1-7.1
			C335.7,463.6,339.4,464.8,342.9,465.8z M314,536c2.6-1,5.4-0.3,7.8,0.4c8.3,2.2,16.6,3.8,25.1,5.1c4.5,0.7,8.8,2.3,13.3,3.2
			c16.9,3.5,33.7,7.4,50.5,10.9c16.1,3.4,32.4,6.3,48.5,9.9c11,2.5,22.3,4,33.1,7.4c1.8,0.6,4.4-0.9,5.5,2.3
			c-11-1.9-21.4-4.7-32-6.8c-10.5-2-20.9-4.3-31.3-6.4c-14.8-2.9-29.6-6.1-44.3-9.3c-13.6-2.9-27.3-6-40.9-8.9
			c-11-2.3-22-4.4-33-6.7C315.6,537,314.8,536.7,314,536z M302.1,610.7c0.1-0.6,0.1-1.2,0.2-1.8c61.5,12.1,123,24.2,184.5,36.3
			c-0.1,0.6-0.2,1.1-0.3,1.7C425,634.8,363.5,622.8,302.1,610.7z M581.7,348.2c-18.3,0.8-33.7-5.6-46.3-19
			c-11.4-12.1-16-26.7-15.8-43.1c0.1-5.7,0.3-11.9,2.4-16.6c3.1-6.6,6.6-13.5,11.7-19.2c19.7-21.8,46.1-25.3,68.8-15.6
			c23,9.8,35.9,32.1,35.5,54.7c-0.3,14.8-5.2,28.1-15.4,39.5c9.7,5.6,19.3,11.2,25,21.7c-2.2,0.4-2.4-0.8-2.9-1.5
			c-5.6-8.2-13.6-13.4-22.2-18c-1.1-0.6-1.8-0.2-2.7,0.5c-3.4,3.3-7.2,6.3-11.4,8.6c-2.2,1.2-1,2.2-0.2,3.4
			c4.3,6.2,7.7,12.9,10,20.1c0.4,1.4,1.4,2.8,0.6,4.5c-2.2-0.3-1.9-2.1-2.3-3.3c-2.4-6.9-5.5-13.3-9.5-19.4
			c-1.4-2.2-2.6-3.2-5.4-1.8c-3.7,1.9-7.8,3.1-12,3.6c-2.4,0.3-2.9,1.2-2.5,3.6c1.2,7.1,1.9,14.3,0.4,21.4c-0.2,0.8,0.9,2.3-0.9,2.1
			c-1.4-0.2-0.8-1.7-0.7-2.5c0.7-6.9,0.3-13.8-0.6-20.7C585.2,348.5,584.1,348,581.7,348.2z M561.5,449.3c1.9-10.7,4.9-21.2,8-31.6
			c0.7-2.4,2.7-1.5,4.2-1.2c9.1,1.7,17.9,4.5,27.2,4.8c3.5,0.1,5.3,3.4,4.6,6.7c-2.2,9.7-4.3,19.5-6.5,29.2
			c-0.2,0.9-0.2,2.5-1.7,1.8c-4.2-2.1-9.2,0.6-13.2-2.4c-6.8-1.4-13.5-2.9-20.3-4.2C562.2,452.1,561.1,452,561.5,449.3z
			 M544.6,524.1c-0.8-3,0.8-6.6,1.5-9.9c0.4-1.8,1.1-3.6,1.6-5.4c2.1-5.7,2.3-11.8,4.5-17.5c0.6-1.5,0.7-2.9,3.1-2.4
			c10.8,2.3,21.6,4.3,32.3,6.4c1.6,0.3,2.1,0.8,1.7,2.6c-2.2,8.7-4.2,17.5-6.4,26.2c-0.6,2.4,0.8,5.7-1.8,7.1
			c-2.3,1.3-4.9-0.9-7.4-1.1c-7.4-0.6-14.6-2.2-21.7-4.3C549.4,525.1,545.2,526.5,544.6,524.1z M526.6,594.2
			c0.8-3.9,1.1-7.9,2.8-11.2c1.9-6.9,2.9-13.6,4.9-20c0.8-2.6,1.7-2.8,4.2-2.2c9.3,2,18.7,3.7,28,5.3c5.5,1,5.5,0.9,4.1,6.5
			c-2.1,8.6-3.8,17.3-5.5,25.9c-0.8,4.2-1.8,5-6.5,4.1c-10-2-20-4.6-30.2-5.8C527.2,596.6,526.2,596.2,526.6,594.2z M543.6,675.5
			c-7.2-1.8-14.5-3-21.7-4.5c-3.5-0.7-6.9-1.5-10.4-2.1c-1.7-0.3-2.1-1-1.6-2.6c1.3-5.3,2.5-10.6,3.6-15.2c2.2-5.5,2.1-10.8,4-15.7
			c0.6-1.6,0.8-2.4,3.1-2.1c7.3,0.9,14.5,2.9,21.7,4.2c3.5,0.7,7.1,0.9,10.5,2.2c1.8,0.7,1.9,1.2,1.6,3.1
			c-1.8,9.9-5.2,19.5-6.5,29.5C547.5,674.7,547,676.3,543.6,675.5z"/>
		<path class="st2" d="M245.1,645.2c-5.9-7.9-10.8-15.2-16.4-21.9c-3.4-4-3.1-8.1-2.4-12.6c1.5-8.8,3.4-17.5,4.9-26.4
			c1.1-7.1,2.4-14.3,3.7-21.5c2.5-13.6,5.2-27.2,7.8-40.8c2.4-12.7,4.1-25.6,6.7-38.3c2.4-12,3.5-24.3,6.1-36.3
			c2.3-10.4,3.7-21,5.9-31.5c2.1-10.3,3.2-20.8,5.3-31.1c1.9-9.6,3.6-19.3,5.2-29c2.2-12.8,4.5-25.7,6.7-38.5
			c2.2-12.4,4.8-24.8,7-37.3c2.5-14.4,5.2-28.7,7.7-43.1c2.6-14.8,5-29.6,7.5-44.3c0.2-1.1,0.5-2,1.8-2.6c7.8-3.4,15.5-7,24.4-11.1
			C299.6,334.8,272.4,489.7,245.1,645.2L245.1,645.2z"/>
		<path class="st2" d="M217.6,144.7c1.5,1.9,3.5,2.4,5.6,2.6c4.2,0.3,8.2,1.8,12.1,3.3c3.8,1.4,6.3,7.9,5,11.8
			c-1.4,4.3-6.4,7.4-11.1,6.1c-9.1-2.5-18.6-3.5-27.5-6.7c-4.7-1.7-9.9-1.7-14.6-3.5c-6.2-2.4-10-9.9-7.9-15.7
			c1.6-4.2,6-6.5,10.4-5.5c3.4,0.8,6.6,2.6,10.1,2.6c0.1-0.4,0.3-0.8,0.4-1.1c-3-0.9-5.9-2-9-2.7c-2.2-0.5-2.9-1.4-2.8-3.8
			c0.9-17.3,2.7-34.5,5.6-51.6c2-11.5,4.9-22.8,9.5-33.5c2.1-5,5.4-9.3,9.7-12.9c6-4.9,18.6,0.4,19.7,8.6c0.1,0.9-0.2,1.7-0.5,2.6
			c-2.7,9-7.4,17.3-9.3,26.6c1.5,0.6,1.7-0.4,1.9-1.2c1.8-7.1,6.1-13.4,7.3-20.7c1-6.2,12.1-12.6,17.3-12.2c3.9,0.3,6.2,2.7,7.9,5.9
			c6,10.8,2.2,26.5-7.1,33.7c-1.9,1.5-4.1,2.6-5.3,4.9c10.5-3.3,19.9-0.7,29.5,3.7c5.7,2.6,9.9,6.2,13.2,11.3
			c3.4,5.4,1.9,10.8-0.8,15.6c-2.3,4.1-6.9,4.7-11.4,4.3c-4.4-0.4-7.2-3.1-9.4-6.8c-3.3-5.8-7.5-10.6-14.4-12.3
			c-6.2-1.5-14.8,1.8-17.6,7.3c-2,4-1.2,8.2,0.4,12.1c4,9.6,11.6,15,21.7,16.4c7.2,1,13-2.1,16.8-8.3c1.3-2.1,2.6-4.2,4.8-5.5
			c2.5-1.5,5-2.3,7.7-0.6c2.8,1.9,3.1,4.7,2.5,7.7c-3.5,17.4-18.7,27.9-36.5,25.4c-6.3-0.9-12.1-2.9-18-5.4
			C228.9,145.4,223,146,217.6,144.7L217.6,144.7z"/>
		<path class="st3" d="M530.1,179.5c3.5-3.2,7.3-6.5,4.4-10.8c-4.7-6.8-10.4-2.2-16.3,0.6c1.3-4.7,1.8-8.6-0.8-12.2
			c-1.3-1.8-3.2-1.9-5-2.3c-4-0.8-6.1,2.6-7.8,12.4c-4.5-3.7-8.6-9.2-15.3-4.5c-4.9,3.5-0.6,7.1,0.6,11c-7-1.1-14-1.7-20.7-3.4
			c-10.8-2.9-21.8-5.3-32.5-8.9c-2.9-1-2.9-2.1-2.2-4.6c9.6-35.6,44-60.3,81.2-57.7c42.5,2.9,73.4,37.2,74.2,78.1
			c0.1,3.2-0.7,4.3-4.1,4.4C567.3,182,548.9,181.4,530.1,179.5L530.1,179.5z"/>
		<path class="st3" d="M214.8,712.9c2.8-2.1,6-1.2,8.9-0.9c14.7,1.5,27.8,7.4,40.2,14.9c6.4,3.9,12.7,8,19,11.9
			c0.7,0.5,1.6,1.8,2.4,0.2c0.5-1-0.7-1.5-1.3-1.9c-4.6-3-9.1-6.1-13.9-8.7c-3.2-1.8-2.8-4.1-1.8-6.5c1.1-2.6,3.1-0.4,4.4,0
			c6.2,1.7,12.3,3.7,18.5,5.6c0.6-2.4-0.7-2.4-1.6-2.6c-11.5-3.2-22.7-7.5-34.5-9.2c-5-0.7-9.4-8.5-8.1-13.6
			c1.4-5.3,7.7-8.4,13.2-6.2c2.1,0.8,4.1,2.1,6,3.4c10.2,7.6,21.7,10.4,34.2,9.5c3.6-0.3,7.2-0.5,10.8,0c5.8,0.7,8.8,5.5,6.5,10.9
			c-1,2.4-2.5,4.7-4.6,6.2c-3.1,2.1-4,4.9-4.3,8.4c-0.5,5.7-1.4,11.5-2,17.2c-0.7,6.6-3.8,10-10.4,11.3c-5.6,1.1-11.2,0.3-16.8-0.6
			c-16.4-2.5-32.9-4.8-48.5-10.7c-7.7-3-15.2-6.3-21.8-11.3c-2.3-1.7-4.6-3.6-6.3-5.8c-2.7-3.5-6.1-7.1-4.1-11.9
			C201,716.8,209.1,712.5,214.8,712.9c-0.4,1.7-2.2,1.7-3.3,2.5c-4.3,2.9-7.8,6.4-8.9,11.7c-0.3,1.7,0,3.3,2.1,3.6
			c1.7,0.3,2.6-0.8,3-2.4c0.9-4.5,4.1-7.1,7.9-9.2c1.5-0.8,3.4-1.3,3.2-3.5C218.5,713.2,216.1,713.9,214.8,712.9L214.8,712.9z"/>
		<path class="st3" d="M560.5,815.7c5.3,2.8,10,12.8,8.2,18c-1.1,3.3-4.2,4.7-7.2,5.8c-8.4,3.2-17,2.5-25.6,1.2
			c-17.9-2.8-34.3-9.9-50.4-17.9c-5.2-2.6-10.5-4.8-15.3-8c-3-2-5.8-4.3-7.5-7.7c-1.6-3.2-2.1-6.4-0.1-9.8c3.4-6,6.3-12.3,9.6-18.4
			c1.1-2.1,1.5-4.1,0.7-6.5c-1-3-1.3-6.2-0.4-9.4c1.5-5.6,6.4-7.8,11.4-4.8c4.4,2.7,8.6,5.8,12.8,8.9c8.1,5.9,17.2,8.7,27.1,8.8
			c2.9,0,5.8,0,8.6,0.4c5.4,0.8,8.6,5,8.4,10.4c-0.1,4.5-4.1,8.6-9,9c-5.4,0.5-10.3-0.7-15.1-3.4c-8.2-4.7-17.6-6.1-26.7-8.4
			c1.9,2.3,4.6,2.6,7,3.4c4,1.3,8,2.4,12,3.8c1.1,0.4,3.6,0.1,2.6,2.4c-0.8,1.6-0.5,4.5-3.9,4.3c-5.6-0.4-11.2-0.5-16.8-0.7
			c-1.1,0-2.2-0.2-3.1,0.6c0.3,1.8,1.5,1.3,2.4,1.4c12.5,0.7,25.1,0.2,37.5,2.7c10.2,2,20.3,4.6,29.1,10.5
			C558.2,812.9,560.3,813.4,560.5,815.7c-1.5-0.1-3.1-1.4-4.4,0.2c-1.4,1.7-0.1,3.2,0.6,4.7c1.9,3.8,3.1,7.8,1.3,12.1
			c-0.7,1.8-0.4,3.3,1.4,3.9c1.9,0.6,2.9-0.7,3.5-2.3c1.2-2.9,1.2-5.9,0.9-8.9C563.4,821.8,561.1,819.1,560.5,815.7L560.5,815.7z"/>
		<path class="st2" d="M804.6,314.3c-10.4,2.9-19.8,0.9-28.8-4.4c4.4,3.2,8.4,6.8,14.1,7.1c5.1,0.3,6,1.8,3.5,6.2
			c-2.6,4.7-6.9,6.4-12,6c-6.4-0.5-12.3-2.5-17.9-5.7c-9.1-5.2-18.2-10.6-25.4-18.5c-7.5-8.2-5.9-15.8,4-21c2.1-1.1,3.2-0.7,4.6,1.1
			c3.3,4.4,7.3,8.1,12,11c1.3,0.8,2.6,1.6,4.9,1.8c-1.3-1.1-2-2-2.9-2.6c-12-7.4-18.6-19.1-24.6-31.1c-5.5-11-1.9-20,9.2-25.3
			c11.4-5.5,23.3-9.3,35.7-11.6c4.1-0.7,7.8-0.4,11.8,0.8c8.8,2.6,10.4,10.9,4.5,17.5c-4.3,4.8-10,7.8-15.8,10.5
			c-4.7,2.2-9.6,4-14.4,5.9c-4.4,1.7-4.6,2.2-1.5,5.9c12.1,14.3,24.2,28.6,36.3,43C802.8,312,803.6,313.1,804.6,314.3L804.6,314.3z"
			/>
		<path class="st3" d="M431.9,177.1c12.9,5,25.8,8.7,38.8,12c6.8,1.7,13.7,3.1,20.6,4.7c1.3,0.3,3,0.4,1.5,2.7
			c-3,4.8-2.1,10.2,1.5,11.9c3.8,1.8,9.2-1.1,11.5-6c0.6-1.2,0.4-2.8,2-4c0.8,2.6,1.3,5,2.2,7.1c1.8,4.5,5.2,6.7,8.5,5.8
			c3.3-0.8,5.2-4.4,4.8-9.1c-0.1-1.1-0.2-2.3-0.4-3.8c20.6,2.6,40.9,2,61.3,0.2c1.7-0.1,3.2-0.2,2,2.1c-2.2,4.5,1.2,5.5,4,6.4
			c4.4,1.4,8.1,3.8,11.4,6.8c3.1,2.9,2.7,5.1-1.1,7c-4.3,2.2-9.1,2.8-13.8,3.3c-20.8,2-41.4,0.3-62.1-2.1
			c-14.1-1.7-28.1-3.9-42.1-6.6c-15.3-3-30.4-7.2-45.4-11.6c-8.4-2.5-16.3-6.1-23.5-11.1c-2-1.4-4.4-3.1-3.8-5.8
			c0.5-2.5,3.2-3.1,5.4-3.9c4.1-1.5,8.4-2.1,12.7-2.4C430.4,180.5,432.4,180.3,431.9,177.1L431.9,177.1z"/>
		<path class="st2" d="M505.6,180.8c-3.2-2.6-7.6-2.7-10.5-5.8c-1.6-1.6-3.6-2.9-4.7-5c-1-1.9-1.5-3.8,0-5.7
			c1.5-1.8,3.5-1.8,5.5-1.1c4.4,1.5,6.9,5,9.2,8.8c1.2,1.9,2.3,3.9,3.4,6c1.8-1,0.4-2.2,0.2-3.3c-1.2-4.5-2.4-9-1-13.6
			c0.8-2.6,2.2-4.9,5.4-4.5c2.9,0.4,4,2.8,4.3,5.3c0.5,4.5-1.3,8.5-3.2,12.3c-0.7,1.4-1.4,2.6-1.3,4.6c1.8-0.5,2.3-1.9,3.1-2.9
			c2.7-3.4,5.6-6.6,9.9-8.1c2.7-0.9,5.6-1.1,7.2,1.9c1.5,2.8-0.2,5-2.3,6.7c-3,2.5-6.6,3.5-10.3,4.1c-1.6,0.3-3.3,0.5-5.4,0.8
			c2.4,2.2,5.1,1.8,7.2,1.7c4.4-0.2,7.6,2,11,4c2,1.2,3.2,3.4,2.1,6c-1,2.5-3.3,2.7-5.5,2.5c-5-0.5-8.6-3.5-12.1-6.8
			c-1.2-1.1-2-2.7-3.9-3.1c-0.7,2.1,1,2.8,1.7,3.8c2.8,3.9,5.4,7.9,5.9,12.8c0.3,3,0.1,6.1-3.3,7.2c-3.7,1.1-5.1-2-6.3-4.6
			c-2-4.6-2.1-9.5-1.5-14.5c0.1-0.9,0.7-2.3-0.6-2.6c-1.6-0.4-1.8,1.5-1.8,2.3c0.2,4.1-1.6,7.4-3.4,10.8c-0.1,0.2-0.2,0.6-0.3,0.8
			c-2,3.9-6.4,6.4-9,5c-2.6-1.4-2.9-5.4-0.3-9.7c2.3-3.9,5.7-6.8,9.3-9.5c0.8-0.6,2.8-0.9,2-2.3c-1-1.6-2.2,0.2-3.2,0.7
			c-3.2,1.7-6.5,3-10,4.1c-3.1,1-5.8-0.7-8.8-0.7c-1.8,0-2.3-4.4-0.7-6c4.8-4.8,10.7-4,16.6-3.4
			C501.8,180.2,503.5,181.5,505.6,180.8L505.6,180.8z"/>
		<path class="st2" d="M831.6,263.3c-3.9,2.6-7.8,5.2-11.7,7.7c-3.8,2.4-7.9,4.3-12.3,5.1c-6.5,1.1-10.4-2.6-9.2-9.2
			c1.2-6.9,4.8-12.6,9.4-17.7c4.1-4.5,8.8-8.3,13.7-11.8c6-4.4,13.3-3.6,18.6,1.7c5.6,5.6,6.6,16.2,2.7,23.2
			c-1.9,3.4-3.1,7.1-5.6,10.1c-1.4,1.7-2.5,2.3-3.8,0.1c-0.1-0.1-0.2-0.2-0.3-0.3C831,269.6,827,267.3,831.6,263.3L831.6,263.3z"/>
		<path class="st2" d="M567.8,838.3c-1.4,7.8-6.5,10.8-12.5,12.6c-6.5,2-13.1,1.5-19.6,0.6c-16.4-2.1-31.7-7.5-46.5-14.7
			c-7.3-3.6-14.8-6.8-21.8-11.1c-5.6-3.4-9.9-7.8-10-15.1c0-2.1,0.7-3.7,1.5-5.7c3.3,7.5,9.4,11.6,16.1,14.9
			c7.8,3.9,15.7,7.6,23.7,11.2c14.4,6.5,29.3,11.1,45.2,12.4C552,844.1,560,843.4,567.8,838.3L567.8,838.3z"/>
		<path class="st2" d="M196.1,727.3c6.8,13.9,19,20,32,25c14.3,5.5,29,8.8,44.3,10.4c5.8,0.6,11.6,2.1,17.5,2.4
			c5,0.2,9.8-0.5,14-3.6c0.3,5.8-3.5,10.4-9.9,11.8c-5.4,1.2-10.9,0.6-16.3-0.2c-10.5-1.7-21.2-2.8-31.5-5.4
			c-15.4-3.8-30.6-8.6-43-19.3c-5.2-4.5-8.7-9.9-8.5-17.2C194.7,730,194.8,728.9,196.1,727.3L196.1,727.3z"/>
		<path class="st2" d="M857.2,322.5c-3.4,11-15.4,17.6-26.7,13.7c-4.4-1.5-7.8-4.6-11.2-7.8c-1.4-1.3-0.8-2,0.3-3
			c9.9-9.3,19.7-18.6,29.6-27.9c1.2-1.1,1.9-1.3,3,0.2C857.1,305,860.9,312.4,857.2,322.5L857.2,322.5z"/>
		<path class="st2" d="M796.2,269.9c-6-1.1-11.4-2.8-14.9-7.9c-1.3-1.8-1.4-3,1.1-4.2c4.8-2.1,9.1-4.9,13.3-8c3.9-3,6-6.9,7-11.5
			c0.8-3.7-2.4-9.2-6.9-10.8c-2.9-1-3.1-1.7-0.7-3.8c2.4-2,3.7-5.1,6.7-6.6c9.6-4.8,17.7-1.4,21.2,8.8c2.2,6.5,2.1,6.3-3.2,10.4
			c-4,3.1-7.8,6.3-11.5,9.8C801.5,252.6,796.9,260.2,796.2,269.9L796.2,269.9z"/>
		<path class="st2" d="M743.8,180.4l-15.1-4.7c1.3,5.3,2.5,10.1,3.8,15.5l-14.7-4.6c-0.2,4.7,1.4,8.8,1.6,13.6
			c-3.5-1.1-6.6-2.1-9.7-3c-1.2-0.4-1.8-1-2-2.4c-1.3-7.1-2.6-14.1-4.1-21.2c-0.4-1.8-0.2-2.4,2-2.5c7.7-0.2,10.2-2.7,11.4-10.4
			c0.3-1.7,1.1-2.1,2.6-1.5c7,2.5,14,5,21,7.5c1,0.3,1.3,1.1,1.5,1.9C742.7,172.3,743.2,176,743.8,180.4z"/>
		<path class="st3" d="M589.3,183.6c-0.4,2.7-1.1,5.2-1,7.8c0.2,4.4-2.1,4.9-5.8,5.2c-14.6,1.1-29.2,1.8-43.8,1
			c-1.5-0.1-2.9,0-4.1-0.9c2.6-1.5,3.6-4,2.9-6.6c-1.4-5.5-6.1-7.2-11-8.6C547.2,183.6,568,184.4,589.3,183.6z"/>
		<path class="st3" d="M494.9,176.9c-14.4,2.4-15.9,6.4-14.2,12.1c-15.3-2.8-30-8.1-44.8-12.7c-3.1-1-4-2.5-3.6-5.6
			c0.9-8.5,0.9-8.7,9.1-5.9C458.4,170.6,476.1,173.9,494.9,176.9L494.9,176.9z"/>
		<path class="st2" d="M774.4,262.1c2.2-1.5,3.7-2.3,4.8,0.6c0.8,2.2,2.5,4.1,4.7,4.9c7.4,2.4,13.5,7.4,20.3,10.8
			c1.1,0.5,1.9,1.2,2.6,2.1c6.2,7.2,12.2,14.5,18.6,21.6c2,2.2,1.6,3.3-0.4,5.1c-6.6,6-6.5,6.1-12.5-0.8
			C799.8,291.7,787.2,277,774.4,262.1L774.4,262.1z"/>
		<path class="st2" d="M763.1,229.5c-4.4,1.5-9.1,4.8-12.6,3.9c-3.6-0.9-6.1-6.1-9-9.4c-5-5.8-9.6-11.9-15-17.2
			c-4.9-4.8-5.6-10.6-6.3-17c7.3,2.3,13.7,5,18.5,11.1C746.5,210.7,754.9,219.9,763.1,229.5L763.1,229.5z"/>
		<path class="st2" d="M763.6,225.9c-9.1-10.6-17.7-20.6-26.3-30.7c-4-4.6-3.5-10.7-5.6-16.2c7.7,1.3,13.8,4,18.3,10.4
			c5.3,7.3,11.5,14,17.4,20.8c1.6,1.8,2.3,3.3,0.6,5.5C765.9,218.7,764.3,221.8,763.6,225.9z"/>
		<path class="st2" d="M766,223.8c3.4-6.9,7.2-13.6,12.8-18.7c3.6-3.2,8.8-3.5,13.5-1.4c3.4,1.5,6.6,7.6,6.5,11.6
			c0,1.2-0.7,1.8-1.4,2.5c-3.8,4.6-7.7,8.2-14.5,7.7c-4.1-0.3-8.4,1.6-12.7,2.4c-1.5,0.3-3.2,2-4.7,0.4
			C764.3,226.9,766.2,225.4,766,223.8z"/>
		<path class="st2" d="M766.2,265.1c3.7-2.9,6.1-1.7,8.9,1.6c12.9,15.4,26.1,30.6,39.3,45.8c2.1,2.4,1.5,3.4-0.4,5.3
			c-2.4,2.3-3.2,0.2-4.2-1.1C795.1,299.5,780.6,282.2,766.2,265.1L766.2,265.1z"/>
		<path class="st2" d="M808.6,278.5c2.7-1,5.4-1.4,7.4-2.9c3.5-2.5,5.5-1.4,7.9,1.7c4,5.2,8.4,10.2,12.7,15.2c1.4,1.6,1.6,2.4-0.1,4
			c-6.8,6.6-6.7,6.6-12.8-0.5C818.6,290.2,813.6,284.3,808.6,278.5z"/>
		<path class="st2" d="M711.5,200.4c6.2,0.5,10.1,4.1,13.8,8.6c7.1,8.8,14.7,17.2,22.2,25.9c-2.8,3-4.9,2.7-7.4-0.5
			C730.7,223,721.1,211.8,711.5,200.4L711.5,200.4z"/>
		<path class="st2" d="M745.5,171.5c8.4,11.3,18,21.6,27,32.4c1.6,2,1.6,3.2,0,5.1c-1.3,1.6-1.9,1.2-2.9,0
			c-7.5-8.9-15.1-17.8-22.4-26.8c-2.4-3-2.5-6.8-1.7-10.6L745.5,171.5L745.5,171.5z"/>
		<path class="st2" d="M700.1,152.9c4.2,1.3,8.1,2.7,12.1,3.7c3.3,0.8,3.4,2.9,2.8,5.5c-0.8,3.2-2.7,5.3-5.8,6.4
			c-4.4,1.5-6.1,0.5-7-4C701.6,160.7,700.8,156.8,700.1,152.9z"/>
		<path class="st2" d="M827.7,269.3c0.5,0.6,1.1,1.2,1.6,1.9c4.4,5.2,8.6,10.4,13.1,15.4c2,2.2,1,3.2-0.6,4.8
			c-2.3,2.3-2.9-0.2-3.8-1.2c-4.6-5.3-9.1-10.7-13.6-16.2c-0.6-0.7-2.3-1.5-0.7-2.7C824.9,270.5,826,269.5,827.7,269.3L827.7,269.3z
			"/>
		<path class="st2" d="M745.6,171.6l-0.2,0L745.6,171.6L745.6,171.6z"/>
		<path class="st1" d="M472.6,263.7c0.8-36.1-25.1-58.8-56.2-61c-26.7-1.8-55.4,15.5-61.4,49.9c-1.3,7.5-1,15,0.7,22.4
			c1.5,6.8,4.4,13,7.8,19c-10.6,2.1-20.4,5.1-28.9,11.6c-0.8,0.6-2.8,0.6-1.8,2.1c1,1.5,2.2,0.2,3.2-0.7c6.5-5.4,14.3-7.9,22.2-10.1
			c4.3-1.2,7.5-1,10.1,3.2c1.6,2.6,4.1,4.8,6.5,6.9c1.8,1.5,1.4,2.2-0.2,3.4c-7.6,5.4-13.5,12.4-19.1,19.8c-0.4,0.6-1.3,1-0.6,1.7
			c0.8,0.9,1.7,0.2,2.2-0.4c0.8-0.8,1.4-1.8,2.1-2.7c4.8-6.6,10.4-12.3,17-17.1c1.2-0.8,2.2-2,3.8-0.8c4.3,3.1,9.1,5.2,14,7.3
			c-6.8,11.8-10.6,23-10.1,29.6c1.6-1.6,1.7-1.6,2-3.2c1.3-7.9,4.5-15.1,8-22.3c1.5-3,3.1-4,6.2-2.4c2.6,1.3,5.6,1,8.4,1.2
			C441.1,323.9,471.8,299.2,472.6,263.7z M404.1,280.2c0.1,13.4,2.1,26.3,7.2,39.1c-25.5-1.8-42.9-14.5-51.5-37.8
			c-8.3-22.6-3.8-43.4,13.7-60.4c15-14.7,33.1-19.2,54.3-14.9c-5.2,6.9-9.3,13.5-12.5,20.7c-2.4,5.3-4.8,10.6-6.6,16.2
			c-0.7,2.2,0.7,2.8,2,3.6c9.7,5.8,19.4,11.5,29.1,17.3c1.1,0.7,2.2,1.4,3.9,2.4c-12.4,3.2-23.9,6.2-35.6,9
			C405.2,276.1,404.1,277,404.1,280.2z"/>
		<path class="st1" d="M622.7,328.9c10.2-11.4,15-24.7,15.4-39.5c0.5-22.6-12.4-44.8-35.5-54.7c-22.7-9.7-49.1-6.2-68.8,15.6
			c-5.1,5.7-8.6,12.6-11.7,19.2c-2.2,4.6-2.3,10.9-2.4,16.6c-0.3,16.4,4.3,31,15.8,43.1c12.5,13.3,28,19.8,46.3,19
			c2.5-0.1,3.5,0.4,3.8,3c1,6.9,1.3,13.7,0.6,20.7c-0.1,0.8-0.7,2.3,0.7,2.5c1.8,0.2,0.8-1.3,0.9-2.1c1.5-7.2,0.8-14.3-0.4-21.4
			c-0.4-2.4,0.1-3.3,2.5-3.6c4.2-0.5,8.3-1.7,12-3.6c2.8-1.5,4-0.5,5.4,1.8c3.9,6.1,7.1,12.5,9.5,19.4c0.4,1.2,0.1,3,2.3,3.3
			c0.8-1.7-0.1-3.1-0.6-4.5c-2.3-7.2-5.7-13.9-10-20.1c-0.8-1.2-2-2.2,0.2-3.4c4.2-2.3,8-5.2,11.4-8.6c0.8-0.8,1.5-1.2,2.7-0.5
			c8.6,4.5,16.5,9.8,22.2,18c0.5,0.7,0.7,1.9,2.9,1.5C641.9,340.1,632.4,334.5,622.7,328.9z M591.3,297.9
			c-5.4,1.4-10.8,3.2-16.4,4.1c-4.9,0.7-5.9,3-5.5,7.5c0.5,6.2,0.8,12.3,1.9,18.5c1.1,6.1,2.8,12.1,5.1,17.8
			c-18.2,1.7-39.4-11.9-49.2-31.7c-9.7-19.5-7.4-45.4,9.1-63.6c14.6-16.1,39.5-22.6,56.5-16.7c-5,6.7-9.3,13.8-12.8,21.4
			c-2.4,5.2-3.5,10.6-5.5,15.8c-0.8,2,1,2.4,2.2,3.1c10.6,6.3,21.1,12.7,32.4,19.4C602.6,294.9,597,296.4,591.3,297.9z"/>
		<path class="st1" d="M516.9,324c0.4-1.8,0.1-2.7-2.1-2.1c-16.1,3.9-30.5-0.1-44-10.3c-4.8,14.9-8.5,29.6-8.7,45
			c-0.1,8.5-0.1,17,3.1,25.1c5.1,12.9,19.9,15.9,29.1,5.5c5.2-6,8.1-13.1,11.2-20C511.5,353.5,513.8,338.6,516.9,324z M490.9,323.6
			c2.2,0.8,4.7,0.9,7.1,1.2c1.9,0.2,2.3,1,1.8,2.8c-2.2,8.6-4.2,17.3-5.5,26.1c-0.4,2.4-1.3,3.1-3.7,2.4c-2.7-0.8-5.3-1.9-8.2-1.9
			c-2.2,0-3.5-0.7-2.8-3.7c1.8-7.7,3.1-15.6,4.9-25.1C484.1,321.5,487.2,322.3,490.9,323.6z M465.7,340.2c1.2-6.3,1.9-12.7,3.8-18.3
			c1.4-4.5,4-5.7,7.9-3.5c6.4,3.6,6.1,3.5,4.5,10.5c-1.7,7.3-2.8,14.8-4.7,22.2c-0.3,1.3-0.2,1.8-1.5,1.4c-0.3-0.1-0.6-0.2-0.8-0.2
			C464.1,351.2,463.8,350.8,465.7,340.2z M465.3,376c-1.8-7.4-1.5-14.8-1.3-22.3c0.1-2.3,2-1.4,2.5-1.3c2.8,0.6,5.5,1.6,8.3,2.4
			c1.7,0.4,1.2,1.4,1.1,2.6c-1.1,8.2-3.1,16.1-4.8,24.1c-0.3,1.4-0.3,2.8-0.6,5.2C467.5,383.1,466.2,379.7,465.3,376z M484.7,391.4
			c-4.4,1.1-8.5,0.4-11.7-2.6c-2.6-2.4-0.5-5.5,0.4-8.5c1.5-7.5,3-15.2,4.4-22.9c0.3-1.5,0.3-2.4,2.3-1.9c3.3,0.9,6.6,1.6,10,2.2
			c2.7,0.4,3.3,1.5,2.5,4.1c-2.5,8.9-4.3,18-5.9,27.2C486.5,390.2,486.1,391.1,484.7,391.4z M503.1,368.7
			c-2.4,5.9-5.3,11.5-9.5,16.3c-1.4,1.6-2.7,3.3-5.8,4.4c3.3-9.7,4.1-19.1,6.7-28.1c0.5-1.9,1.1-2.5,3.2-2.1
			C505.4,360.8,506,361.6,503.1,368.7z M502.4,358.9c-7.3-1.8-7.6-1.8-5.6-10.4c1.5-6.4,3-12.8,4.1-19.3c0.5-2.9,1.8-4.6,5.1-4.1
			c2.9,0.4,8.2-1.6,8.4-0.4c0.4,3.8-1.1,7.8-1.8,11.7c-1.4,6.6-3,13.1-4.9,19.5C506.8,359,505.2,359.5,502.4,358.9z"/>
		<path class="st1" d="M486.5,646.9c-61.5-12.1-123-24.1-184.4-36.2c0.1-0.6,0.1-1.2,0.2-1.8c61.5,12.1,123,24.2,184.5,36.3
			C486.7,645.8,486.6,646.4,486.5,646.9z"/>
		<path class="st1" d="M497.9,575.2c-11-1.9-21.4-4.7-32-6.8c-10.5-2-20.9-4.3-31.3-6.4c-14.8-2.9-29.6-6.1-44.3-9.3
			c-13.6-2.9-27.3-6-40.9-8.9c-11-2.3-22-4.4-33-6.7c-0.8-0.2-1.6-0.6-2.3-1.3c2.6-1,5.4-0.3,7.8,0.4c8.3,2.2,16.6,3.8,25.1,5.1
			c4.5,0.7,8.8,2.3,13.3,3.2c16.9,3.5,33.7,7.4,50.5,10.9c16.1,3.4,32.4,6.3,48.5,9.9c11,2.5,22.3,4,33.1,7.4
			C494.2,573.4,496.8,571.9,497.9,575.2z"/>
		<path class="st1" d="M532.4,432.1c-3.5,0.2-6.8-1.5-10.2-2c-8-1.3-15.9-3.6-23.9-5.2c-12.7-2.5-25.3-5.8-38-8.6
			c-9.6-2.1-19.3-3.9-28.8-6.5c-11.4-3.2-23.1-5.1-34.7-7.5c-4.6-1-9.2-2.4-13.7-3.6c-11.7-3.1-23.9-4-35.4-7.9
			c-0.9-0.3-2-0.3-3.3-2.5c63.5,14.3,125.9,28.4,188.3,42.5C532.7,431.2,532.6,431.7,532.4,432.1z"/>
		<path class="st1" d="M519.3,504.6c-4.3,1-8-1-11.7-1.7c-12.1-2.1-24.3-4.5-36.2-7.6c-7.9-2-15.9-3.3-23.8-5.3
			c-10.2-2.6-20.7-3.8-30.9-6.3c-7.6-1.9-15.4-3.3-23-5c-11.5-2.6-23.2-4.7-34.7-7.4c-9.1-2.2-18.5-3.1-27.1-7.1
			c3.9-0.5,7.6,0.8,11.1,1.7c11.8,3.2,23.8,5.1,35.6,8c13.6,3.3,27.5,5.7,41.3,8.6c11.1,2.4,22.1,5,33.1,7.4
			c11.8,2.5,23.7,4.9,35.5,7.4c7.9,1.7,15.8,3.5,23.6,5.6C514.3,503.3,516.9,502.2,519.3,504.6z"/>
		<path class="st1" d="M547.9,672.2c1.3-10,4.7-19.6,6.5-29.5c0.3-1.8,0.2-2.4-1.6-3.1c-3.4-1.3-7-1.5-10.5-2.2
			c-7.2-1.4-14.4-3.3-21.7-4.2c-2.3-0.3-2.5,0.5-3.1,2.1c-2,4.9-1.8,10.2-4,15.7c-1.1,4.6-2.3,9.9-3.6,15.2
			c-0.4,1.6-0.1,2.3,1.6,2.6c3.5,0.6,7,1.4,10.4,2.1c7.2,1.5,14.5,2.7,21.7,4.5C547,676.3,547.5,674.7,547.9,672.2z M541.1,673.2
			c-6.3-2-12.9-2.1-19.2-3.9c-2.7-0.8-5.5-1.2-8.3-1.7c-1.4-0.3-1.9-0.9-1.5-2.4c2-8.3,3.9-16.7,5.7-25c1.4-1.8,0.5-5,2.6-5.7
			c1.6-0.5,3.8,1,5.7,1.4c8.1,1.7,16.2,3.3,24.4,4.8c2,0.4,2.4,0.9,1.9,3.1c-1.8,8.2-4.4,16.2-5.2,24.5
			C546.7,672.2,545.2,674.5,541.1,673.2z"/>
		<path class="st1" d="M599.1,457.3c2.2-9.7,4.2-19.5,6.5-29.2c0.8-3.4-1-6.6-4.6-6.7c-9.3-0.4-18.2-3.2-27.2-4.8
			c-1.5-0.3-3.5-1.2-4.2,1.2c-3.1,10.4-6.1,20.8-8,31.6c-0.5,2.7,0.6,2.8,2.5,3.2c6.7,1.4,13.4,2.8,20.3,4.2c3.9,3,8.9,0.3,13.2,2.4
			C598.9,459.9,598.9,458.2,599.1,457.3z M595.4,456.9c-8.2-1.6-16.5-3.3-24.7-5c-0.7-0.1-1.3-0.6-2-0.7c-6.1-1-6.6-1.4-4.3-7.3
			c2.9-7.6,3.5-15.7,6.2-23.3c0.5-1.5,0.8-2.7,2.8-2.3c8.8,1.8,17.6,3.3,26.3,5.3c5.4,1.2,5.3,1.5,3.3,6.9c-1.4,3.8-2,7.8-2.5,11.6
			c-0.6,4.9-2.9,9.3-3.4,14.2C597,458.1,595.9,457,595.4,456.9z"/>
		<path class="st1" d="M565.2,598.4c1.7-8.7,3.5-17.3,5.5-25.9c1.3-5.5,1.4-5.5-4.1-6.5c-9.4-1.6-18.7-3.3-28-5.3
			c-2.5-0.5-3.3-0.4-4.2,2.2c-2.1,6.5-3.1,13.2-4.9,20c-1.7,3.3-2,7.3-2.8,11.2c-0.4,1.9,0.6,2.4,1.9,2.5
			c10.2,1.1,20.1,3.7,30.2,5.8C563.4,603.5,564.4,602.7,565.2,598.4z M559.1,600.9c-8.7-2.1-17.5-3.8-26.3-5.5
			c-3.2-0.6-4.6-1.7-3.4-5.4c0.8-2.4,0.9-5,2.2-8.6c0.3-4.8,2.4-10.5,4-16.2c0.5-2,0.9-2.8,3.6-2.5c9.2,1.2,18,3.9,27.2,5
			c2.8,0.3,3.3,1.5,2.6,4.6c-1.8,8.5-4.7,16.7-5.6,25.4C563.2,600.4,562.4,601.7,559.1,600.9z"/>
		<path class="st1" d="M582.9,524.1c2.2-8.7,4.2-17.5,6.4-26.2c0.5-1.8-0.1-2.3-1.7-2.6c-10.8-2.1-21.6-4.1-32.3-6.4
			c-2.4-0.5-2.5,0.9-3.1,2.4c-2.2,5.7-2.4,11.8-4.5,17.5c-0.6,1.8-1.2,3.5-1.6,5.4c-0.7,3.3-2.3,6.9-1.5,9.9c0.6,2.4,4.8,1,7.4,1.8
			c7.1,2,14.3,3.6,21.7,4.3c2.5,0.2,5.1,2.4,7.4,1.1C583.7,529.8,582.3,526.5,582.9,524.1z M576.7,529.3c-9.2-2.3-18.6-3.5-27.9-5.3
			c-1.2-0.2-3-0.1-2.4-2.5c1-4,1.2-8.2,2.9-12c2.3-5.2,2.1-11,4.1-16.3c0.8-2.2,1.5-2.5,3.7-2c9.1,1.8,18.2,3.3,27.3,5
			c2.4,0.4,3.2,1.4,2.5,4.1c-2.1,8.4-3.8,16.9-5.6,25.4C580.9,528.1,581,530.4,576.7,529.3z"/>
		<path class="st1" d="M509.6,304.4c-1.4,4.3-4.6,4.8-8.1,5c-5.5,0.3-12.6-1.4-17.8-4.1c1.1-2,2.6-0.5,3.7-0.2
			c4.6,1.4,9.2,2.5,14,2.4c3,0,6-0.7,7-3.9c1.1-3.2-0.6-5.9-3.2-7.9c-4.1-3.2-9-4.5-14-5.3c-2.3-0.4-3.2-1.4-2.7-3.2
			c1.1-3.8,2.3-7.6,2.6-11.6c0.4,0.1,0.8,0.2,1.3,0.3c-0.2,1.9-0.1,3.8-0.5,5.7c-1.2,6.4-1.2,6.4,5.2,8.3c3.3,1,6.6,2.2,9.3,4.4
			C509.9,296.9,511.2,299.9,509.6,304.4z"/>
		<path class="st2" d="M214.8,712.9c1.3,0.9,3.7,0.3,3.9,2.7c0.2,2.2-1.7,2.7-3.2,3.5c-3.7,2.1-7,4.7-7.9,9.2
			c-0.3,1.7-1.2,2.7-3,2.4c-2-0.3-2.4-1.9-2.1-3.6c1-5.3,4.5-8.8,8.9-11.7C212.7,714.7,214.4,714.7,214.8,712.9L214.8,712.9
			L214.8,712.9z"/>
		<path class="st2" d="M560.5,815.7c0.7,3.4,2.9,6.1,3.3,9.6c0.3,3.1,0.3,6-0.9,8.9c-0.7,1.6-1.7,3-3.5,2.3
			c-1.8-0.6-2.1-2.1-1.4-3.9c1.8-4.2,0.6-8.2-1.3-12.1c-0.8-1.5-2.1-3-0.6-4.7C557.4,814.3,559,815.6,560.5,815.7L560.5,815.7
			L560.5,815.7z"/>
		<path class="st2" d="M443.6,266.4c-12.4,3.2-23.9,6.2-35.6,9c-2.8,0.7-3.9,1.6-3.9,4.8c0.1,13.4,2.1,26.3,7.2,39.1
			c-25.5-1.8-43-14.5-51.5-37.8c-8.3-22.6-3.8-43.4,13.7-60.4c15-14.7,33.1-19.2,54.3-14.9c-5.2,6.9-9.3,13.5-12.5,20.7
			c-2.4,5.3-4.8,10.6-6.6,16.2c-0.7,2.2,0.7,2.8,2,3.6c9.7,5.8,19.4,11.5,29.1,17.3C440.8,264.6,441.9,265.3,443.6,266.4
			L443.6,266.4z"/>
		<path class="st2" d="M609,293.3c-6.3,1.6-12,3.1-17.7,4.6c-5.4,1.4-10.8,3.2-16.4,4.1c-4.9,0.7-5.9,3-5.5,7.4
			c0.5,6.2,0.8,12.3,1.9,18.5c1.1,6.1,2.8,12.1,5.1,17.8c-18.2,1.7-39.4-11.9-49.2-31.7c-9.7-19.5-7.4-45.4,9.1-63.6
			c14.6-16.1,39.5-22.6,56.4-16.7c-5,6.7-9.3,13.8-12.8,21.4c-2.4,5.2-3.5,10.6-5.5,15.8c-0.8,2,1,2.4,2.2,3.1
			C587.2,280.2,597.7,286.6,609,293.3L609,293.3z"/>
		<path class="st2" d="M473.4,380.3c1.4-7.5,3-15.2,4.4-22.9c0.3-1.5,0.3-2.4,2.3-1.9c3.3,0.9,6.6,1.6,10,2.2
			c2.7,0.4,3.3,1.5,2.5,4.1c-2.5,8.9-4.3,18-5.9,27.2c-0.2,1.3-0.7,2.1-2,2.5c-4.4,1.1-8.5,0.4-11.7-2.6
			C470.4,386.3,472.4,383.3,473.4,380.3L473.4,380.3z"/>
		<path class="st2" d="M484.4,325.4c-0.3-4,2.8-3.2,6.6-1.9c2.2,0.8,4.7,0.9,7.1,1.2c1.9,0.2,2.3,1,1.8,2.8
			c-2.2,8.6-4.2,17.3-5.5,26.1c-0.4,2.4-1.3,3.1-3.7,2.4c-2.7-0.8-5.3-1.9-8.2-1.9c-2.2,0-3.5-0.7-2.8-3.7
			C481.3,342.8,482.6,335,484.4,325.4L484.4,325.4z"/>
		<path class="st2" d="M469.6,321.8c1.4-4.5,4.1-5.7,7.9-3.5c6.3,3.6,6.1,3.5,4.5,10.5c-1.7,7.4-2.8,14.8-4.7,22.2
			c-0.3,1.3-0.2,1.8-1.5,1.4c-0.3-0.1-0.6-0.2-0.8-0.2c-10.9-1-11.2-1.4-9.3-12C466.9,333.9,467.6,327.5,469.6,321.8L469.6,321.8z"
			/>
		<path class="st2" d="M512.6,336.3c-1.4,6.6-3,13.1-4.9,19.5c-0.9,3.1-2.5,3.7-5.3,3c-7.3-1.8-7.6-1.8-5.6-10.4
			c1.5-6.4,3-12.8,4.1-19.3c0.5-2.9,1.8-4.5,5.1-4.1c2.9,0.4,8.2-1.6,8.4-0.4C514.8,328.5,513.3,332.4,512.6,336.3L512.6,336.3z"/>
		<path class="st2" d="M470.5,386.7c-3-3.6-4.2-7-5.1-10.6c-1.8-7.4-1.5-14.8-1.3-22.3c0.1-2.3,2-1.4,2.5-1.3
			c2.8,0.6,5.5,1.6,8.3,2.4c1.7,0.4,1.2,1.4,1.1,2.6c-1.1,8.2-3.1,16.1-4.8,24.1C470.8,382.9,470.7,384.3,470.5,386.7z"/>
		<path class="st2" d="M487.8,389.4c3.3-9.7,4.1-19.1,6.7-28.1c0.5-1.9,1.1-2.5,3.2-2.1c7.7,1.6,8.3,2.3,5.4,9.5
			c-2.4,5.9-5.3,11.5-9.5,16.3C492.2,386.7,490.9,388.4,487.8,389.4L487.8,389.4z"/>
		<path class="st2" d="M517.7,640.2c1.4-1.8,0.5-5,2.6-5.7c1.6-0.5,3.8,1,5.7,1.4c8.1,1.7,16.2,3.3,24.4,4.8c2,0.4,2.4,0.9,1.9,3.1
			c-1.8,8.2-4.4,16.2-5.2,24.5c-0.4,3.9-1.9,6.1-6,4.8c-6.3-2-12.9-2.1-19.2-3.9c-2.7-0.8-5.5-1.2-8.3-1.7c-1.4-0.3-1.9-0.9-1.5-2.3
			C513.9,656.9,515.8,648.5,517.7,640.2L517.7,640.2z"/>
		<path class="st2" d="M603,430.6c-1.4,3.8-2,7.8-2.5,11.6c-0.6,4.9-2.9,9.3-3.4,14.2c-0.2,1.7-1.2,0.7-1.7,0.6
			c-8.2-1.6-16.5-3.3-24.7-5c-0.7-0.1-1.3-0.6-2-0.7c-6.1-1-6.5-1.4-4.3-7.3c2.9-7.6,3.5-15.7,6.2-23.3c0.5-1.5,0.8-2.7,2.8-2.3
			c8.8,1.8,17.6,3.3,26.3,5.3C605.1,424.9,605,425.2,603,430.6L603,430.6z"/>
		<path class="st2" d="M531.6,581.4c0.3-4.8,2.4-10.5,4-16.2c0.5-2,0.9-2.8,3.6-2.5c9.2,1.2,18,3.9,27.2,5c2.8,0.3,3.3,1.5,2.6,4.6
			c-1.8,8.5-4.7,16.7-5.6,25.4c-0.3,2.6-1,4-4.4,3.2c-8.7-2.1-17.5-3.8-26.3-5.5c-3.2-0.6-4.6-1.7-3.4-5.4
			C530.2,587.7,530.3,585,531.6,581.4z"/>
		<path class="st2" d="M549.4,509.4c2.3-5.2,2.1-11,4.1-16.3c0.8-2.2,1.5-2.5,3.7-2c9.1,1.8,18.2,3.3,27.4,5
			c2.4,0.4,3.2,1.4,2.5,4.1c-2.1,8.4-3.8,16.9-5.6,25.4c-0.5,2.4-0.4,4.7-4.7,3.7c-9.2-2.3-18.6-3.5-27.9-5.3
			c-1.2-0.2-3-0.1-2.4-2.5C547.5,517.5,547.7,513.3,549.4,509.4L549.4,509.4z"/>
		<path class="st4" d="M603.6,417.6l-7.4,12.1l-11.7,14.8l-4.8-8.8l-5.4-13.9l-6.6-23.4l4.2,0l5.2,10.4l11.1,22.8l4.1-5.9l5.3-9.6
			l7.9-15.7l6.5-0.4L603.6,417.6L603.6,417.6z"/>
		<path class="st4" d="M584.8,490l-7.4,12.1l-11.7,14.8l-4.8-8.8l-5.4-13.9l-6.6-23.4l4.2,0l5.2,10.4l11.1,22.8l4.1-5.9l5.3-9.6
			l7.9-15.7l6.5-0.4L584.8,490L584.8,490z"/>
		<path class="st4" d="M551,633.3l-7.4,12.1l-11.7,14.8l-4.8-8.8l-5.4-13.9l-6.6-23.4l4.2,0l5.2,10.4l11.1,22.8l4.1-5.9l5.3-9.6
			l7.9-15.7l6.5-0.4L551,633.3L551,633.3z"/>
		<path class="st5" d="M525.2,590.7c0.8-0.2,1.8-1.9,2.4-2.4c2.2-2,4.6-3.8,7.1-5.4c3.4-2.2,6.9-4.2,10.3-6.3
			c2.6-1.5,5.1-3.2,7.8-4.6c2.6-1.3,5.3-2.2,7.9-3.3c1.6-0.7,3.5-1.5,4.8-2.8c0.7-0.7,0.6-0.7-0.1-0.2c-1.3,1-2.6,1.8-4,2.7
			c-2.3,1.4-4.4,3.1-6.8,4.4c-2.3,1.3-4.6,2.7-6.9,4c-2.9,1.6-5.4,3.8-8.3,5.4c-2.9,1.6-5.6,3.4-8.5,5c-1.8,1-3.5,2.1-5.1,3.5
			c-0.3,0.3-0.7,0.5-1,0.8c-0.6,0.5,1.2-1,1.9-1.4c2.3-1.4,4.6-2.8,6.7-4.5c1.7-1.3,3.8-2.6,5.8-3.4"/>
		<path class="st5" d="M528.7,556.4c3,3.6,6.5,6.7,9.9,9.9c4.8,4.4,9.4,9.1,13.6,14c2.3,2.7,4.7,5.4,6.7,8.3c0.7,1,1.3,2.2,2.3,2.9"
			/>
		<path class="st5" d="M556.8,585.9c-0.6-0.7-1.1-1.3-1.9-1.9c-2.5-1.9-5-3.7-7.5-5.7c-4-3.1-8-6.2-11-10.4c-1.4-2-3.2-3.8-4.5-5.8
			c-0.5-0.7-1.6-1.1-2.3-1.7c-0.8-0.5-2.9-1.6-3.1-2.6"/>
	</g>
</g>
</svg>
