<svg width="666" height="237" viewBox="0 0 666 237" fill="none" xmlns="http://www.w3.org/2000/svg">
<path d="M15.1008 182.518C12.842 182.518 10.5832 182.094 8.32437 181.247C6.06555 180.4 4.07143 179.165 2.34202 177.541L6.78907 172.194C8.02437 173.253 9.40084 174.118 10.9185 174.788C12.4361 175.459 13.9008 175.794 15.3126 175.794C18.5244 175.794 20.1303 174.682 20.1303 172.459C20.1303 171.365 19.6714 170.571 18.7538 170.076C17.8714 169.547 16.6714 168.965 15.1538 168.329L10.6538 166.423C8.88908 165.718 7.28319 164.606 5.83613 163.088C4.42437 161.535 3.71849 159.506 3.71849 157C3.71849 154.141 4.86555 151.723 7.15966 149.747C9.45378 147.735 12.4008 146.729 16.0008 146.729C17.9773 146.729 19.9538 147.118 21.9303 147.894C23.9067 148.671 25.6361 149.8 27.1185 151.282L23.1479 156.206C22.0185 155.323 20.8891 154.653 19.7597 154.194C18.6303 153.7 17.3773 153.453 16.0008 153.453C14.6597 153.453 13.5832 153.735 12.7714 154.3C11.995 154.829 11.6067 155.588 11.6067 156.576C11.6067 157.635 12.1008 158.429 13.0891 158.959C14.1126 159.488 15.3655 160.053 16.8479 160.653L21.295 162.453C23.3773 163.3 25.0361 164.465 26.2714 165.947C27.5067 167.429 28.1244 169.388 28.1244 171.823C28.1244 174.682 26.9773 177.188 24.6832 179.341C22.4244 181.459 19.2303 182.518 15.1008 182.518ZM37.2125 151.759C35.9066 151.759 34.8301 151.388 33.9831 150.647C33.136 149.871 32.7125 148.882 32.7125 147.682C32.7125 146.482 33.136 145.512 33.9831 144.771C34.8301 144.029 35.9066 143.659 37.2125 143.659C38.5536 143.659 39.6301 144.029 40.4419 144.771C41.2889 145.512 41.7125 146.482 41.7125 147.682C41.7125 148.882 41.2889 149.871 40.4419 150.647C39.6301 151.388 38.5536 151.759 37.2125 151.759ZM33.3478 181.882V155.623H41.1301V181.882H33.3478ZM47.979 181.882V155.623H54.3319L54.8613 159.012H55.0731C56.1672 157.918 57.3319 156.982 58.5672 156.206C59.8025 155.394 61.2848 154.988 63.0143 154.988C64.8848 154.988 66.3848 155.376 67.5143 156.153C68.679 156.894 69.5966 157.971 70.2672 159.382C71.4319 158.182 72.6496 157.159 73.9201 156.312C75.226 155.429 76.7613 154.988 78.526 154.988C81.3496 154.988 83.4143 155.941 84.7201 157.847C86.0613 159.718 86.7319 162.294 86.7319 165.576V181.882H78.9496V166.582C78.9496 164.676 78.6848 163.371 78.1554 162.665C77.626 161.959 76.8143 161.606 75.7201 161.606C74.4143 161.606 72.9143 162.453 71.2201 164.147V181.882H63.4378V166.582C63.4378 164.676 63.1731 163.371 62.6437 162.665C62.1496 161.959 61.3378 161.606 60.2084 161.606C58.8672 161.606 57.3848 162.453 55.7613 164.147V181.882H47.979ZM105.337 176.165C106.678 176.165 107.825 175.547 108.778 174.312C109.731 173.076 110.207 171.118 110.207 168.435C110.207 163.706 108.69 161.341 105.654 161.341C104.137 161.341 102.637 162.135 101.154 163.723V174.471C101.86 175.106 102.566 175.547 103.272 175.794C103.978 176.041 104.666 176.165 105.337 176.165ZM93.3719 191.624V155.623H99.7248L100.254 158.218H100.466C101.49 157.3 102.637 156.541 103.907 155.941C105.213 155.306 106.554 154.988 107.931 154.988C111.107 154.988 113.613 156.206 115.448 158.641C117.284 161.041 118.201 164.271 118.201 168.329C118.201 172.847 117.054 176.341 114.76 178.812C112.501 181.282 109.96 182.518 107.137 182.518C104.913 182.518 102.831 181.6 100.89 179.765L101.154 183.947V191.624H93.3719ZM130.867 182.518C128.185 182.518 126.314 181.724 125.255 180.135C124.232 178.512 123.72 176.376 123.72 173.729V144.771H131.502V174.047C131.502 174.859 131.644 175.424 131.926 175.741C132.244 176.059 132.561 176.218 132.879 176.218C133.232 176.218 133.549 176.182 133.832 176.112L134.785 181.882C133.832 182.306 132.526 182.518 130.867 182.518ZM150.621 182.518C146.845 182.518 143.686 181.318 141.145 178.918C138.604 176.482 137.333 173.094 137.333 168.753C137.333 165.929 137.915 163.494 139.08 161.447C140.28 159.365 141.815 157.776 143.686 156.682C145.592 155.553 147.604 154.988 149.721 154.988C153.462 154.988 156.251 156.206 158.086 158.641C159.956 161.041 160.892 164.023 160.892 167.588C160.892 169.035 160.786 170.182 160.574 171.029H144.851C145.204 172.935 145.998 174.347 147.233 175.265C148.468 176.147 149.951 176.588 151.68 176.588C153.551 176.588 155.439 176.006 157.345 174.841L159.939 179.553C157.045 181.529 153.939 182.518 150.621 182.518ZM144.798 165.894H154.274C154.274 164.447 153.921 163.265 153.215 162.347C152.545 161.394 151.433 160.918 149.88 160.918C148.645 160.918 147.551 161.341 146.598 162.188C145.645 163 145.045 164.235 144.798 165.894ZM188.833 176.165C190.174 176.165 191.321 175.547 192.274 174.312C193.227 173.076 193.703 171.118 193.703 168.435C193.703 163.706 192.186 161.341 189.15 161.341C187.633 161.341 186.133 162.135 184.65 163.723V174.471C185.356 175.106 186.062 175.547 186.768 175.794C187.474 176.041 188.162 176.165 188.833 176.165ZM176.868 191.624V155.623H183.221L183.75 158.218H183.962C184.986 157.3 186.133 156.541 187.403 155.941C188.709 155.306 190.05 154.988 191.427 154.988C194.603 154.988 197.109 156.206 198.944 158.641C200.78 161.041 201.697 164.271 201.697 168.329C201.697 172.847 200.55 176.341 198.256 178.812C195.997 181.282 193.456 182.518 190.633 182.518C188.409 182.518 186.327 181.6 184.386 179.765L184.65 183.947V191.624H176.868ZM218.493 182.518C216.269 182.518 214.169 181.988 212.193 180.929C210.251 179.835 208.681 178.265 207.481 176.218C206.281 174.135 205.681 171.647 205.681 168.753C205.681 165.859 206.281 163.388 207.481 161.341C208.681 159.259 210.251 157.688 212.193 156.629C214.169 155.535 216.269 154.988 218.493 154.988C220.681 154.988 222.746 155.535 224.687 156.629C226.663 157.688 228.251 159.259 229.451 161.341C230.651 163.388 231.251 165.859 231.251 168.753C231.251 171.647 230.651 174.135 229.451 176.218C228.251 178.265 226.663 179.835 224.687 180.929C222.746 181.988 220.681 182.518 218.493 182.518ZM218.493 176.218C220.081 176.218 221.281 175.547 222.093 174.206C222.904 172.829 223.31 171.012 223.31 168.753C223.31 166.494 222.904 164.694 222.093 163.353C221.281 161.976 220.081 161.288 218.493 161.288C216.869 161.288 215.651 161.976 214.84 163.353C214.063 164.694 213.675 166.494 213.675 168.753C213.675 171.012 214.063 172.829 214.84 174.206C215.651 175.547 216.869 176.218 218.493 176.218ZM243.729 182.518C241.047 182.518 239.176 181.724 238.117 180.135C237.094 178.512 236.582 176.376 236.582 173.729V144.771H244.364V174.047C244.364 174.859 244.505 175.424 244.788 175.741C245.105 176.059 245.423 176.218 245.741 176.218C246.094 176.218 246.411 176.182 246.694 176.112L247.647 181.882C246.694 182.306 245.388 182.518 243.729 182.518ZM258.877 182.518C256.195 182.518 254.324 181.724 253.265 180.135C252.242 178.512 251.73 176.376 251.73 173.729V144.771H259.512V174.047C259.512 174.859 259.654 175.424 259.936 175.741C260.254 176.059 260.571 176.218 260.889 176.218C261.242 176.218 261.56 176.182 261.842 176.112L262.795 181.882C261.842 182.306 260.536 182.518 258.877 182.518ZM274.608 182.518C272.878 182.518 271.096 182.182 269.261 181.512C267.425 180.841 265.855 179.959 264.549 178.865L268.043 173.994C270.478 175.829 272.737 176.747 274.819 176.747C277.043 176.747 278.155 176.006 278.155 174.523C278.155 173.641 277.59 172.953 276.461 172.459C275.367 171.965 274.149 171.453 272.808 170.923C271.219 170.323 269.667 169.423 268.149 168.223C266.631 167.023 265.872 165.347 265.872 163.194C265.872 160.759 266.79 158.782 268.625 157.265C270.461 155.747 272.896 154.988 275.931 154.988C277.943 154.988 279.708 155.341 281.225 156.047C282.743 156.718 284.067 157.476 285.196 158.323L281.702 162.982C280.749 162.312 279.814 161.782 278.896 161.394C277.978 160.971 277.061 160.759 276.143 160.759C274.167 160.759 273.178 161.447 273.178 162.823C273.178 163.671 273.69 164.323 274.714 164.782C275.772 165.206 276.972 165.665 278.314 166.159C279.972 166.759 281.561 167.624 283.078 168.753C284.631 169.882 285.408 171.647 285.408 174.047C285.408 176.447 284.49 178.459 282.655 180.082C280.819 181.706 278.137 182.518 274.608 182.518ZM314.767 161.712H310.055V181.882H302.272V161.712H298.778V155.941L302.272 155.676V154.247C302.272 151.459 302.996 149.076 304.443 147.1C305.89 145.123 308.396 144.135 311.961 144.135C313.055 144.135 314.061 144.241 314.978 144.453C315.896 144.665 316.637 144.876 317.202 145.088L315.772 150.806C314.784 150.453 313.884 150.276 313.072 150.276C311.061 150.276 310.055 151.529 310.055 154.035V155.623H314.767V161.712ZM329.752 182.518C327.528 182.518 325.428 181.988 323.452 180.929C321.511 179.835 319.94 178.265 318.74 176.218C317.54 174.135 316.94 171.647 316.94 168.753C316.94 165.859 317.54 163.388 318.74 161.341C319.94 159.259 321.511 157.688 323.452 156.629C325.428 155.535 327.528 154.988 329.752 154.988C331.94 154.988 334.005 155.535 335.946 156.629C337.922 157.688 339.511 159.259 340.711 161.341C341.911 163.388 342.511 165.859 342.511 168.753C342.511 171.647 341.911 174.135 340.711 176.218C339.511 178.265 337.922 179.835 335.946 180.929C334.005 181.988 331.94 182.518 329.752 182.518ZM329.752 176.218C331.34 176.218 332.54 175.547 333.352 174.206C334.164 172.829 334.569 171.012 334.569 168.753C334.569 166.494 334.164 164.694 333.352 163.353C332.54 161.976 331.34 161.288 329.752 161.288C328.128 161.288 326.911 161.976 326.099 163.353C325.322 164.694 324.934 166.494 324.934 168.753C324.934 171.012 325.322 172.829 326.099 174.206C326.911 175.547 328.128 176.218 329.752 176.218ZM347.841 181.882V155.623H354.194L354.723 160.229H354.935C355.888 158.465 357.035 157.159 358.376 156.312C359.718 155.429 361.059 154.988 362.4 154.988C363.141 154.988 363.741 155.041 364.2 155.147C364.694 155.253 365.135 155.376 365.523 155.518L364.253 162.241C363.794 162.1 363.335 161.994 362.876 161.924C362.453 161.853 361.959 161.818 361.394 161.818C360.406 161.818 359.365 162.188 358.271 162.929C357.212 163.635 356.329 164.871 355.623 166.635V181.882H347.841ZM386.68 182.518C383.998 182.518 382.128 181.724 381.069 180.135C380.045 178.512 379.533 176.376 379.533 173.729V144.771H387.316V174.047C387.316 174.859 387.457 175.424 387.739 175.741C388.057 176.059 388.375 176.218 388.692 176.218C389.045 176.218 389.363 176.182 389.645 176.112L390.598 181.882C389.645 182.306 388.339 182.518 386.68 182.518ZM403.946 176.482C404.829 176.482 405.588 176.288 406.223 175.9C406.893 175.512 407.564 174.965 408.235 174.259V169.653C405.482 170.041 403.576 170.606 402.517 171.347C401.458 172.088 400.929 172.971 400.929 173.994C400.929 175.653 401.935 176.482 403.946 176.482ZM401.299 182.518C398.899 182.518 396.993 181.759 395.582 180.241C394.17 178.688 393.464 176.8 393.464 174.576C393.464 171.824 394.629 169.671 396.958 168.118C399.288 166.565 403.046 165.523 408.235 164.994C408.164 163.829 407.811 162.912 407.176 162.241C406.576 161.535 405.552 161.182 404.105 161.182C403.011 161.182 401.899 161.394 400.77 161.818C399.64 162.241 398.44 162.823 397.17 163.565L394.364 158.429C396.023 157.406 397.788 156.576 399.658 155.941C401.529 155.306 403.505 154.988 405.588 154.988C408.94 154.988 411.517 155.959 413.317 157.9C415.117 159.841 416.017 162.823 416.017 166.847V181.882H409.664L409.135 179.182H408.923C407.793 180.171 406.611 180.982 405.376 181.618C404.14 182.218 402.782 182.518 401.299 182.518ZM421.17 181.882V177.7L432.182 161.712H422.388V155.623H441.87V159.753L430.859 175.794H442.241V181.882H421.17ZM449.449 192.153C448.672 192.153 447.984 192.1 447.384 191.994C446.819 191.888 446.272 191.765 445.743 191.624L447.119 185.694C447.367 185.765 447.649 185.835 447.967 185.906C448.284 185.976 448.584 186.012 448.867 186.012C450.172 186.012 451.178 185.694 451.884 185.059C452.59 184.424 453.119 183.594 453.472 182.571L453.843 181.194L443.731 155.623H451.567L455.325 166.9C455.714 168.1 456.067 169.318 456.384 170.553C456.702 171.788 457.037 173.059 457.39 174.365H457.602C457.884 173.129 458.167 171.894 458.449 170.659C458.767 169.388 459.084 168.135 459.402 166.9L462.578 155.623H470.043L460.937 182.147C459.702 185.465 458.255 187.953 456.596 189.612C454.937 191.306 452.555 192.153 449.449 192.153ZM520.904 176.165C522.245 176.165 523.392 175.547 524.345 174.312C525.298 173.076 525.775 171.118 525.775 168.435C525.775 163.706 524.257 161.341 521.222 161.341C519.704 161.341 518.204 162.135 516.722 163.723V174.471C517.428 175.106 518.134 175.547 518.839 175.794C519.545 176.041 520.234 176.165 520.904 176.165ZM508.939 191.624V155.623H515.292L515.822 158.218H516.034C517.057 157.3 518.204 156.541 519.475 155.941C520.781 155.306 522.122 154.988 523.498 154.988C526.675 154.988 529.181 156.206 531.016 158.641C532.851 161.041 533.769 164.271 533.769 168.329C533.769 172.847 532.622 176.341 530.328 178.812C528.069 181.282 525.528 182.518 522.704 182.518C520.481 182.518 518.398 181.6 516.457 179.765L516.722 183.947V191.624H508.939ZM551.04 182.518C547.264 182.518 544.105 181.318 541.564 178.918C539.023 176.482 537.752 173.094 537.752 168.753C537.752 165.929 538.335 163.494 539.499 161.447C540.699 159.365 542.235 157.776 544.105 156.682C546.011 155.553 548.023 154.988 550.14 154.988C553.882 154.988 556.67 156.206 558.505 158.641C560.376 161.041 561.311 164.023 561.311 167.588C561.311 169.035 561.205 170.182 560.993 171.029H545.27C545.623 172.935 546.417 174.347 547.652 175.265C548.888 176.147 550.37 176.588 552.099 176.588C553.97 176.588 555.858 176.006 557.764 174.841L560.358 179.553C557.464 181.529 554.358 182.518 551.04 182.518ZM545.217 165.894H554.693C554.693 164.447 554.34 163.265 553.635 162.347C552.964 161.394 551.852 160.918 550.299 160.918C549.064 160.918 547.97 161.341 547.017 162.188C546.064 163 545.464 164.235 545.217 165.894ZM577.965 182.518C575.742 182.518 573.642 181.988 571.665 180.929C569.724 179.835 568.153 178.265 566.953 176.218C565.753 174.135 565.153 171.647 565.153 168.753C565.153 165.859 565.753 163.388 566.953 161.341C568.153 159.259 569.724 157.688 571.665 156.629C573.642 155.535 575.742 154.988 577.965 154.988C580.153 154.988 582.218 155.535 584.159 156.629C586.136 157.688 587.724 159.259 588.924 161.341C590.124 163.388 590.724 165.859 590.724 168.753C590.724 171.647 590.124 174.135 588.924 176.218C587.724 178.265 586.136 179.835 584.159 180.929C582.218 181.988 580.153 182.518 577.965 182.518ZM577.965 176.218C579.553 176.218 580.753 175.547 581.565 174.206C582.377 172.829 582.783 171.012 582.783 168.753C582.783 166.494 582.377 164.694 581.565 163.353C580.753 161.976 579.553 161.288 577.965 161.288C576.342 161.288 575.124 161.976 574.312 163.353C573.536 164.694 573.148 166.494 573.148 168.753C573.148 171.012 573.536 172.829 574.312 174.206C575.124 175.547 576.342 176.218 577.965 176.218ZM608.019 176.165C609.36 176.165 610.508 175.547 611.46 174.312C612.413 173.076 612.89 171.118 612.89 168.435C612.89 163.706 611.372 161.341 608.337 161.341C606.819 161.341 605.319 162.135 603.837 163.723V174.471C604.543 175.106 605.249 175.547 605.955 175.794C606.66 176.041 607.349 176.165 608.019 176.165ZM596.055 191.624V155.623H602.408L602.937 158.218H603.149C604.172 157.3 605.319 156.541 606.59 155.941C607.896 155.306 609.237 154.988 610.613 154.988C613.79 154.988 616.296 156.206 618.131 158.641C619.966 161.041 620.884 164.271 620.884 168.329C620.884 172.847 619.737 176.341 617.443 178.812C615.184 181.282 612.643 182.518 609.819 182.518C607.596 182.518 605.513 181.6 603.572 179.765L603.837 183.947V191.624H596.055ZM633.55 182.518C630.867 182.518 628.997 181.724 627.938 180.135C626.914 178.512 626.403 176.376 626.403 173.729V144.771H634.185V174.047C634.185 174.859 634.326 175.424 634.609 175.741C634.926 176.059 635.244 176.218 635.561 176.218C635.914 176.218 636.232 176.182 636.514 176.112L637.467 181.882C636.514 182.306 635.209 182.518 633.55 182.518ZM653.304 182.518C649.527 182.518 646.369 181.318 643.827 178.918C641.286 176.482 640.016 173.094 640.016 168.753C640.016 165.929 640.598 163.494 641.763 161.447C642.963 159.365 644.498 157.776 646.369 156.682C648.274 155.553 650.286 154.988 652.404 154.988C656.145 154.988 658.933 156.206 660.769 158.641C662.639 161.041 663.574 164.023 663.574 167.588C663.574 169.035 663.469 170.182 663.257 171.029H647.533C647.886 172.935 648.68 174.347 649.916 175.265C651.151 176.147 652.633 176.588 654.363 176.588C656.233 176.588 658.122 176.006 660.027 174.841L662.622 179.553C659.727 181.529 656.622 182.518 653.304 182.518ZM647.48 165.894H656.957C656.957 164.447 656.604 163.265 655.898 162.347C655.227 161.394 654.116 160.918 652.563 160.918C651.327 160.918 650.233 161.341 649.28 162.188C648.327 163 647.727 164.235 647.48 165.894Z" fill="#060047"/>
<path d="M478.539 163.406L475.31 161.076L478.433 155.571L472.716 152.976L473.933 149.165L480.075 150.435L480.763 144.188H484.839L485.527 150.488L491.616 149.165L492.886 152.976L487.169 155.571L490.292 161.076L487.063 163.406L482.827 158.694L478.539 163.406Z" fill="#07C96C"/>
<path d="M565.016 217.538L563.865 216.681L565.285 214.33L562.812 213.252L563.252 211.905L565.873 212.518L566.118 209.799H567.538L567.807 212.518L570.428 211.905L570.868 213.252L568.395 214.33L569.791 216.681L568.64 217.538L566.852 215.407L565.016 217.538ZM578.794 227.529C577.309 227.529 575.995 226.982 574.852 225.888C573.725 224.795 573.162 223.252 573.162 221.26C573.162 219.268 573.725 217.726 574.852 216.632C575.995 215.522 577.309 214.966 578.794 214.966C580.28 214.966 581.594 215.522 582.737 216.632C583.88 217.726 584.451 219.268 584.451 221.26C584.451 223.252 583.88 224.795 582.737 225.888C581.594 226.982 580.28 227.529 578.794 227.529ZM578.794 225.448C579.725 225.448 580.46 225.064 580.998 224.297C581.554 223.529 581.831 222.517 581.831 221.26C581.831 220.003 581.554 218.991 580.998 218.223C580.46 217.44 579.725 217.048 578.794 217.048C577.864 217.048 577.121 217.44 576.566 218.223C576.027 218.991 575.758 220.003 575.758 221.26C575.758 222.517 576.027 223.529 576.566 224.297C577.121 225.064 577.864 225.448 578.794 225.448ZM587.362 227.235V215.26H589.468L589.664 217.391H589.738C590.603 215.775 591.738 214.966 593.142 214.966C593.681 214.966 594.121 215.048 594.464 215.211L594.023 217.415C593.811 217.35 593.615 217.301 593.436 217.268C593.272 217.236 593.06 217.219 592.799 217.219C592.326 217.219 591.819 217.415 591.281 217.807C590.742 218.183 590.285 218.844 589.909 219.791V227.235H587.362ZM604.467 227.529C603.634 227.529 602.818 227.374 602.018 227.064C601.218 226.737 600.532 226.337 599.961 225.864L601.161 224.223C601.683 224.631 602.214 224.966 602.753 225.227C603.291 225.472 603.887 225.595 604.54 225.595C605.242 225.595 605.765 225.448 606.107 225.154C606.45 224.844 606.622 224.46 606.622 224.003C606.622 223.464 606.344 223.056 605.789 222.778C605.234 222.485 604.63 222.215 603.977 221.97C603.161 221.66 602.385 221.252 601.651 220.746C600.916 220.24 600.549 219.481 600.549 218.468C600.549 217.456 600.924 216.624 601.675 215.971C602.442 215.301 603.495 214.966 604.834 214.966C605.634 214.966 606.361 215.105 607.014 215.383C607.683 215.66 608.254 215.987 608.728 216.362L607.552 217.93C607.128 217.619 606.695 217.375 606.254 217.195C605.83 216.999 605.373 216.901 604.883 216.901C604.214 216.901 603.724 217.04 603.414 217.317C603.104 217.595 602.948 217.938 602.948 218.346C602.948 218.852 603.21 219.236 603.732 219.497C604.254 219.742 604.85 219.987 605.52 220.232C606.352 220.558 607.144 220.966 607.895 221.456C608.646 221.929 609.022 222.729 609.022 223.856C609.022 224.868 608.63 225.733 607.846 226.452C607.079 227.17 605.952 227.529 604.467 227.529ZM611.636 227.235V215.26H613.742L613.938 216.926H614.011C614.517 216.371 615.073 215.905 615.677 215.53C616.281 215.154 616.958 214.966 617.709 214.966C618.591 214.966 619.293 215.162 619.815 215.554C620.338 215.93 620.738 216.46 621.015 217.146C621.603 216.526 622.207 216.011 622.827 215.603C623.464 215.179 624.158 214.966 624.909 214.966C626.15 214.966 627.072 215.375 627.676 216.191C628.28 217.007 628.582 218.175 628.582 219.693V227.235H626.035V220.011C626.035 218.983 625.872 218.248 625.546 217.807C625.219 217.366 624.721 217.146 624.052 217.146C623.252 217.146 622.362 217.685 621.383 218.762V227.235H618.836V220.011C618.836 218.983 618.672 218.248 618.346 217.807C618.036 217.366 617.538 217.146 616.852 217.146C616.052 217.146 615.162 217.685 614.183 218.762V227.235H611.636ZM635.804 225.521C636.31 225.521 636.783 225.399 637.224 225.154C637.681 224.909 638.155 224.566 638.644 224.125V221.211C636.881 221.44 635.657 221.774 634.971 222.215C634.285 222.656 633.943 223.203 633.943 223.856C633.943 224.444 634.122 224.868 634.481 225.129C634.84 225.391 635.281 225.521 635.804 225.521ZM635.02 227.529C633.975 227.529 633.126 227.211 632.473 226.574C631.82 225.937 631.494 225.097 631.494 224.052C631.494 222.762 632.057 221.766 633.183 221.064C634.326 220.346 636.147 219.856 638.644 219.595C638.628 218.909 638.457 218.313 638.13 217.807C637.82 217.285 637.232 217.024 636.367 217.024C635.73 217.024 635.118 217.146 634.53 217.391C633.959 217.619 633.42 217.897 632.914 218.223L631.959 216.534C632.579 216.126 633.306 215.766 634.138 215.456C634.971 215.13 635.861 214.966 636.808 214.966C638.31 214.966 639.412 215.415 640.114 216.313C640.832 217.195 641.191 218.444 641.191 220.06V227.235H639.085L638.889 225.864H638.816C638.261 226.321 637.665 226.713 637.028 227.039C636.408 227.366 635.738 227.529 635.02 227.529ZM644.686 227.235V215.26H646.792L646.988 217.391H647.062C647.927 215.775 649.062 214.966 650.466 214.966C651.004 214.966 651.445 215.048 651.788 215.211L651.347 217.415C651.135 217.35 650.939 217.301 650.759 217.268C650.596 217.236 650.384 217.219 650.123 217.219C649.649 217.219 649.143 217.415 648.604 217.807C648.066 218.183 647.609 218.844 647.233 219.791V227.235H644.686ZM657.672 227.529C656.333 227.529 655.386 227.137 654.831 226.354C654.276 225.57 653.998 224.558 653.998 223.317V217.293H652.284V215.383L654.145 215.26L654.439 211.954H656.545V215.26H659.68V217.293H656.545V223.317C656.545 224.77 657.133 225.497 658.308 225.497C658.521 225.497 658.741 225.472 658.97 225.423C659.214 225.358 659.418 225.284 659.582 225.203L660.047 227.088C659.721 227.203 659.353 227.301 658.945 227.382C658.537 227.48 658.112 227.529 657.672 227.529Z" fill="#07C96C"/>
<g clip-path="url(#clip0_8_58)">
<path d="M117.218 99.9399L103.028 101.873L89.5617 100.545L88.2303 89.6535L87.9944 71.0135L88.9719 53.7013L87.2359 35.4311L87 25.1446L95.6122 24.5396H117.454L131.645 24.9093L132.252 29.75L115.634 30.9602L100.466 33.4982L99.8593 49.6002L100.095 61.4666L105.927 59.8866L116.477 58.5588L128.493 59.5337L128.729 65.5845L118.179 65.9543L102.404 67.5342L102.033 78.1905L103.365 92.5948L112.348 91.0149L123.269 90.6451L133.583 89.3173L133.954 98.0238L117.202 99.9567L117.218 99.9399Z" fill="#060047"/>
<path d="M206.778 40.1541L193.801 60.2396L182.273 80.5772L173.408 90.746L185.307 91.1157L209.222 91.8385L209.829 101.032H151.212L160.802 86.3927L171.352 74.1734L185.307 57.1133L196.953 34.0024L178.515 33.3973L156.302 31.6997V23.8336H174.386L196.599 23.2285L212.609 24.5563L206.778 40.1709V40.1541Z" fill="#060047"/>
<path d="M344.017 28.6911L336.736 48.5413L324.837 73.1145L318.399 60.0379L310.748 39.2129L300.804 3.74817L305.658 3.14308L312.703 18.5223L327.753 52.4071L331.882 42.7258L336.972 27.1112L344.371 1.57995L351.769 0L344 28.6911H344.017Z" fill="#07C96C"/>
<path d="M404.42 101.032C380.269 101.032 375.651 82.0227 376.139 62.307C376.746 41.9694 383.538 25.027 402.953 25.027C426.616 25.027 429.043 40.0365 429.043 60.2396C429.043 75.4844 424.189 101.032 404.403 101.032H404.42ZM399.195 32.5233C383.049 32.5233 383.049 54.1887 383.049 65.803C383.049 76.5769 385.106 93.1495 399.313 93.1495C418.61 93.1495 419.571 65.4332 419.571 51.7516C419.571 38.0699 412.172 32.5065 399.178 32.5065L399.195 32.5233Z" fill="#060047"/>
<path d="M498.328 38.4566L489.227 38.8263L488.856 59.1639V78.5267L487.643 99.8223L475.997 100.058L475.272 80.6949V59.7522L475.643 37.4817L461.688 37.2464L451.374 35.9186L451.744 25.2623H473.705L493.727 25.6321L510.597 25.8674V37.2464L498.345 38.4566H498.328Z" fill="#060047"/>
<path d="M563.248 99.9399L549.057 101.873L535.591 100.545L534.26 89.6535L534.024 71.0135L535.001 53.7013L533.299 35.4311L533.063 25.1446L541.675 24.5396H563.517L577.708 24.9093L578.315 29.75L561.697 30.9602L546.529 33.4982L545.922 49.6002L546.158 61.4666L551.989 59.8866L562.54 58.5588L574.556 59.5337L574.792 65.5845L564.242 65.9543L548.467 67.5342L548.096 78.1905L549.428 92.5948L558.411 91.0149L569.332 90.6451L579.646 89.3173L580.017 98.0238L563.264 99.9567L563.248 99.9399Z" fill="#060047"/>
<path d="M345.685 59.1135L345.18 85.4852L344.708 108.495L318.197 106.831L295.31 108.915H287.422L286.327 52.8778L285.973 27.3297L297.888 27.7163L295.445 19.0266L293.018 19.5981L277.597 21.2789L277.833 46.8269L278.204 99.0996L279.906 115.807L290.102 117.017L331.596 115.151L345.18 115.874L354.651 115.622V99.8896L354.887 54.962L345.685 59.1303V59.1135Z" fill="#060047"/>
</g>
<defs>
<clipPath id="clip0_8_58">
<rect width="493" height="117" fill="white" transform="translate(87)"/>
</clipPath>
</defs>
</svg>
