<svg width="155" height="37" viewBox="0 0 155 37" fill="none" xmlns="http://www.w3.org/2000/svg">
<g clip-path="url(#clip0_2_100)">
<path d="M9.50072 31.6049L5.03914 32.2162L0.805415 31.7963L0.386811 28.352L0.312628 22.4573L0.619958 16.9825L0.074183 11.2047L0 7.95173L2.70768 7.76038H9.5749L14.0365 7.87731L14.2272 9.40813L9.00263 9.79083L4.23373 10.5934L4.04297 15.6855L4.11715 19.4382L5.95053 18.9385L9.26757 18.5186L13.0456 18.8269L13.1198 20.7404L9.80275 20.8573L4.84309 21.357L4.72651 24.7269L5.14512 29.2821L7.96937 28.7825L11.403 28.6656L14.6458 28.2457L14.7624 30.999L9.49542 31.6103L9.50072 31.6049Z" fill="#090909"/>
<path d="M37.6584 12.6984L33.5784 19.0502L29.954 25.4817L27.1669 28.6975L30.9078 28.8144L38.4268 29.043L38.6175 31.9505H20.1884L23.2034 27.3208L26.5204 23.4566L30.9078 18.0615L34.5693 10.753L28.7724 10.5616L21.7886 10.0248V7.53718H27.4742L34.458 7.34583L39.4918 7.76574L37.6584 12.7037V12.6984Z" fill="#090909"/>
<path d="M80.8064 9.07327L78.5174 15.3507L74.7764 23.1217L72.7523 18.9864L70.3466 12.4007L67.2204 1.18532L68.7464 0.993966L70.9613 5.85749L75.6931 16.5732L76.9913 13.5116L78.5916 8.57362L80.9177 0.499641L83.2439 0L80.8012 9.07327H80.8064Z" fill="white"/>
<path d="M99.7973 31.9505C92.2041 31.9505 90.7523 25.9388 90.9059 19.7039C91.0967 13.2724 93.2321 7.91455 99.3363 7.91455C106.776 7.91455 107.539 12.6611 107.539 19.0502C107.539 23.8712 106.013 31.9505 99.792 31.9505H99.7973ZM98.1547 10.2852C93.0784 10.2852 93.0784 17.1366 93.0784 20.8095C93.0784 24.2167 93.7249 29.4576 98.1918 29.4576C104.259 29.4576 104.561 20.6926 104.561 16.3659C104.561 12.0392 102.235 10.2799 98.1494 10.2799L98.1547 10.2852Z" fill="#090909"/>
<path d="M129.322 12.1614L126.461 12.2784L126.344 18.7099V24.8332L125.963 31.5677L122.301 31.6421L122.073 25.5188V18.8959L122.19 11.8531L117.803 11.7787L114.56 11.3588L114.676 7.98889H121.581L127.876 8.10583L133.18 8.18024V11.7787L129.327 12.1614H129.322Z" fill="#090909"/>
<path d="M149.733 31.6049L145.271 32.2162L141.038 31.7963L140.619 28.352L140.545 22.4573L140.852 16.9825L140.317 11.2047L140.243 7.95173L142.951 7.76038H149.818L154.279 7.87731L154.47 9.40813L149.246 9.79083L144.477 10.5934L144.286 15.6855L144.36 19.4382L146.193 18.9385L149.51 18.5186L153.289 18.8269L153.363 20.7404L150.046 20.8573L145.086 21.357L144.969 24.7269L145.388 29.2821L148.212 28.7825L151.646 28.6656L154.889 28.2457L155.005 30.999L149.738 31.6103L149.733 31.6049Z" fill="#090909"/>
<path d="M81.331 18.694L81.1721 27.0338L81.0237 34.3105L72.6887 33.7842L65.493 34.4433H63.0131L62.6687 16.722L62.5574 8.64274L66.3037 8.76499L65.5354 6.01697L64.7723 6.19769L59.924 6.72922L59.9981 14.8085L60.1147 31.3392L60.6499 36.6226L63.8557 37.0053L76.9013 36.4153L81.1721 36.6439L84.15 36.5642V31.589L84.2242 17.3811L81.331 18.6993V18.694Z" fill="#090909"/>
</g>
<defs>
<clipPath id="clip0_2_100">
<rect width="155" height="37" fill="white"/>
</clipPath>
</defs>
</svg>
